<?xml version="1.0" standalone="no"?>
<!DOCTYPE svg PUBLIC "-//W3C//DTD SVG 20010904//EN"
 "http://www.w3.org/TR/2001/REC-SVG-20010904/DTD/svg10.dtd">
<svg version="1.0" xmlns="http://www.w3.org/2000/svg"
 width="1707.000000pt" height="1707.000000pt" viewBox="0 0 1707.000000 1707.000000"
 preserveAspectRatio="xMidYMid meet">
<metadata>
Created by potrace 1.14, written by Peter Selinger 2001-2017
</metadata>
<g transform="translate(0.000000,1707.000000) scale(0.100000,-0.100000)"
fill="#000000" stroke="none">
<path d="M10630 17055 c-36 -7 -81 -15 -100 -18 -35 -5 -146 -25 -290 -53 -59
-11 -197 -36 -225 -41 -16 -3 -112 -20 -212 -38 -173 -31 -186 -35 -255 -77
-40 -25 -246 -152 -458 -281 -212 -130 -403 -253 -425 -274 -23 -21 -81 -74
-130 -118 -322 -287 -306 -268 -522 -620 l-190 -310 -58 -205 c-31 -113 -81
-290 -110 -395 -86 -305 -78 -273 -95 -420 -6 -55 -13 -111 -15 -125 -2 -14
-6 -47 -9 -75 -3 -27 -8 -69 -11 -92 -12 -108 -25 -224 -30 -288 -3 -38 -8
-86 -10 -105 -2 -19 -7 -75 -10 -125 -13 -212 -17 -252 -32 -283 -22 -45 -68
-82 -106 -83 -96 -2 -197 -35 -182 -58 9 -16 -20 -30 -241 -114 -293 -113
-405 -146 -639 -192 -16 -3 -64 -12 -105 -20 -41 -8 -88 -17 -105 -20 -75 -14
-194 -35 -230 -41 -64 -9 -98 -14 -125 -19 -27 -5 -51 -8 -180 -25 -47 -6 -96
-13 -110 -15 -14 -2 -47 -6 -75 -10 -27 -3 -103 -15 -169 -25 -65 -11 -133
-22 -150 -25 -17 -3 -42 -7 -56 -10 -14 -3 -40 -7 -59 -10 -19 -3 -112 -22
-205 -41 -94 -19 -180 -36 -191 -38 -11 -2 -51 -12 -90 -21 -38 -9 -79 -18
-90 -21 -49 -10 -67 -14 -195 -48 -466 -121 -646 -202 -935 -423 -63 -48 -83
-58 -108 -54 -38 6 -127 -87 -156 -163 -32 -86 -35 -130 -14 -188 20 -56 80
-131 123 -153 16 -8 31 -26 35 -42 10 -41 49 -88 89 -107 53 -25 95 -23 140 8
21 14 45 26 53 26 8 0 29 10 46 22 44 32 126 36 169 10 48 -30 96 -83 101
-112 5 -27 44 -123 76 -187 17 -35 18 -63 17 -370 -2 -183 -6 -336 -10 -340
-4 -4 -19 -9 -34 -11 -15 -2 -41 -14 -58 -27 -37 -28 -45 -59 -59 -215 -3 -36
-8 -81 -10 -100 -2 -20 -7 -74 -10 -120 -4 -47 -8 -101 -10 -120 -2 -19 -7
-71 -10 -115 -4 -44 -9 -96 -10 -115 -26 -260 -26 -536 -1 -651 18 -82 17 -88
-27 -107 -62 -28 -203 -137 -227 -178 -24 -39 -27 -97 -10 -198 5 -33 8 -61 6
-64 -2 -2 -19 -6 -38 -8 -65 -10 -93 -71 -68 -152 6 -17 14 -45 19 -61 8 -27
7 -29 -15 -26 -27 3 -84 -33 -106 -67 -10 -15 -13 -41 -11 -80 2 -36 -2 -71
-12 -94 -22 -54 -19 -78 19 -123 37 -44 50 -90 61 -216 11 -131 21 -206 39
-301 8 -40 38 -160 56 -224 11 -36 21 -76 24 -90 2 -14 16 -79 29 -145 14 -66
33 -171 42 -233 9 -62 18 -121 20 -130 1 -9 6 -48 10 -87 3 -38 8 -83 10 -100
5 -32 10 -91 20 -220 3 -44 8 -99 10 -121 2 -23 7 -81 10 -130 3 -49 8 -105
10 -124 2 -19 7 -62 10 -95 14 -148 26 -256 30 -290 6 -46 25 -224 30 -280 24
-261 23 -1103 -1 -1348 -15 -162 -84 -417 -130 -487 -27 -40 -67 -67 -135 -90
-70 -24 -159 -81 -175 -113 -14 -26 -21 -157 -11 -197 2 -8 7 -31 11 -50 12
-50 61 -143 98 -185 34 -40 115 -84 193 -106 30 -8 97 -14 168 -14 l118 0 40
42 c31 33 39 50 40 80 1 69 9 112 44 231 18 64 37 131 40 147 13 64 44 232 49
270 4 23 8 50 10 60 2 11 7 42 10 68 4 27 9 58 12 70 7 39 29 208 38 307 32
313 41 495 41 815 0 252 -7 475 -20 650 -5 81 -16 357 -20 530 -4 158 -14 335
-20 345 -3 5 -22 136 -31 210 -2 19 -6 55 -9 80 -10 87 -15 126 -20 172 -3 27
-7 67 -10 90 -8 63 -15 135 -20 208 -3 36 -8 74 -10 85 -8 41 -20 202 -20 285
0 76 4 92 34 155 42 85 131 177 214 220 31 16 57 32 57 36 0 3 10 10 22 16 17
8 54 2 153 -25 71 -18 137 -35 145 -37 8 -2 62 -17 120 -33 58 -16 119 -33
135 -37 17 -5 35 -9 40 -11 75 -22 495 -137 508 -139 10 -2 32 -9 50 -14 44
-15 161 -48 249 -71 40 -10 98 -25 128 -34 210 -58 874 -240 915 -251 490
-134 428 -117 565 -150 125 -29 233 -49 320 -60 69 -8 130 -24 130 -33 0 -4 7
-39 15 -77 13 -59 44 -215 61 -305 2 -14 15 -81 29 -150 25 -130 36 -191 60
-325 38 -219 44 -295 38 -490 -8 -283 -9 -264 26 -326 27 -48 38 -58 88 -79
32 -13 93 -45 135 -71 96 -59 101 -60 202 -61 63 0 93 5 129 21 25 12 55 21
67 21 12 0 34 7 49 15 31 16 101 92 101 109 0 6 10 29 22 51 16 31 21 57 21
111 0 88 -18 119 -77 135 -126 33 -164 51 -191 92 -24 38 -27 66 -29 288 l-2
206 -28 33 c-37 44 -51 84 -70 198 -4 17 -9 47 -12 65 -14 80 -13 87 7 87 23
0 119 -93 120 -117 2 -46 12 -77 44 -135 38 -71 166 -360 227 -512 50 -125 70
-191 102 -326 26 -114 36 -178 50 -335 19 -203 47 -783 61 -1260 3 -104 8
-244 10 -310 2 -66 7 -217 10 -335 3 -118 8 -280 10 -360 17 -597 22 -1111 12
-1175 -10 -66 -23 -124 -51 -230 -46 -178 -65 -409 -42 -515 13 -58 49 -155
70 -189 59 -92 192 -179 316 -205 160 -33 374 15 415 94 9 17 22 30 30 30 8 0
18 12 21 28 4 15 27 70 52 122 36 76 45 109 49 166 8 102 -11 172 -109 409
-76 183 -80 202 -93 445 -6 110 -14 212 -20 257 -16 113 -20 267 -19 823 0
545 9 1078 19 1205 2 22 6 96 10 165 3 69 8 152 10 185 3 33 7 114 10 180 3
66 7 165 10 220 7 123 12 237 20 420 9 201 6 186 107 593 54 214 87 364 78
352 -31 -42 -169 -327 -179 -370 -9 -42 -21 -119 -26 -165 -3 -30 -16 -137
-29 -230 -3 -22 -8 -62 -11 -90 -3 -27 -10 -84 -15 -125 -14 -116 -19 -160
-25 -225 -4 -33 -8 -71 -10 -85 -2 -14 -7 -65 -10 -115 -4 -49 -8 -103 -10
-120 -4 -33 -15 -234 -20 -342 -1 -37 -6 -149 -10 -248 -4 -99 -9 -182 -12
-185 -5 -6 2 376 22 1150 10 393 14 467 26 512 6 24 13 52 15 63 2 11 18 76
35 145 17 69 33 136 35 149 3 14 7 28 9 31 2 4 7 20 10 36 3 16 18 81 34 144
16 63 28 116 26 118 -1 1 -32 -78 -69 -175 -37 -98 -71 -186 -76 -195 -6 -10
-10 -23 -10 -29 0 -6 -7 -25 -14 -42 -26 -56 -105 -300 -111 -342 -4 -22 -8
-47 -10 -55 -2 -8 -7 -37 -10 -65 -3 -27 -8 -66 -11 -85 -2 -19 -7 -62 -9 -95
-3 -33 -7 -82 -10 -110 -2 -27 -7 -90 -10 -140 -3 -49 -8 -106 -10 -125 -2
-19 -7 -82 -11 -140 -3 -58 -7 -121 -9 -140 -2 -19 -6 -84 -10 -145 -3 -60 -8
-135 -10 -165 -3 -30 -7 -109 -10 -175 -3 -66 -7 -142 -10 -170 -3 -44 -8
-142 -20 -390 -2 -38 -6 -151 -10 -250 -4 -99 -9 -202 -10 -230 -2 -27 -4 -97
-4 -154 -1 -57 -4 -101 -8 -98 -4 4 -8 490 -9 1080 -2 946 -5 1176 -18 1244
-2 10 -7 47 -11 83 -3 36 -8 81 -11 100 -2 19 -6 58 -9 85 -2 28 -7 66 -10 85
-2 19 -7 58 -10 85 -8 75 -15 146 -20 185 -3 19 -7 58 -10 85 -8 68 -10 73
-62 168 -25 45 -64 116 -85 157 -22 41 -55 102 -73 135 -54 99 -115 219 -115
227 0 15 126 -42 166 -75 46 -38 94 -59 120 -53 24 6 94 89 94 112 0 8 3 14 8
14 4 0 112 -18 241 -40 128 -22 241 -40 251 -40 31 0 89 45 297 229 80 70 107
85 84 44 -6 -10 -47 -92 -92 -183 -61 -123 -75 -160 -58 -145 59 49 354 352
388 398 44 61 90 161 92 203 1 16 -2 45 -5 65 l-7 36 58 22 c69 26 140 73 168
109 12 16 22 49 25 82 l5 55 55 12 c30 7 66 14 80 17 14 3 39 8 55 11 17 3 62
12 100 21 39 8 79 16 90 18 11 3 40 9 65 15 25 5 56 12 70 15 14 2 70 14 125
26 55 12 119 26 141 30 192 40 421 172 680 394 27 22 39 19 40 -14 6 -103 15
-282 19 -365 4 -92 10 -184 20 -310 2 -27 7 -90 10 -140 3 -49 8 -101 10 -115
2 -14 6 -56 10 -95 3 -38 8 -86 10 -105 2 -19 7 -62 10 -95 5 -52 17 -158 30
-260 2 -16 7 -57 10 -90 4 -33 9 -67 10 -75 2 -9 6 -43 10 -75 4 -33 9 -67 10
-75 2 -13 9 -54 20 -130 7 -44 34 -214 40 -250 3 -19 10 -58 16 -86 5 -28 12
-64 15 -80 2 -16 7 -40 9 -54 3 -14 8 -38 11 -55 2 -16 27 -124 54 -240 27
-115 63 -271 79 -345 67 -298 177 -656 216 -700 23 -26 22 -54 -3 -65 -52 -23
-80 -151 -47 -214 17 -35 71 -81 92 -81 9 0 39 -17 67 -39 61 -46 99 -59 191
-67 50 -4 79 -12 100 -27 27 -19 43 -22 140 -22 104 0 111 1 120 22 5 13 22
27 37 32 33 12 54 43 67 101 7 33 21 56 52 85 l43 39 0 81 c1 96 -15 129 -69
144 -19 5 -47 19 -61 30 -16 13 -41 21 -64 21 l-37 0 -91 308 c-82 277 -133
463 -145 532 -3 14 -14 70 -26 125 -11 55 -22 111 -25 125 -2 14 -19 97 -36
185 -33 169 -59 307 -66 340 -19 100 -59 309 -84 440 -38 200 -38 194 -45 580
-3 176 -8 406 -10 510 -3 105 -7 312 -10 460 -5 289 -16 760 -19 862 -3 97
-13 85 -21 -24 -4 -54 -8 -118 -10 -143 -2 -25 -7 -101 -10 -170 -4 -69 -8
-145 -10 -170 -2 -25 -7 -103 -10 -175 -4 -71 -9 -150 -10 -175 -13 -193 -20
-414 -19 -637 0 -145 -1 -262 -2 -260 -1 1 -5 25 -8 52 -3 28 -8 61 -11 75 -3
14 -8 45 -11 70 -3 25 -9 72 -14 105 -5 33 -12 83 -16 110 -3 28 -8 59 -10 70
-2 11 -7 40 -10 65 -14 117 -45 264 -59 286 -8 13 -30 31 -48 40 -34 18 -66
49 -69 68 0 6 -2 92 -2 191 -1 153 -4 185 -19 217 -21 41 -52 65 -91 70 -14 2
-28 7 -31 10 -10 10 91 93 156 128 83 43 172 104 203 137 26 28 66 127 73 184
5 40 -20 101 -56 133 -22 20 -23 49 -5 139 2 11 6 41 9 66 3 25 7 55 9 67 2
12 7 45 11 74 4 29 8 62 11 73 2 11 6 41 9 66 3 25 7 55 9 66 7 35 19 125 31
217 2 18 7 51 10 73 8 49 12 76 20 135 3 25 8 57 11 73 2 15 6 39 8 55 31 199
40 249 47 262 4 9 6 -4 4 -29 -2 -24 -6 -103 -10 -175 -3 -72 -8 -153 -10
-181 -2 -27 -6 -106 -10 -175 -3 -69 -8 -152 -10 -185 -2 -33 -7 -118 -10
-190 -4 -71 -8 -159 -10 -195 -4 -65 8 -67 19 -4 3 16 14 83 26 149 11 66 36
210 55 320 19 110 37 209 39 220 2 11 13 80 25 152 12 73 23 139 26 145 2 7 7
31 10 53 6 42 43 266 50 300 9 49 25 133 30 164 3 19 7 37 9 40 2 3 7 29 10
56 4 28 11 66 16 85 5 19 11 46 14 60 3 14 12 59 21 100 9 41 18 82 20 90 2 8
8 33 13 55 6 22 13 51 16 65 6 32 121 518 172 725 8 33 16 69 19 80 2 11 27
116 55 234 57 241 53 218 51 250 -1 29 -67 92 -88 84 -19 -8 -12 20 28 100 30
59 46 77 29 31 -16 -41 -22 -86 -10 -79 5 3 10 12 10 20 0 27 67 161 99 197
43 50 63 102 68 179 4 74 37 178 201 629 157 433 209 593 272 850 61 248 74
311 85 414 3 33 7 73 10 90 2 17 6 60 9 96 29 346 29 319 -19 620 -9 55 -37
247 -41 285 -6 43 -182 481 -245 607 -50 100 -89 129 -167 124 -66 -4 -81 7
-195 148 -79 98 -95 116 -171 184 -49 44 -189 135 -256 165 -159 72 -447 187
-548 218 -121 38 -477 99 -664 114 -114 8 -228 15 -333 20 -178 8 -318 15
-432 20 -235 12 -370 12 -433 0z m1336 -154 c60 -11 125 -23 144 -26 29 -5
141 -27 246 -49 435 -92 710 -206 924 -385 66 -56 266 -256 287 -288 13 -19
13 -28 3 -52 -15 -37 -9 -71 38 -216 43 -132 53 -165 58 -210 5 -41 11 -74 29
-180 18 -102 16 -95 44 -230 11 -55 18 -101 16 -103 -2 -2 -20 7 -42 21 -21
13 -48 27 -61 31 -20 7 -22 12 -17 49 3 23 11 56 17 73 9 24 7 38 -7 67 -9 20
-25 39 -34 42 -41 13 -98 175 -102 288 -3 82 -7 92 -73 160 -31 31 -96 106
-144 166 -77 95 -113 132 -201 204 -34 27 -297 169 -381 205 -77 33 -214 73
-380 112 -52 12 -133 35 -179 51 -62 21 -111 30 -190 34 -58 3 -122 8 -141 10
-19 2 -73 7 -120 10 -47 3 -101 8 -120 10 -248 27 -957 27 -1122 0 -12 -2 -45
-6 -73 -10 -27 -3 -63 -8 -80 -10 -16 -3 -48 -7 -70 -10 -22 -3 -51 -7 -65
-10 -14 -3 -41 -7 -60 -9 -19 -3 -82 -14 -140 -25 -58 -11 -116 -22 -130 -25
-114 -19 -108 -17 -350 -154 -360 -203 -598 -381 -616 -459 -20 -93 -56 -138
-129 -162 -88 -30 -213 -131 -217 -175 -4 -53 -4 -62 2 -86 8 -31 -11 -60
-174 -263 -138 -172 -190 -245 -234 -333 -56 -111 -113 -320 -153 -558 -11
-67 -22 -132 -24 -146 -7 -41 -25 -167 -30 -218 -3 -26 -10 -76 -16 -112 -6
-36 -12 -81 -14 -100 -9 -84 -53 -352 -59 -358 -8 -7 -86 31 -86 43 0 7 7 52
15 101 9 49 18 103 21 119 10 59 75 422 95 530 23 119 23 119 45 245 8 47 19
105 24 130 5 25 12 56 14 70 2 14 15 86 30 160 14 74 27 146 30 160 35 188 61
257 141 381 27 41 51 76 55 79 3 3 17 21 30 40 36 51 162 193 319 359 223 236
259 272 401 385 141 112 383 267 641 409 60 34 160 61 344 93 17 3 62 11 100
19 39 8 86 17 105 20 56 10 389 74 460 90 50 11 170 14 524 15 253 0 461 1
462 3 1 1 60 1 131 1 83 -1 168 -9 239 -23z m-1186 -435 c-47 -31 -169 -108
-271 -173 l-186 -117 -89 -136 c-98 -151 -274 -446 -274 -460 0 -5 7 -7 15 -3
12 4 10 -8 -10 -53 -36 -82 -52 -104 -75 -104 -25 0 -25 11 0 40 20 23 27 60
13 60 -5 0 -14 -4 -22 -9 -9 -6 -23 -4 -40 7 -21 13 -175 140 -227 187 -6 5
-56 51 -110 100 -181 166 -187 175 -129 204 17 9 91 55 165 102 150 97 268
157 422 217 247 96 463 157 628 177 30 4 56 8 57 9 1 0 50 2 110 4 l108 3 -85
-55z m1080 44 c0 -5 -4 -10 -9 -10 -6 0 -13 5 -16 10 -3 6 1 10 9 10 9 0 16
-4 16 -10z m579 -185 c116 -33 189 -63 221 -90 8 -7 33 -18 54 -25 54 -17 184
-96 216 -130 3 -3 19 -16 35 -28 67 -51 212 -203 287 -303 58 -77 90 -112 117
-124 31 -14 40 -25 55 -68 9 -29 19 -60 23 -69 3 -12 0 -18 -11 -18 -9 0 -33
-11 -54 -24 -22 -15 -60 -27 -94 -31 -32 -3 -102 -19 -155 -34 -82 -24 -127
-37 -163 -46 -72 -17 -274 -100 -318 -130 -20 -14 -38 -23 -40 -21 -2 3 8 46
22 98 27 101 27 107 -5 288 -44 255 -96 390 -228 592 -38 58 -81 127 -96 152
-26 44 -26 46 -7 46 11 0 75 -16 141 -35z m-497 -80 c84 -42 180 -110 247
-176 106 -104 145 -174 184 -324 23 -87 97 -444 114 -545 3 -19 6 -42 8 -50 1
-8 -13 -32 -31 -52 -34 -38 -43 -59 -48 -113 -6 -64 51 -123 123 -128 23 -1
41 -3 41 -3 0 -1 -24 -14 -52 -29 -67 -34 -104 -69 -130 -120 -11 -22 -27 -48
-35 -57 -10 -11 -14 -29 -11 -48 6 -41 -8 -47 -37 -16 -39 42 -85 36 -129 -16
-20 -24 -36 -38 -36 -31 0 11 36 58 77 101 40 40 73 108 78 158 3 27 15 92 27
144 21 87 23 119 23 390 l0 295 -32 84 c-61 158 -120 250 -237 367 -79 78
-134 121 -224 174 -40 23 -75 46 -78 51 -7 12 95 -25 158 -56z m-273 -180 c71
-10 116 -29 171 -74 72 -58 210 -203 235 -246 20 -33 49 -124 60 -185 8 -45
16 -87 19 -106 2 -12 7 -39 11 -60 3 -22 8 -50 10 -64 6 -38 24 -188 30 -255
3 -33 8 -75 11 -94 l5 -33 25 23 24 22 0 -37 c0 -20 5 -46 10 -57 8 -14 6 -27
-5 -49 -19 -37 -32 -32 -41 16 -3 19 -10 34 -14 32 -4 -2 -23 -23 -42 -48 -18
-24 -45 -50 -58 -56 -189 -90 -207 -101 -364 -227 l-35 -29 -27 21 c-15 12
-32 21 -40 21 -11 0 -17 14 -29 79 -18 96 -66 166 -175 253 -89 71 -183 95
-420 104 l-156 7 -110 -54 c-152 -74 -196 -103 -218 -141 -11 -18 -32 -49 -48
-70 l-28 -36 -49 31 c-40 26 -56 46 -86 107 -87 173 -119 276 -97 317 6 11 27
40 47 63 32 39 36 48 31 84 -4 23 -11 56 -17 73 -13 41 -9 47 166 220 139 138
211 191 457 337 134 79 200 108 268 118 43 6 422 1 479 -7z m-2728 -176 c19
-7 79 -42 134 -78 55 -36 183 -109 285 -161 l185 -95 -3 -70 c-1 -38 1 -75 5
-81 15 -21 118 -81 187 -109 52 -20 81 -26 113 -22 54 6 79 27 109 95 25 57
152 225 241 320 l54 57 -16 -40 c-9 -22 -32 -80 -52 -130 -39 -100 -69 -135
-114 -135 -41 0 -63 -13 -86 -52 -79 -134 -102 -312 -50 -385 13 -18 64 -77
113 -130 131 -141 143 -154 182 -201 l35 -43 -21 -45 c-35 -71 -30 -100 26
-153 65 -63 165 -116 192 -101 28 15 49 61 39 85 -4 11 -8 24 -8 28 -1 10 90
-2 102 -13 4 -4 -4 -38 -18 -76 -38 -98 -51 -159 -54 -237 -2 -56 2 -77 22
-115 14 -26 37 -75 51 -109 14 -34 44 -90 66 -124 22 -34 40 -71 40 -82 0 -11
-12 -41 -27 -66 l-26 -45 -19 44 c-11 25 -31 79 -45 120 -14 41 -34 84 -44 95
-58 62 -75 76 -96 81 -35 9 -92 -5 -114 -27 -34 -34 -34 -12 -1 42 23 36 32
62 32 93 0 55 -16 138 -34 179 -94 215 -131 295 -197 429 -88 178 -128 237
-179 266 -44 26 -44 26 -80 7 -39 -20 -42 -19 -28 11 9 20 9 36 -1 72 -8 26
-15 65 -16 87 -3 55 -13 84 -42 122 -31 42 -57 55 -110 58 -28 1 -57 12 -83
30 -38 27 -232 198 -316 280 -124 121 -217 196 -282 229 -18 9 -54 19 -80 22
-59 6 -65 12 -50 52 13 35 27 38 79 21z m-53 -306 c40 -25 194 -148 397 -317
205 -171 285 -244 285 -260 0 -9 -57 -91 -97 -141 -5 -5 -24 -30 -43 -55 -38
-50 -206 -264 -232 -295 -9 -11 -60 -74 -114 -140 -178 -218 -192 -232 -276
-279 -131 -73 -271 -119 -489 -161 l-72 -13 7 61 c3 34 8 73 11 87 9 44 34
194 40 235 3 22 8 51 11 65 2 14 7 37 9 53 13 76 26 150 30 174 3 16 8 44 11
63 2 19 7 46 10 60 2 14 6 36 9 50 34 202 30 190 143 416 60 121 121 239 136
262 46 73 139 152 179 152 10 0 30 -8 45 -17z m-278 -162 c-45 -64 -54 -73
-43 -43 13 34 73 115 81 108 2 -3 -15 -32 -38 -65z m3942 14 c3 -14 1 -25 -3
-25 -5 0 -9 11 -9 25 0 14 2 25 4 25 2 0 6 -11 8 -25z m6 -122 c2 -48 1 -86
-1 -83 -8 9 -17 170 -9 170 4 0 8 -39 10 -87z m951 -39 c49 -41 54 -56 29
-102 l-22 -40 -81 -4 c-81 -5 -142 -24 -585 -185 -160 -57 -175 -60 -131 -25
52 40 212 161 280 209 104 75 269 142 356 144 16 0 46 6 65 13 50 19 55 19 89
-10z m276 -255 c63 -313 74 -430 51 -544 -2 -11 -7 -42 -10 -70 -4 -27 -9 -61
-11 -75 -12 -83 -17 -121 -35 -245 -6 -44 -15 -102 -20 -130 -5 -27 -12 -68
-15 -90 -3 -22 -7 -51 -10 -65 -3 -14 -7 -38 -10 -55 -15 -98 -50 -236 -108
-425 -58 -189 -123 -427 -153 -562 l-29 -126 -35 -6 c-19 -3 -51 -14 -71 -25
l-36 -19 -36 49 c-47 62 -83 80 -173 86 -63 5 -77 2 -102 -16 -37 -26 -72 -30
-52 -6 7 9 13 29 12 45 0 16 4 32 9 35 20 13 7 64 -34 135 -24 41 -97 158
-162 260 -212 329 -276 483 -300 720 -3 30 -7 78 -10 105 -3 28 -7 91 -9 140
l-5 90 15 -55 c7 -30 26 -100 41 -155 15 -55 28 -102 28 -105 3 -21 61 -156
80 -184 l23 -34 -35 -50 c-26 -36 -34 -57 -30 -74 12 -46 233 -354 310 -430
48 -47 231 -172 293 -198 49 -21 130 -22 146 -2 10 11 8 18 -11 33 -21 17 -22
19 -4 19 46 0 61 28 187 365 159 422 228 665 251 885 3 30 8 69 10 85 9 65 21
385 25 658 1 65 4 117 6 114 2 -2 10 -37 19 -78z m-281 -554 c0 -399 -1 -414
-26 -545 -15 -74 -29 -153 -32 -175 -4 -23 -9 -52 -11 -65 -3 -14 -7 -42 -10
-62 -3 -20 -9 -56 -14 -80 -5 -24 -12 -59 -15 -78 -3 -19 -8 -45 -10 -56 -2
-12 -7 -39 -10 -60 -6 -37 -35 -198 -40 -219 -2 -5 -6 -27 -11 -48 -10 -51
-30 -57 -64 -19 -16 16 -41 37 -57 45 -67 35 -169 172 -303 407 -135 235 -199
396 -219 555 -12 91 -21 475 -12 501 3 8 190 107 415 219 l410 205 5 -58 c3
-31 5 -241 4 -467z m-2164 285 c41 -40 78 -95 120 -176 41 -77 48 -112 29
-131 -5 -5 -14 -32 -18 -59 l-8 -49 -26 55 c-15 30 -27 63 -27 73 0 58 -111
187 -197 230 -68 35 -145 50 -211 44 -92 -10 -146 -33 -211 -91 l-34 -31 25
45 c14 25 37 53 50 62 40 30 209 53 388 53 88 0 97 -2 120 -25z m-1662 -72
c-24 -35 -51 -69 -61 -77 -39 -29 -89 -85 -164 -183 -91 -121 -87 -115 -156
-198 -30 -36 -74 -81 -98 -101 -24 -20 -63 -53 -85 -73 -206 -180 -348 -275
-504 -336 -30 -12 -69 -30 -87 -41 -17 -11 -42 -22 -54 -24 -27 -5 -85 -50
-113 -88 -16 -22 -18 -31 -8 -52 l12 -25 -38 16 c-20 9 -63 21 -95 25 -33 5
-75 17 -94 26 l-35 16 6 61 c8 82 22 94 121 102 258 20 384 53 585 153 183 92
239 132 337 238 48 53 93 101 99 107 9 9 91 102 232 261 129 145 232 255 238
255 3 0 -15 -28 -38 -62z m1387 -177 c3 -11 26 -31 50 -46 58 -33 92 -79 99
-135 4 -25 15 -78 25 -118 11 -41 17 -86 15 -100 -6 -29 -40 -72 -59 -72 -13
0 -97 -86 -180 -185 -99 -116 -120 -131 -176 -123 -19 3 -28 21 -66 138 -36
109 -45 153 -49 225 -4 106 10 144 88 228 27 29 53 69 58 89 11 39 42 68 73
68 11 0 32 11 49 25 35 30 64 32 73 6z m-1052 -83 c19 -24 65 -78 101 -121
107 -126 115 -154 69 -241 -46 -86 -211 -322 -248 -355 -20 -17 -91 -68 -158
-113 -195 -130 -242 -183 -252 -280 -6 -52 -4 -58 21 -81 25 -23 29 -36 33
-92 0 -11 17 -37 36 -58 19 -21 42 -53 51 -70 9 -18 29 -43 45 -57 31 -27 45
-81 69 -265 7 -49 16 -114 20 -144 14 -98 10 -284 -6 -332 -9 -24 -17 -75 -19
-112 -1 -37 -4 -70 -6 -71 -2 -2 -38 -26 -79 -53 l-74 -50 -33 46 c-36 50 -56
62 -90 54 -28 -6 -40 20 -47 104 -3 32 -7 81 -10 108 -3 28 -8 77 -10 110 -3
33 -8 92 -11 130 -4 39 -8 84 -9 100 -1 17 -17 62 -35 100 -78 165 -101 217
-101 233 0 9 -13 31 -28 47 -28 30 -104 120 -177 209 -22 27 -102 123 -177
214 -76 91 -138 169 -138 173 0 9 24 17 71 23 56 7 141 46 314 142 145 81 243
166 632 552 106 105 198 192 202 192 5 0 24 -19 44 -42z m2391 3 c-6 -6 -24
19 -24 34 1 6 7 1 15 -9 8 -11 12 -22 9 -25z m-2176 -148 c25 -37 34 -61 37
-101 4 -46 -9 -30 -44 56 -30 74 -27 94 7 45z m1847 -145 c8 -18 51 -139 94
-268 47 -139 94 -262 116 -299 37 -63 172 -244 326 -439 l82 -103 -22 -39
c-11 -21 -21 -51 -21 -68 0 -27 -6 -33 -64 -60 -76 -35 -201 -114 -306 -191
-84 -63 -449 -417 -509 -495 -91 -118 -263 -450 -286 -554 -9 -40 -18 -72 -21
-72 -8 0 -40 73 -90 205 -48 129 -52 146 -50 215 2 70 6 79 47 142 24 36 59
92 78 123 54 91 177 251 290 378 57 65 116 134 130 155 28 40 60 72 71 72 17
0 49 129 44 175 -4 34 -67 169 -100 212 -13 17 -37 34 -54 38 -16 4 -30 10
-31 13 0 4 -3 21 -5 37 -19 116 -22 162 -19 257 2 60 6 111 8 115 14 24 26
255 15 293 -7 24 -1 30 90 83 53 31 111 68 127 81 39 33 42 32 60 -6z m-427
-38 c44 0 49 -5 29 -31 -19 -24 -47 -36 -104 -43 -57 -7 -57 -8 -53 54 3 48 5
50 47 34 21 -7 57 -13 81 -14z m-180 -217 c2 -20 5 -39 7 -43 9 -15 -11 -27
-32 -19 -22 8 -22 9 -6 54 10 25 20 45 23 45 3 0 7 -16 8 -37z m-2902 -280
c-10 -10 -19 5 -10 18 6 11 8 11 12 0 2 -7 1 -15 -2 -18z m64 -29 c0 -2 -9 -4
-21 -4 -11 0 -18 4 -14 10 5 8 35 3 35 -6z m1483 -14 c-9 -17 -28 -43 -41 -58
-23 -26 -23 -26 -11 -2 13 29 58 90 65 90 3 0 -3 -14 -13 -30z m380 -174 c29
-97 42 -207 30 -267 -3 -17 -16 -31 -36 -40 -18 -8 -41 -31 -54 -54 -28 -51
-102 -137 -112 -131 -9 6 -50 123 -85 246 l-25 84 38 37 c46 43 55 58 71 126
12 52 42 86 105 121 26 14 29 8 68 -122z m1132 -49 l44 -89 -22 -43 c-23 -45
-35 -40 -36 16 -1 14 -10 52 -21 85 -25 71 -37 157 -20 134 6 -8 31 -55 55
-103z m-3851 -19 c3 -106 -21 -178 -96 -290 -44 -66 -48 -82 -15 -73 57 18
227 87 232 96 18 28 28 2 40 -111 3 -25 7 -56 10 -70 3 -14 7 -41 9 -60 3 -19
7 -55 11 -80 l6 -45 -88 -93 c-98 -102 -108 -106 -197 -76 -37 13 -46 20 -40
33 4 9 12 31 18 49 6 18 19 35 28 38 10 3 22 13 28 23 5 10 22 21 37 24 58 13
61 25 20 61 -58 52 -73 52 -148 3 -38 -25 -42 -4 -13 63 33 77 31 94 -20 148
l-44 47 34 40 c18 22 34 45 34 50 0 6 15 42 33 80 19 39 44 99 56 135 35 99
62 103 65 8z m3605 -71 c70 -105 73 -111 60 -143 -12 -32 -88 -127 -184 -229
-36 -38 -79 -91 -97 -117 -17 -27 -33 -46 -36 -44 -5 6 -3 259 3 304 2 18 20
52 39 75 18 23 60 86 91 140 31 53 61 94 66 91 5 -3 31 -38 58 -77z m-522 27
c42 -2 78 -6 80 -8 2 -2 -6 -20 -17 -39 -14 -23 -34 -40 -55 -47 -43 -14 -82
-60 -91 -106 -5 -28 2 -60 35 -147 49 -133 51 -154 11 -98 -41 56 -68 68 -122
51 -68 -20 -92 -43 -192 -183 -103 -146 -165 -224 -273 -345 -96 -108 -103
-123 -109 -245 -7 -123 -8 -127 -34 -127 -32 0 -34 22 -6 112 22 71 25 99 23
193 -3 108 -4 113 -64 270 -34 88 -89 228 -122 310 l-60 150 24 24 c44 45 60
21 149 -230 57 -160 105 -246 141 -255 26 -6 25 -20 -7 -66 -11 -16 -16 -32
-13 -38 10 -17 53 -11 59 8 7 20 41 58 210 233 210 218 256 269 294 327 37 59
40 75 42 240 0 20 4 31 10 27 6 -4 45 -9 87 -11z m-2622 -92 c147 -73 239
-148 381 -310 220 -251 336 -536 424 -1042 11 -63 23 -142 26 -175 4 -36 12
-63 20 -68 8 -4 14 -11 14 -15 0 -15 -127 -81 -305 -160 -99 -44 -260 -119
-358 -166 -98 -47 -232 -109 -299 -138 -76 -32 -122 -58 -125 -69 -3 -11 -19
-19 -49 -24 -45 -6 -70 -24 -37 -26 163 -11 465 34 490 74 13 20 49 37 167 78
61 22 120 43 131 48 38 18 370 148 423 167 66 23 102 58 143 139 18 36 37 65
42 65 5 0 21 -8 35 -19 15 -10 47 -28 70 -40 39 -20 43 -25 37 -48 -3 -14 -15
-37 -26 -52 -11 -15 -21 -43 -23 -62 -3 -37 -7 -39 -51 -20 -16 6 -61 12 -101
12 -70 0 -76 -2 -255 -89 -101 -49 -254 -121 -339 -160 -154 -69 -215 -97
-361 -165 -133 -61 -224 -100 -234 -100 -12 0 -92 12 -120 17 -27 5 -102 -29
-113 -52 -5 -9 -10 -42 -11 -72 -2 -44 2 -62 19 -83 27 -35 76 -47 300 -73 19
-2 46 -6 60 -9 14 -3 45 -7 70 -10 25 -3 56 -7 69 -10 14 -2 59 -9 100 -15 42
-6 87 -12 101 -15 43 -7 111 -17 275 -40 22 -3 49 -7 60 -10 11 -2 43 -7 70
-10 28 -3 75 -10 105 -15 30 -6 75 -12 100 -15 25 -3 135 -19 245 -36 110 -16
223 -32 250 -35 28 -3 57 -7 65 -9 8 -2 44 -7 80 -10 l65 -5 -55 19 c-30 10
-80 26 -110 34 l-55 16 65 -4 c36 -3 79 -7 95 -10 117 -19 121 -21 107 -38
-34 -44 -49 -130 -51 -294 l-1 -62 -132 35 c-140 37 -614 167 -928 254 -102
29 -192 53 -200 55 -8 2 -82 22 -165 45 -82 23 -157 43 -167 45 -69 15 -270
80 -310 101 -62 31 -138 34 -199 6 -73 -32 -82 -49 -76 -134 4 -40 14 -107 22
-148 9 -41 18 -86 21 -100 3 -14 9 -41 14 -60 5 -19 12 -50 15 -69 3 -19 7
-37 9 -40 2 -3 7 -24 10 -46 4 -22 11 -66 17 -98 12 -66 5 -97 -20 -97 -9 0
-54 25 -100 55 -46 30 -89 56 -97 56 -8 1 -18 3 -24 4 -5 1 -32 3 -60 4 l-50
1 5 33 c16 116 25 188 30 232 3 28 10 84 15 125 5 41 12 100 15 130 3 30 8 71
10 90 6 49 13 125 20 195 3 33 7 85 10 115 14 162 17 203 20 285 2 100 -4 127
-42 167 -24 25 -25 31 -19 97 9 88 13 122 31 246 8 55 16 116 19 135 6 43 13
90 32 205 8 50 17 101 19 115 5 34 33 190 38 215 3 11 7 37 11 58 8 43 7 42
69 21 36 -12 47 -21 48 -37 0 -12 2 -134 4 -272 10 -704 29 -1142 51 -1164 2
-2 4 7 5 20 0 13 2 33 3 44 2 11 6 44 10 74 4 30 9 61 11 70 1 9 6 41 10 71 3
30 8 66 10 80 2 14 6 50 10 80 15 126 25 154 25 74 2 -118 17 -260 32 -288 17
-32 27 -4 33 99 13 227 20 320 31 420 7 65 43 363 49 410 2 11 6 43 9 70 4 28
8 64 10 80 3 17 7 53 11 80 3 28 8 64 10 80 31 249 29 271 -34 350 -32 39 -32
40 -26 120 4 44 9 83 11 86 2 3 6 31 8 61 3 31 7 66 10 79 3 13 8 47 11 74 9
73 24 137 37 152 13 16 31 11 123 -35z m3415 -201 l19 -39 -44 -46 c-82 -86
-143 -161 -204 -250 -34 -50 -61 -87 -61 -83 0 4 27 62 60 128 75 148 102 216
90 224 -5 3 -11 1 -15 -5 -9 -15 -25 -12 -25 4 0 8 11 17 24 20 13 3 45 24 72
45 27 22 52 40 56 41 4 0 17 -18 28 -39z m1950 -91 c-28 -105 -78 -268 -87
-283 -3 -4 -11 -3 -19 4 -20 17 -14 40 62 225 35 87 64 160 64 163 0 2 2 2 4
0 2 -2 -9 -51 -24 -109z m-4607 -33 c54 -74 165 -323 235 -527 56 -165 155
-519 148 -535 -5 -15 -65 -49 -72 -42 -5 4 -17 76 -29 167 -3 25 -10 70 -15
100 -5 30 -11 72 -14 92 -3 21 -11 59 -17 85 -6 27 -13 59 -15 73 -3 14 -21
77 -40 140 -42 136 -114 285 -207 428 -37 57 -67 105 -67 108 0 12 65 -50 93
-89z m-1958 -183 c-16 -14 -47 -41 -68 -59 -36 -33 -80 -49 -192 -71 -22 -4
-44 -8 -50 -9 -5 -2 -28 -6 -50 -9 -22 -4 -76 -16 -120 -28 -141 -37 -195 -72
-195 -125 0 -35 1 -35 -215 -47 -199 -12 -406 -25 -480 -32 -81 -6 -262 -24
-305 -29 -19 -2 -64 -7 -100 -11 -36 -3 -72 -8 -80 -9 -8 -2 -44 -6 -80 -10
-36 -3 -72 -8 -80 -10 -8 -2 -40 -7 -70 -10 -30 -3 -68 -7 -85 -9 -72 -10
-283 -38 -310 -41 -16 -2 -43 -6 -60 -9 -16 -3 -50 -8 -75 -11 -25 -4 -65 -11
-90 -17 -25 -5 -56 -12 -70 -14 -65 -12 -511 -268 -720 -412 -300 -207 -342
-230 -376 -201 -27 22 -34 52 -16 72 8 9 21 17 28 17 24 0 28 56 8 121 -7 25
19 42 221 139 353 172 483 223 665 265 8 1 58 14 110 28 52 14 122 31 155 36
33 6 73 13 89 15 16 3 50 8 75 12 25 3 57 8 71 10 14 2 61 8 105 14 44 6 91
13 105 15 14 2 54 6 90 10 36 4 76 8 90 10 14 2 54 6 90 10 36 3 85 7 110 10
25 3 65 7 90 9 25 3 90 8 145 11 55 3 129 8 165 10 36 3 110 7 165 10 163 10
127 1 525 127 121 38 407 127 575 179 72 23 148 47 170 54 61 21 74 18 40 -11z
m364 -201 c9 -18 17 -71 26 -178 4 -55 7 -131 20 -505 5 -139 12 -296 21 -456
l5 -91 -43 -12 c-24 -7 -58 -24 -76 -37 l-32 -25 4 -373 c2 -205 6 -377 8
-382 3 -5 9 -40 12 -79 4 -38 9 -83 11 -100 2 -16 6 -56 10 -87 4 -32 8 -70
10 -85 6 -45 18 -166 19 -193 1 -22 -24 -37 -294 -172 -881 -439 -1173 -573
-1310 -598 -36 -7 -99 -27 -140 -46 -72 -32 -196 -69 -270 -80 -19 -3 -42 -7
-50 -9 -8 -3 -42 -7 -75 -10 -150 -14 -197 -22 -285 -50 -41 -12 -172 -44
-290 -70 -118 -26 -235 -53 -258 -61 -24 -8 -60 -17 -80 -20 -21 -3 -64 -12
-97 -21 -115 -28 -142 -28 -180 1 -36 28 -38 51 -3 62 29 9 87 63 104 97 27
52 23 126 -11 193 -37 71 -94 117 -173 140 -63 18 -74 29 -66 59 24 84 289
505 442 703 101 131 299 333 538 550 250 228 535 507 650 637 163 186 175 224
175 522 0 182 -1 192 -32 262 -11 24 -19 45 -17 47 4 3 41 10 108 19 25 3 56
8 70 10 14 2 48 7 75 10 271 34 288 38 705 181 319 110 458 159 625 219 144
51 132 49 144 28z m3580 -38 c1 -17 -1 -17 -9 -5 -5 8 -9 26 -9 40 0 23 1 23
9 5 5 -11 9 -29 9 -40z m1511 46 c0 -4 -24 -24 -52 -44 -99 -67 -383 -346
-528 -517 -30 -36 -58 -67 -61 -70 -22 -17 -181 -427 -205 -525 -4 -16 -10
-34 -14 -40 -4 -5 -13 -31 -20 -57 l-12 -46 -123 -41 c-67 -23 -129 -41 -137
-41 -11 0 -15 15 -17 56 -2 63 -12 94 -35 113 -9 7 -16 21 -16 31 0 9 -11 45
-25 79 -14 34 -28 82 -31 107 -3 24 -20 72 -38 106 -37 70 -66 86 -170 92 -74
4 -111 -12 -129 -57 -8 -17 -27 -47 -42 -65 l-28 -34 -163 4 c-149 4 -166 6
-193 26 -16 11 -40 24 -54 27 -28 7 -126 91 -156 134 -21 30 -34 78 -23 85 12
7 47 -26 79 -74 52 -76 64 -83 157 -88 113 -6 226 19 189 41 -5 3 -34 8 -65
11 -32 4 -80 14 -107 22 -62 18 -80 39 -24 27 21 -4 91 -8 155 -8 110 0 117
-1 120 -20 3 -18 11 -20 71 -21 62 -2 69 0 91 27 13 15 27 46 31 69 4 22 18
70 32 107 56 152 71 276 50 423 l-8 55 42 -42 c45 -46 60 -51 79 -27 17 19 67
15 61 -6 -2 -8 -8 -35 -12 -59 -5 -24 -13 -49 -18 -55 -22 -27 -31 -249 -12
-314 12 -40 80 -165 138 -254 34 -52 54 -72 86 -86 46 -20 107 -83 107 -109 0
-15 2 -15 14 -3 15 15 21 26 96 165 65 121 127 214 170 254 20 20 64 61 96 92
88 83 326 295 416 371 29 24 68 57 87 74 36 31 144 114 149 114 1 0 2 -4 2 -9z
m386 -152 c-29 -34 -66 -101 -66 -120 0 -6 -9 -24 -21 -40 -12 -17 -24 -41
-28 -55 -5 -19 -18 -30 -46 -40 -50 -17 -95 -64 -181 -190 -99 -144 -167 -225
-295 -349 -82 -79 -133 -119 -179 -142 -59 -29 -299 -133 -308 -133 -9 0 144
281 190 348 29 42 122 147 206 232 232 235 387 356 548 424 46 20 110 52 141
71 31 19 59 32 61 30 3 -2 -8 -18 -22 -36z m-2201 8 c4 -13 15 -59 25 -103 9
-43 27 -105 39 -136 24 -67 27 -137 7 -176 -18 -35 -161 -172 -180 -172 -31 0
-99 87 -150 195 -46 95 -62 156 -35 140 12 -8 74 50 141 134 117 145 142 164
153 118z m2479 -132 c-4 -8 -10 -15 -15 -15 -4 0 -6 7 -3 15 4 8 10 15 15 15
4 0 6 -7 3 -15z m108 -131 c1 -37 -5 -58 -25 -87 -14 -21 -29 -58 -33 -83 -4
-28 -11 -44 -20 -44 -8 0 -14 4 -14 10 0 5 -31 43 -69 82 l-69 73 43 27 c24
14 46 24 48 21 3 -3 3 -21 0 -41 l-5 -37 68 67 c37 37 70 66 72 64 2 -2 4 -26
4 -52z m-3844 -54 c0 -24 0 -24 -13 5 -8 17 -14 46 -14 65 l1 35 13 -40 c8
-22 13 -51 13 -65z m-4158 79 c-13 -5 -121 -35 -240 -65 -320 -82 -431 -117
-659 -205 -322 -125 -481 -182 -488 -176 -21 22 115 136 232 195 137 68 413
148 650 188 17 2 55 9 85 14 69 12 102 17 165 26 28 3 59 8 70 10 11 2 45 7
75 10 30 3 56 7 57 8 1 1 19 3 40 4 35 1 36 0 13 -9z m4670 -129 c0 -5 -19
-31 -43 -57 -63 -71 -217 -224 -217 -215 1 7 152 204 196 255 23 26 64 37 64
17z m-4899 -142 c1 -91 2 -104 19 -153 28 -85 101 -144 178 -145 17 0 32 -3
32 -6 0 -5 -33 -47 -106 -134 -27 -32 -261 -304 -292 -339 -13 -14 -62 -68
-110 -120 -48 -52 -104 -112 -125 -135 -108 -116 -385 -389 -413 -407 -18 -11
-36 -29 -39 -39 -4 -11 -10 -20 -15 -20 -5 0 -25 -26 -44 -57 -38 -60 -43 -61
-26 -3 6 19 13 46 15 60 3 14 23 97 45 185 23 88 43 171 46 185 3 14 12 50 20
81 14 50 14 61 1 105 -35 114 -217 497 -270 566 -52 68 -61 87 -47 103 27 33
590 226 835 287 60 15 78 19 105 24 14 3 52 11 85 18 109 24 105 27 106 -56z
m8133 -89 c-8 -41 -17 -83 -20 -94 -12 -56 -41 -139 -50 -142 -5 -2 -20 6 -33
18 -19 18 -21 27 -15 63 6 39 6 40 -12 25 -33 -28 -75 -29 -147 -4 -37 13 -77
21 -90 17 -31 -7 -110 -59 -187 -122 -60 -48 -289 -231 -317 -253 -7 -5 -13
-6 -13 -3 0 4 44 52 98 107 203 209 322 341 322 357 0 19 70 71 110 82 70 19
95 19 141 -2 50 -22 99 -79 99 -115 0 -32 26 -27 45 7 35 66 79 139 82 136 2
-2 -4 -36 -13 -77z m-3136 -226 c15 -10 58 -47 95 -83 115 -110 184 -135 372
-134 120 0 137 2 228 33 57 19 117 47 143 67 24 19 47 34 50 34 13 0 37 -34
60 -87 14 -32 33 -71 42 -88 28 -53 117 -165 130 -165 6 0 12 -4 12 -9 0 -31
-20 -43 -114 -72 -179 -55 -344 -129 -516 -232 -75 -46 -92 -52 -145 -53 -119
-3 -192 42 -386 236 -137 137 -237 258 -263 320 l-14 34 57 56 c31 30 69 71
83 91 46 63 115 84 166 52z m2764 -191 c-41 -49 -250 -249 -332 -318 -68 -57
-198 -139 -286 -181 -77 -37 -82 -38 -196 -39 -132 -2 -141 -5 -170 -70 -20
-46 -27 -50 -218 -131 -113 -48 -376 -176 -450 -219 -25 -14 -76 -45 -115 -68
-38 -23 -97 -54 -130 -70 -71 -33 -100 -58 -126 -108 -16 -31 -25 -38 -49 -38
-37 0 -53 28 -44 78 24 130 160 259 399 378 99 50 193 85 540 204 220 76 391
143 453 177 63 35 423 256 542 332 124 79 213 131 218 126 3 -2 -14 -26 -36
-53z m-1081 -65 c-6 -15 -15 -27 -21 -27 -6 0 -10 3 -8 8 22 46 33 62 36 54 1
-5 -2 -21 -7 -35z m1175 1 c-26 -162 -120 -704 -131 -758 -3 -14 -7 -41 -10
-60 -3 -19 -6 -44 -9 -55 -2 -11 -7 -40 -12 -65 -4 -25 -8 -47 -9 -50 0 -3 -4
-26 -8 -51 -4 -25 -10 -57 -12 -70 -9 -50 -36 -215 -40 -239 -2 -14 -6 -38 -9
-55 -6 -35 -32 -201 -41 -260 -3 -22 -12 -83 -20 -135 -8 -52 -16 -111 -19
-130 -3 -19 -10 -66 -15 -105 -5 -38 -13 -97 -16 -130 -4 -33 -10 -89 -15
-125 -4 -36 -8 -110 -9 -165 -1 -55 -4 -101 -6 -103 -4 -5 -103 43 -127 62
-25 18 -26 32 -53 486 -7 113 -11 149 -17 155 -2 2 -19 -53 -37 -123 -86 -327
-142 -527 -149 -533 -9 -9 -117 19 -512 133 -173 50 -325 93 -338 95 -12 3
-24 9 -27 13 -5 8 102 139 263 324 121 138 153 159 252 160 67 1 185 -6 335
-19 119 -11 185 -14 185 -9 0 5 -202 102 -372 179 -48 22 -88 42 -88 45 0 3
18 23 39 44 38 38 41 38 81 28 22 -5 81 -9 130 -8 75 1 93 5 112 22 13 12 36
24 51 28 16 4 31 16 37 30 5 13 14 26 21 28 18 6 19 102 2 135 -32 62 -103
117 -196 152 -27 10 -27 12 -14 43 8 18 29 63 48 100 26 52 36 65 46 56 7 -6
13 -13 13 -17 0 -8 120 -228 144 -263 41 -61 145 -91 214 -62 40 17 58 55 66
149 4 39 11 97 16 130 5 33 12 87 16 120 3 33 7 67 9 75 1 8 6 40 10 70 4 30
9 62 10 70 1 8 6 40 10 70 4 30 9 62 10 70 1 8 6 40 11 70 4 30 8 57 9 60 1 3
5 34 10 70 5 36 9 67 10 70 1 3 5 32 10 65 5 44 16 71 39 100 36 47 97 115
103 115 2 0 2 -15 -1 -32z m-3422 -65 c10 -24 -2 -29 -19 -7 -8 10 -15 22 -15
26 0 13 28 -3 34 -19z m2686 -45 c-36 -31 -183 -98 -355 -163 -82 -31 -215
-82 -295 -112 -80 -30 -188 -69 -240 -87 -52 -18 -109 -40 -127 -49 -26 -14
-176 -128 -193 -147 -7 -8 -159 -118 -209 -152 -50 -34 -83 -98 -106 -204 -20
-92 -15 -148 15 -167 28 -17 25 -36 -15 -82 l-35 -40 -166 -2 c-185 -3 -258
12 -301 62 -27 31 -31 97 -9 150 8 19 13 35 11 35 -9 0 45 117 69 146 55 69
317 224 546 322 63 28 156 68 205 90 50 22 151 58 225 81 245 76 552 180 770
261 118 43 220 79 225 79 6 0 -1 -9 -15 -21z m-2520 -175 c41 -39 117 -112
168 -161 92 -88 97 -91 233 -147 76 -31 139 -61 139 -66 0 -5 -29 -39 -64 -75
l-65 -66 -24 23 c-13 13 -39 37 -58 53 -244 211 -296 265 -368 392 -33 57 -63
113 -67 126 -6 21 -6 22 12 8 10 -8 53 -47 94 -87z m2984 -5 c-4 -13 -19 -50
-35 -83 -26 -56 -66 -161 -75 -195 -2 -8 -13 -46 -25 -85 -19 -66 -37 -131
-60 -217 -5 -21 -16 -38 -23 -38 -15 0 -145 89 -165 113 -7 9 -15 40 -18 68
-2 29 -11 71 -19 93 -30 79 -30 79 23 98 54 19 223 128 328 212 39 30 71 56
73 56 2 0 0 -10 -4 -22z m-3327 -10 c11 -13 69 -92 128 -176 65 -93 117 -157
132 -163 20 -7 170 -89 343 -186 19 -11 35 -26 35 -34 0 -24 -73 -11 -304 52
-119 33 -223 62 -231 64 -8 2 -109 30 -225 63 -115 32 -297 83 -402 113 -106
30 -193 56 -193 59 0 7 658 228 681 229 8 1 25 -9 36 -21z m-5330 -114 c12
-47 16 -121 16 -362 l1 -302 -24 -45 c-14 -25 -32 -45 -40 -45 -9 0 -24 16
-35 36 -11 20 -30 43 -43 52 -31 20 -26 43 40 215 l51 132 1 197 c0 108 5 193
9 189 5 -5 15 -35 24 -67z m4476 22 c-34 -18 -83 -49 -110 -68 -28 -20 -60
-34 -74 -34 -32 2 -119 29 -119 37 0 11 295 97 340 98 19 0 9 -8 -37 -33z
m-3873 -343 c-84 -87 -100 -104 -170 -183 -36 -40 -74 -82 -85 -94 -11 -12
-42 -48 -70 -81 -61 -73 -72 -85 -79 -85 -3 0 -15 19 -26 42 l-20 42 52 54
c79 80 426 362 447 362 3 0 -19 -26 -49 -57z m7069 -105 c-18 -34 -13 -71 15
-113 33 -48 28 -91 -20 -188 -53 -109 -50 -107 -147 -74 -116 40 -310 117
-320 126 -7 7 5 17 94 70 14 9 86 49 160 90 74 41 148 82 164 92 17 9 38 18
48 18 15 1 16 -2 6 -21z m-7600 -175 c0 -16 -4 -37 -8 -47 -12 -30 -22 -3 -12
32 5 17 7 33 3 36 -3 3 0 6 6 6 7 0 12 -12 11 -27z m4136 -27 c50 -8 110 -18
135 -21 25 -3 86 -13 135 -21 50 -8 108 -17 130 -20 22 -3 78 -12 125 -19 47
-8 119 -19 160 -25 41 -7 100 -15 130 -20 61 -9 311 -49 350 -55 14 -2 45 -7
70 -10 59 -8 99 -14 130 -20 40 -7 85 -15 126 -20 22 -3 50 -7 64 -10 14 -3
43 -7 65 -10 22 -3 49 -7 60 -8 14 -2 31 -25 53 -73 40 -82 85 -127 168 -166
55 -26 72 -29 178 -30 l117 -2 -6 -76 c-3 -41 -7 -100 -10 -130 -3 -30 -7 -82
-10 -115 -2 -33 -7 -94 -11 -135 -4 -41 -6 -83 -6 -92 1 -21 -1 -21 -248 43
-107 28 -202 52 -210 54 -8 2 -78 19 -155 40 -77 20 -147 38 -156 40 -10 2
-79 20 -155 40 -180 47 -279 73 -499 130 -99 26 -187 49 -195 51 -8 2 -49 12
-90 23 -41 10 -129 33 -195 51 -66 18 -178 48 -250 67 -145 37 -187 50 -227
65 -28 11 -28 8 -8 113 6 28 12 59 14 70 2 11 12 49 21 85 9 36 19 74 21 85 2
11 11 48 20 83 16 59 19 63 43 58 14 -3 67 -12 116 -20z m3760 -138 c-13 -32
-20 -38 -59 -43 -75 -12 -101 -40 -413 -452 -60 -78 -116 -152 -125 -165 -69
-93 -212 -275 -244 -311 -22 -24 -53 -47 -69 -51 -34 -9 -95 -70 -95 -96 0
-10 -22 -43 -50 -73 -41 -45 -50 -61 -50 -91 0 -36 -29 -103 -70 -161 l-21
-30 6 35 c10 51 90 325 139 471 l41 126 265 228 c445 381 476 413 463 477 -4
21 1 34 24 55 77 74 152 118 216 126 21 3 41 8 45 12 14 14 12 -22 -3 -57z
m-561 -152 c-20 -35 -140 -186 -149 -186 -5 0 -58 21 -118 46 -109 48 -167 93
-167 133 0 17 14 18 220 19 163 0 218 -3 214 -12z m-3512 -149 c-8 -31 -19 0
-13 36 4 31 5 31 11 7 3 -14 4 -33 2 -43z m2862 -92 c53 -95 53 -91 12 -336
-54 -324 -67 -389 -76 -389 -5 0 -21 14 -37 31 -15 17 -43 37 -61 45 -18 8
-31 18 -29 22 3 4 8 38 12 77 4 38 8 72 10 75 2 3 6 32 9 65 3 33 8 71 10 85
3 14 7 48 11 75 3 28 8 64 10 80 3 17 7 48 10 70 3 22 10 64 16 93 10 50 12
52 44 52 29 0 36 -6 59 -45z m428 -53 c-15 -21 -29 -39 -32 -42 -3 -3 -43 -53
-89 -113 -46 -59 -86 -105 -88 -103 -3 2 2 39 11 81 9 43 16 104 16 136 0 32
3 59 8 60 4 1 18 2 32 4 88 10 135 17 138 20 2 2 10 1 18 -2 10 -4 7 -14 -14
-41z m-3350 -171 c129 -52 177 -65 508 -141 124 -28 252 -57 285 -65 33 -8 76
-17 95 -20 19 -3 51 -10 70 -15 56 -15 759 -164 863 -184 184 -34 257 -46 337
-56 52 -6 112 -13 133 -15 20 -2 65 -7 100 -11 34 -3 66 -9 70 -13 11 -11
-141 -488 -165 -518 -6 -7 -13 -11 -17 -8 -4 2 -21 6 -37 10 -99 18 -114 22
-159 33 -22 6 -51 13 -65 16 -26 4 -494 123 -675 171 -197 52 -256 69 -717
210 -191 58 -407 124 -480 146 -388 118 -585 176 -787 234 -123 36 -226 66
-228 69 -7 6 74 59 142 94 136 68 241 87 497 91 154 2 159 1 230 -28z m-4056
-88 c-20 -66 -29 -230 -16 -288 5 -22 11 -54 13 -72 3 -18 10 -47 15 -65 6
-18 13 -46 16 -61 9 -39 22 -26 31 29 13 89 16 93 74 81 28 -5 51 -12 51 -16
0 -3 -18 -26 -40 -50 -21 -24 -41 -55 -45 -68 -12 -48 69 -164 123 -178 21 -5
11 -13 -77 -56 -55 -27 -101 -54 -101 -59 0 -19 -27 -10 -55 20 -15 16 -43 36
-62 46 l-35 16 5 176 c5 189 6 192 44 352 14 58 26 110 27 115 19 86 23 95 32
95 3 0 3 -8 0 -17z m5209 -28 c17 -3 53 -8 80 -11 28 -4 53 -8 56 -10 4 -2 24
-6 45 -9 38 -6 233 -40 284 -49 14 -3 68 -12 120 -21 52 -9 106 -18 120 -21
14 -2 40 -7 59 -10 18 -3 43 -8 55 -10 37 -7 140 -26 166 -30 14 -2 34 -6 46
-9 12 -3 39 -7 60 -10 21 -3 68 -12 104 -20 36 -8 88 -17 115 -21 28 -3 53
-11 57 -17 6 -10 -11 -67 -32 -107 -8 -16 -17 -19 -38 -14 -30 8 -727 198
-1097 300 -132 37 -244 71 -250 76 -6 6 -5 7 5 4 8 -3 29 -8 45 -11z m-2232
-214 c18 -5 62 -14 98 -20 36 -6 124 -27 195 -46 115 -32 496 -132 534 -140 8
-2 159 -40 335 -84 571 -144 1171 -284 1315 -306 25 -4 54 -9 65 -12 11 -2 36
-6 55 -9 19 -2 60 -9 90 -14 59 -10 95 -15 175 -26 28 -3 52 -7 55 -9 3 -2 34
-6 70 -10 36 -4 67 -8 70 -10 3 -2 30 -6 60 -10 30 -3 93 -13 140 -21 47 -7
89 -14 93 -14 15 0 -4 -80 -68 -285 -75 -239 -86 -283 -99 -410 -3 -27 -10
-95 -16 -150 -6 -55 -13 -115 -15 -133 -1 -18 -5 -35 -6 -36 -17 -12 -201 -86
-215 -86 -11 0 -49 9 -87 19 -37 11 -67 17 -67 15 0 -3 -8 0 -17 5 -10 5 -31
11 -48 15 -16 3 -113 26 -215 51 -102 26 -196 49 -210 51 -14 3 -53 12 -88 20
-35 7 -76 14 -91 14 -15 0 -43 9 -64 19 -33 17 -64 27 -107 36 -8 2 -33 8 -55
13 -42 12 -79 20 -130 28 -16 3 -46 9 -65 14 -19 5 -51 12 -70 15 -19 3 -80
15 -135 26 -107 22 -130 26 -172 34 -16 3 -55 10 -88 16 -33 6 -71 13 -85 15
-14 3 -41 9 -60 14 -19 5 -53 11 -75 14 -22 3 -60 10 -85 16 -36 7 -291 56
-440 84 -14 3 -117 23 -230 46 -412 83 -393 77 -1110 307 -401 128 -470 149
-655 208 -99 31 -205 65 -235 75 -52 17 -321 102 -366 114 -22 7 -44 56 -44
103 0 51 27 58 239 57 168 -1 190 -3 227 -22 23 -12 52 -23 65 -26 37 -8 162
-43 304 -87 210 -65 943 -296 1270 -399 66 -21 194 -62 285 -90 91 -28 176
-56 190 -60 37 -13 272 -85 370 -114 114 -34 337 -89 490 -121 328 -69 557
-117 580 -121 14 -2 36 -7 50 -10 14 -3 36 -8 50 -10 25 -4 90 -16 100 -19 11
-3 98 -16 135 -20 22 -3 51 -7 65 -10 14 -2 52 -7 85 -10 33 -3 76 -7 95 -9
19 -2 64 -7 100 -11 36 -3 81 -8 100 -10 19 -2 69 -7 110 -11 41 -3 86 -7 100
-9 14 -2 59 -6 100 -10 41 -3 83 -9 93 -11 9 -3 17 -1 17 4 0 5 -15 13 -32 16
-64 13 -293 57 -313 60 -11 2 -45 8 -75 14 -30 6 -66 13 -80 16 -237 39 -781
174 -1335 331 -717 204 -888 258 -1220 387 -321 124 -367 142 -475 181 -52 20
-176 65 -275 102 -365 134 -476 178 -468 186 4 4 36 15 69 22 57 14 65 13 102
-3 45 -21 92 -28 232 -35 151 -9 286 -44 609 -159 733 -262 1454 -499 1611
-531 47 -9 92 -18 100 -20 31 -6 196 -37 220 -41 14 -3 59 -11 100 -18 41 -8
91 -17 110 -21 123 -22 198 -35 216 -39 12 -2 39 -7 60 -10 22 -4 86 -15 144
-26 58 -11 121 -22 140 -25 19 -3 60 -10 90 -15 62 -11 383 -57 445 -65 22 -2
60 -7 85 -10 75 -9 26 10 -130 50 -80 20 -152 39 -160 41 -8 2 -114 28 -235
59 -121 31 -231 58 -245 61 -14 3 -43 10 -65 16 -22 6 -44 12 -50 14 -5 1
-102 25 -215 53 -113 29 -214 54 -225 56 -195 41 -349 92 -865 285 -1005 377
-1331 493 -1411 506 -21 4 -36 11 -33 16 6 9 79 45 169 83 22 9 63 21 90 25
28 5 68 13 90 18 48 10 124 7 168 -7z m4807 -351 c64 -9 87 -12 200 -25 30 -4
70 -8 87 -11 18 -2 57 -6 85 -9 94 -10 193 -27 211 -37 18 -9 22 -35 8 -56 -7
-11 -15 -11 -47 3 -24 10 -51 14 -71 10 -24 -4 -40 0 -60 14 -18 12 -52 22
-93 25 -74 7 -77 7 -185 34 -44 11 -120 28 -170 37 -161 32 -142 40 35 15z
m-385 -115 c43 -4 82 -8 85 -10 3 -1 43 -6 90 -10 47 -3 99 -8 115 -10 103
-12 143 -17 170 -20 17 -3 53 -7 80 -10 119 -13 220 -26 224 -31 12 -12 -118
-233 -178 -302 -19 -22 -21 -22 -50 -7 -35 18 -72 23 -226 29 -60 3 -135 10
-165 15 -30 6 -71 13 -90 16 -19 4 -87 21 -150 39 -112 33 -177 47 -212 47
-10 0 -18 5 -18 10 0 18 121 213 147 237 19 18 33 22 61 18 21 -3 73 -8 117
-11z m-6377 -181 c334 -154 465 -209 637 -265 159 -53 437 -143 665 -217 573
-186 1148 -374 1165 -382 94 -39 666 -171 1200 -276 11 -2 43 -8 71 -14 28 -6
61 -13 75 -15 13 -2 65 -11 114 -19 55 -10 94 -22 101 -31 16 -22 60 -25 379
-29 334 -5 315 -4 315 -15 0 -13 -188 -56 -510 -116 -19 -4 -150 -9 -290 -11
l-255 -5 -31 29 c-59 57 -83 65 -474 151 -151 33 -349 76 -440 97 -91 20 -183
40 -205 44 -239 48 -1132 254 -1210 279 -141 46 -440 139 -865 271 -250 78
-513 159 -585 181 -202 63 -489 159 -503 168 -7 4 -16 23 -18 42 -8 48 -27 74
-66 88 -18 7 -41 17 -50 22 -10 5 -25 9 -33 9 -35 0 -2 28 35 29 3 0 28 7 55
15 115 33 235 37 317 8 69 -24 114 -19 163 17 22 16 44 30 48 30 4 1 92 -38
195 -85z m7636 -60 c14 -5 13 -10 -5 -35 -11 -17 -24 -57 -29 -92 -8 -61 -10
-63 -87 -135 -106 -99 -124 -108 -77 -35 93 144 164 267 164 284 0 20 8 23 34
13z m-1908 -22 c-3 -5 -8 -23 -11 -40 -3 -17 -17 -78 -31 -137 -30 -127 -32
-161 -11 -182 14 -14 14 -18 0 -40 -9 -13 -23 -38 -32 -56 -11 -22 -28 -35
-59 -45 -73 -24 -95 -107 -47 -172 38 -51 33 -75 -17 -92 -24 -8 -51 -18 -60
-22 -14 -7 -16 -2 -12 28 7 58 59 213 166 491 104 270 106 275 114 275 3 0 3
-4 0 -8z m-6592 -144 c-3 -5 -11 -5 -17 -2 -8 5 -9 4 -2 -4 6 -5 127 -63 270
-127 340 -153 508 -233 520 -249 6 -8 123 -61 260 -119 138 -59 437 -186 665
-283 441 -188 449 -190 900 -294 47 -11 198 -47 335 -80 138 -33 288 -69 335
-80 47 -11 209 -49 360 -85 517 -124 603 -141 638 -129 16 6 36 27 50 52 13
23 31 42 40 42 30 0 748 -200 772 -215 14 -9 12 -47 -4 -68 -13 -16 -26 -17
-147 -12 -74 4 -154 8 -178 10 -24 2 -114 7 -200 11 -86 3 -173 7 -193 8 -87
5 -47 -21 122 -78 25 -8 68 -24 95 -36 l50 -20 -70 5 c-240 19 -308 31 -325
55 -51 72 -56 75 -113 74 -38 -1 -67 -8 -93 -23 -49 -29 -42 -30 -376 45 -112
25 -248 56 -303 69 -55 13 -111 26 -125 29 -74 14 -421 99 -455 111 -40 13
-280 98 -445 157 -115 41 -213 75 -420 148 -188 66 -190 67 -620 220 -157 56
-339 122 -405 145 -384 137 -525 195 -525 217 0 8 -12 28 -27 46 -29 34 -85
51 -218 66 -44 6 -153 20 -225 31 -14 2 -47 7 -75 10 -27 3 -72 10 -100 15
-27 5 -66 11 -86 14 -54 8 -66 15 -79 45 -13 33 -14 52 -7 106 5 29 1 52 -15
83 -26 55 -20 99 22 152 45 57 66 60 108 14 33 -36 37 -38 112 -42 76 -4 77
-4 77 19 1 79 -2 78 63 14 32 -32 57 -62 54 -67z m406 -90 c25 -14 80 -44 123
-67 71 -39 95 -56 65 -46 -203 65 -484 159 -488 162 -2 2 13 19 35 38 l40 33
90 -47 c50 -27 110 -59 135 -73z m5837 -189 c-36 -123 -74 -265 -84 -315 -25
-114 -26 -256 -4 -433 20 -151 19 -180 -5 -198 -10 -7 -18 -12 -20 -10 -1 1
-4 27 -8 57 -3 30 -10 69 -15 86 -5 19 -5 37 1 47 5 10 9 40 10 68 0 42 -5 57
-30 88 l-31 38 20 74 c11 41 22 82 24 93 11 49 70 246 116 391 16 50 28 93 26
96 -1 3 3 12 9 20 6 8 19 43 29 78 11 35 21 59 23 53 1 -5 -26 -111 -61 -233z
m388 204 c-21 -39 -44 -67 -50 -62 -5 5 53 89 61 89 3 0 -2 -12 -11 -27z m225
-7 c41 -4 111 -11 155 -16 76 -8 461 -6 535 4 79 10 185 11 186 1 1 -5 -37
-38 -85 -72 -47 -34 -91 -66 -96 -70 -6 -4 -37 -26 -70 -49 -33 -23 -96 -67
-140 -98 -44 -31 -99 -68 -122 -82 l-42 -25 -198 36 c-109 21 -207 39 -218 41
-132 24 -150 31 -149 50 0 24 153 296 163 290 3 -3 40 -7 81 -10z m1080 -176
c-25 -46 -209 -218 -283 -265 -30 -18 -31 -18 -17 0 17 21 301 285 307 285 2
0 -1 -9 -7 -20z m216 -92 c-20 -98 -58 -158 -105 -165 -16 -2 -32 -24 -25 -35
3 -4 -6 -10 -20 -14 -15 -3 -27 -15 -30 -30 -8 -32 -172 -195 -295 -293 -109
-87 -189 -138 -283 -180 -109 -50 -686 -251 -718 -251 -6 0 -21 24 -34 53 -13
28 -36 63 -51 77 -52 48 -87 151 -61 184 18 24 74 33 216 35 231 4 270 12 291
62 6 16 19 34 28 39 26 13 149 40 209 46 29 2 70 11 90 20 30 12 224 71 292
88 101 26 269 146 420 300 41 42 75 76 76 76 1 0 1 -6 0 -12z m-8494 -122 c40
-18 96 -44 123 -56 88 -40 269 -131 282 -142 28 -23 10 -27 -39 -7 -76 30
-473 230 -488 247 -12 12 54 -10 122 -42z m7829 -13 c-17 -32 -84 -93 -109
-100 -13 -3 -29 0 -35 6 -14 14 9 35 93 80 65 36 63 36 51 14z m-376 -52 c-19
-18 -469 -231 -489 -231 -2 0 -7 11 -10 25 -7 28 -81 105 -101 105 -23 0 -37
36 -20 50 21 18 143 32 390 46 61 3 111 7 112 8 1 1 30 3 65 4 40 2 59 -1 53
-7z m81 -148 c-10 -10 -19 5 -10 18 6 11 8 11 12 0 2 -7 1 -15 -2 -18z m-7198
-57 c40 -8 75 -16 77 -18 3 -2 6 -15 7 -28 3 -20 -3 -25 -44 -35 -140 -37
-266 -188 -287 -345 -8 -62 -7 -670 2 -740 2 -20 7 -76 11 -125 4 -50 9 -106
11 -125 15 -132 29 -948 15 -934 -4 5 -10 50 -14 99 -3 50 -8 101 -10 115 -3
14 -7 61 -11 105 -3 44 -7 96 -10 115 -2 19 -6 69 -10 110 -3 41 -7 89 -10
106 -2 16 -6 66 -9 110 -4 43 -8 95 -11 114 -2 19 -7 73 -10 120 -3 47 -8 96
-10 110 -2 14 -7 66 -10 115 -4 50 -8 104 -10 120 -2 17 -7 66 -10 109 -4 43
-8 87 -10 96 -2 10 -6 33 -9 51 -13 74 -18 98 -47 208 -17 63 -33 121 -35 130
-2 9 -8 36 -15 61 -13 53 -13 52 -33 155 -19 89 -25 178 -13 184 6 3 103 -5
167 -14 14 -2 50 -7 80 -10 30 -4 64 -9 75 -12 40 -8 185 -10 185 -1 0 4 -3 8
-7 8 -9 1 -81 59 -73 60 3 0 38 -6 78 -14z m7077 1 c-26 -18 -75 -30 -75 -19
0 12 36 27 69 30 25 2 25 2 6 -11z m-390 -104 c-25 -8 -42 -10 -48 -4 -6 6 1
12 19 16 16 4 34 8 39 10 6 1 14 0 19 -3 5 -3 -8 -11 -29 -19z m-6535 3 c26
-32 8 -57 -58 -81 -110 -40 -132 -61 -166 -157 -10 -25 -31 -66 -48 -89 -26
-36 -32 -40 -40 -25 -14 26 0 70 39 121 19 26 43 70 53 98 14 39 27 57 52 70
18 11 42 27 53 37 47 41 93 51 115 26z m6126 -184 c-12 -11 -15 5 -8 48 l7 45
3 -44 c2 -23 1 -46 -2 -49z m2164 3 c11 -13 10 -18 -6 -30 -16 -11 -20 -11
-27 0 -8 15 1 45 13 45 4 0 13 -7 20 -15z m19 -325 c16 -96 32 -191 35 -210 3
-19 17 -102 30 -185 14 -82 28 -168 31 -190 3 -22 10 -62 15 -90 6 -27 12 -63
14 -80 4 -28 32 -212 41 -265 2 -14 11 -65 19 -115 8 -49 17 -106 20 -125 3
-19 13 -80 22 -135 9 -55 17 -109 19 -120 18 -115 94 -581 105 -645 9 -53 12
-74 24 -150 12 -77 71 -433 80 -480 3 -14 8 -43 11 -65 3 -22 14 -87 25 -145
11 -58 22 -121 25 -140 11 -66 47 -175 80 -245 30 -63 121 -172 133 -161 2 3
-12 34 -31 69 -40 70 -72 179 -82 272 -3 33 -8 69 -11 80 -2 11 -6 41 -9 68
-2 26 -7 62 -9 80 -3 17 -8 50 -11 72 -3 22 -10 69 -15 105 -5 36 -12 88 -15
115 -3 28 -8 61 -11 75 -9 51 -14 104 -9 98 5 -4 37 -108 50 -158 6 -25 83
-299 105 -375 12 -38 25 -78 30 -87 6 -10 10 -24 10 -32 0 -8 12 -41 26 -74
l26 -60 -27 -41 c-49 -73 -32 -146 46 -199 47 -32 74 -26 75 18 2 56 3 60 20
60 12 0 15 -6 10 -25 -6 -23 -4 -25 30 -25 35 0 36 -1 22 -17 -9 -10 -23 -33
-33 -52 l-17 -34 -106 6 c-169 9 -338 56 -368 102 -18 27 -12 45 15 45 31 0
70 39 77 75 5 27 0 46 -19 84 -15 27 -47 129 -72 227 -26 99 -68 258 -95 354
-79 286 -144 560 -164 695 -4 22 -11 65 -16 95 -5 30 -12 78 -15 105 -3 28 -8
61 -10 75 -8 54 -38 333 -50 470 -8 91 -15 167 -20 225 -11 111 -21 230 -30
350 -6 84 -8 116 -20 250 -3 28 -7 84 -9 125 -3 41 -8 100 -10 130 -3 30 -8
87 -11 125 -3 39 -7 93 -10 120 -22 233 -11 219 34 -45z m-3806 120 c4 0 7 -4
7 -10 0 -13 -70 -4 -84 11 -8 8 0 9 29 5 22 -3 43 -5 48 -6z m1267 -171 c23
-50 39 -96 37 -103 -6 -16 -108 -88 -205 -146 -68 -40 -72 -41 -114 -30 -23 7
-46 16 -49 21 -3 6 0 42 8 82 22 115 23 124 25 167 1 22 6 44 12 47 17 11 220
59 232 55 7 -2 31 -44 54 -93z m790 31 c-20 -13 -33 -13 -25 0 3 6 14 10 23
10 15 0 15 -2 2 -10z m-1337 -63 c10 -5 16 -11 14 -14 -7 -6 27 -67 62 -113
43 -55 71 -106 71 -127 0 -25 -29 -38 -132 -59 l-82 -17 -22 28 c-30 38 -65
131 -57 153 4 9 15 28 25 42 10 14 19 43 21 65 1 22 6 43 12 47 13 10 65 7 88
-5z m785 -18 c12 -18 11 -20 -5 -17 -10 2 -19 11 -21 21 -5 23 10 21 26 -4z
m-2678 -194 c50 -8 193 -44 198 -50 15 -14 -141 16 -253 50 -50 15 -36 15 55
0z m490 -76 c0 -4 -9 -10 -20 -14 -23 -7 -48 4 -31 14 14 9 51 9 51 0z m1883
-31 c-21 -18 -44 -39 -51 -45 -19 -19 -24 -17 -62 22 -22 22 -29 35 -19 36 34
1 94 10 98 15 2 2 19 4 38 4 l34 0 -38 -32z m-1343 -66 c181 -62 436 -152 480
-170 21 -9 22 -11 5 -11 -11 -1 -60 4 -110 9 -103 12 -140 16 -280 31 -148 15
-299 39 -307 47 -9 10 -48 128 -48 148 0 26 61 13 260 -54z m1588 4 c-69 -36
-288 -117 -288 -107 0 31 43 55 150 86 63 19 126 34 140 34 l25 1 -27 -14z
m52 -106 c-21 -30 -70 -60 -120 -75 -24 -7 -24 -6 5 20 17 15 46 39 65 54 19
14 42 32 50 40 24 23 24 -5 0 -39z m-767 -61 c67 -17 126 -34 131 -39 8 -8
-191 -59 -248 -63 -20 -1 -34 5 -48 25 -19 24 -19 28 -4 49 9 13 16 31 16 41
0 24 11 23 153 -13z m-1043 -9 c14 -11 21 -20 17 -20 -13 0 -77 28 -77 34 0
13 37 4 60 -14z m138 -82 c66 -22 89 -34 73 -36 -44 -7 -191 39 -191 60 0 13
14 10 118 -24z m140 -142 c8 -9 -20 -56 -40 -67 -27 -14 -53 4 -77 54 -12 24
-21 48 -21 54 0 9 124 -28 138 -41z m-417 27 c8 -9 28 -22 45 -29 37 -15 43
-42 50 -192 l4 -93 -31 -17 c-17 -9 -40 -25 -52 -35 -11 -9 -24 -14 -28 -10
-4 5 -10 44 -13 88 -3 44 -9 114 -12 155 -3 41 -7 85 -9 98 -8 48 19 68 46 35z
m1064 -43 c-29 -13 -94 -13 -75 0 8 5 33 9 55 9 31 0 36 -2 20 -9z m-1140
-795 c30 -117 49 -163 106 -260 26 -44 50 -91 54 -105 3 -14 15 -30 27 -35 11
-6 26 -25 34 -43 12 -29 11 -34 -2 -39 -9 -3 -27 3 -42 14 -39 29 -158 88
-219 109 l-51 18 24 29 c13 16 25 43 25 60 1 18 3 102 5 187 1 85 4 166 5 180
l2 25 4 -25 c2 -14 15 -65 28 -115z m222 -211 c66 -66 86 -76 154 -79 34 -2
65 -7 71 -13 19 -19 -3 -82 -37 -107 -17 -14 -35 -25 -38 -25 -4 0 -30 -11
-59 -25 -28 -14 -53 -25 -54 -25 0 0 -4 28 -7 63 -3 41 -17 87 -40 137 -34 75
-49 120 -40 120 2 0 25 -21 50 -46z m-4463 -853 l38 -39 5 -143 c12 -301 8
-559 -10 -634 -37 -152 -50 -195 -68 -214 -34 -36 -274 -406 -288 -444 -5 -12
-7 -29 -5 -37 2 -8 6 -26 10 -40 4 -17 -1 -34 -13 -49 -16 -20 -28 -23 -71
-23 -98 3 -146 39 -140 105 3 29 7 33 43 38 82 12 182 77 240 154 38 51 166
415 180 510 4 28 9 59 11 69 9 48 17 313 17 539 0 136 3 247 7 247 3 0 23 -17
44 -39z m-434 -1752 c0 -11 -4 -18 -10 -14 -5 3 -7 12 -3 20 7 21 13 19 13 -6z
m236 -18 c-14 -25 -37 -41 -80 -55 -21 -7 -102 28 -109 48 -4 9 9 12 49 10 36
-1 67 4 91 16 50 24 67 17 49 -19z m5458 -531 c4 -52 9 -126 11 -165 3 -38 7
-101 10 -140 3 -38 8 -149 11 -245 3 -96 7 -176 8 -177 6 -7 37 180 42 247 3
41 5 159 6 262 1 104 2 187 4 185 10 -11 31 -267 49 -592 12 -232 26 -332 54
-384 17 -30 70 -61 106 -61 19 0 44 11 67 30 34 28 38 29 46 13 5 -10 13 -33
17 -51 l7 -33 -42 22 c-22 12 -43 19 -46 16 -3 -2 7 -33 21 -68 44 -104 33
-188 -23 -190 -15 -1 -63 0 -107 1 -71 2 -95 4 -143 9 -10 1 -11 34 -6 155 5
127 3 158 -9 183 -21 39 -37 52 -73 55 l-29 2 1 500 c1 276 2 507 3 515 3 36
9 -2 15 -89z m461 -1141 c11 -17 -1 -21 -15 -4 -8 9 -8 15 -2 15 6 0 14 -5 17
-11z m35 -395 c0 -4 -9 -22 -21 -40 -41 -67 -108 -95 -237 -96 -96 -1 -166 8
-206 29 -32 16 -86 62 -86 73 0 15 77 -1 105 -22 27 -21 41 -23 140 -23 109 1
111 1 194 43 81 40 111 50 111 36z"/>
<path d="M9780 7549 c0 -5 11 -9 25 -9 14 0 25 2 25 4 0 2 -11 6 -25 8 -14 3
-25 1 -25 -3z"/>
<path d="M4450 7950 c0 -5 5 -10 11 -10 5 0 7 5 4 10 -3 6 -8 10 -11 10 -2 0
-4 -4 -4 -10z"/>
<path d="M3550 9675 c-7 -9 -8 -15 -2 -15 5 0 12 7 16 15 3 8 4 15 2 15 -2 0
-9 -7 -16 -15z"/>
</g>
</svg>
