<svg width="32" height="32" viewBox="0 0 32 32" fill="none" xmlns="http://www.w3.org/2000/svg">
<path d="M3.07991 15.9893C3.0309 15.7927 3.0273 15.5876 3.06938 15.3895C3.11147 15.1914 3.19813 15.0055 3.32279 14.8459C3.44745 14.6863 3.60684 14.5572 3.78885 14.4683C3.97086 14.3795 4.17072 14.3333 4.37325 14.3333H27.6266C27.8291 14.3333 28.029 14.3795 28.211 14.4683C28.393 14.5572 28.5524 14.6863 28.677 14.8459C28.8017 15.0055 28.8884 15.1914 28.9304 15.3895C28.9725 15.5876 28.9689 15.7927 28.9199 15.9893L26.5052 25.6466C26.361 26.2235 26.0282 26.7356 25.5595 27.1016C25.0908 27.4676 24.5132 27.6665 23.9186 27.6666H8.08125C7.48659 27.6665 6.90903 27.4676 6.44036 27.1016C5.97168 26.7356 5.63879 26.2235 5.49458 25.6466L3.07991 15.9906V15.9893Z" stroke="#0680E2" stroke-width="2" stroke-linejoin="round"/>
<path d="M12 19.6666V22.3333M20 19.6666V22.3333M8 14.3333L13.3333 6.33325M24 14.3333L18.6667 6.33325" stroke="#0680E2" stroke-width="2" stroke-linecap="round"/>
</svg>
