<svg width="28" height="24" viewBox="0 0 28 24" fill="none" xmlns="http://www.w3.org/2000/svg">
<path d="M1.07991 10.9893C1.0309 10.7927 1.0273 10.5876 1.06938 10.3895C1.11147 10.1914 1.19813 10.0055 1.32279 9.84589C1.44745 9.68627 1.60684 9.55715 1.78885 9.46833C1.97086 9.3795 2.17072 9.33331 2.37325 9.33325H25.6266C25.8291 9.33331 26.029 9.3795 26.211 9.46833C26.393 9.55715 26.5524 9.68627 26.677 9.84589C26.8017 10.0055 26.8884 10.1914 26.9304 10.3895C26.9725 10.5876 26.9689 10.7927 26.9199 10.9893L24.5052 20.6466C24.361 21.2235 24.0282 21.7356 23.5595 22.1016C23.0908 22.4676 22.5132 22.6665 21.9186 22.6666H6.08125C5.48659 22.6665 4.90903 22.4676 4.44036 22.1016C3.97168 21.7356 3.63879 21.2235 3.49458 20.6466L1.07991 10.9906V10.9893Z" stroke="#FFA62B" stroke-width="2" stroke-linejoin="round"/>
<path d="M10 14.6666V17.3333M18 14.6666V17.3333M6 9.33325L11.3333 1.33325M22 9.33325L16.6667 1.33325" stroke="#FFA62B" stroke-width="2" stroke-linecap="round"/>
</svg>
