<svg width="19" height="20" viewBox="0 0 19 20" fill="none" xmlns="http://www.w3.org/2000/svg">
<path d="M18.5266 14.2309L16.0024 11.7066C15.1008 10.805 13.5682 11.1657 13.2076 12.3376C12.9372 13.149 12.0356 13.5998 11.2242 13.4195C9.42118 12.9687 6.98705 10.6247 6.53629 8.73151C6.26583 7.9201 6.80675 7.01857 7.61812 6.74815C8.79011 6.38753 9.15073 4.85493 8.24919 3.9534L5.72491 1.42911C5.00368 0.798043 3.92185 0.798043 3.29078 1.42911L1.57787 3.14202C-0.13504 4.94508 1.75817 9.7232 5.99537 13.9604C10.2326 18.1976 15.0107 20.181 16.8137 18.3779L18.5266 16.665C19.1578 15.9438 19.1578 14.8619 18.5266 14.2309Z" fill="#FFA62B"/>
</svg>
