<?xml version="1.0" standalone="no"?>
<!DOCTYPE svg PUBLIC "-//W3C//DTD SVG 20010904//EN"
 "http://www.w3.org/TR/2001/REC-SVG-20010904/DTD/svg10.dtd">
<svg version="1.0" xmlns="http://www.w3.org/2000/svg"
 width="844.000000pt" height="1280.000000pt" viewBox="0 0 844.000000 1280.000000"
 preserveAspectRatio="xMidYMid meet">
<metadata>
Created by potrace 1.15, written by Peter Selinger 2001-2017
</metadata>
<g transform="translate(0.000000,1280.000000) scale(0.100000,-0.100000)"
fill="#607d8b" stroke="none">
<path d="M5434 12724 l-401 -73 -339 -208 -340 -208 -185 -167 -185 -168 -149
-242 -150 -243 -92 -330 -92 -330 -37 -310 c-20 -170 -39 -375 -43 -455 -6
-138 -7 -147 -34 -181 -26 -34 -31 -37 -97 -41 -67 -5 -117 -28 -105 -48 5 -9
5 -9 -255 -108 -169 -65 -209 -76 -460 -126 -169 -34 -387 -69 -565 -91 -451
-56 -1065 -192 -1325 -295 -101 -40 -214 -102 -288 -159 -124 -95 -135 -102
-153 -96 -30 10 -96 -61 -119 -127 -11 -32 -20 -69 -20 -83 0 -58 57 -146 108
-166 12 -5 22 -17 22 -28 0 -35 56 -89 101 -96 33 -6 45 -3 63 14 12 12 31 21
41 21 10 0 28 9 39 19 14 13 38 21 68 22 41 2 52 -2 92 -35 32 -26 46 -45 46
-62 0 -13 16 -56 35 -94 l35 -70 0 -260 c0 -249 -1 -261 -18 -256 -11 4 -33
-3 -53 -17 -42 -28 -38 -7 -80 -499 -34 -403 -34 -424 -2 -621 5 -32 3 -37
-14 -37 -11 0 -56 -27 -101 -61 -107 -80 -113 -96 -86 -246 6 -29 4 -33 -16
-33 -65 0 -87 -46 -60 -125 l19 -55 -25 0 c-15 0 -38 -13 -56 -31 -28 -27 -30
-34 -25 -77 4 -31 1 -56 -8 -72 -22 -38 -18 -61 16 -96 31 -32 31 -35 46 -196
12 -128 23 -192 53 -298 64 -226 109 -498 131 -805 11 -148 28 -349 39 -445
49 -436 51 -466 50 -865 -1 -425 -9 -532 -55 -703 -42 -153 -65 -187 -141
-211 -66 -21 -137 -64 -152 -91 -8 -17 -12 -50 -9 -100 4 -79 26 -144 73 -211
47 -69 183 -115 313 -107 57 4 67 8 92 36 24 27 29 41 29 86 0 29 9 79 20 112
38 109 58 208 99 474 31 211 43 327 56 570 17 297 16 316 -4 695 -12 215 -21
455 -21 535 -1 88 -6 171 -15 210 -20 92 -97 817 -92 866 10 99 88 209 179
253 26 12 52 29 58 37 7 7 19 14 27 14 9 0 113 -27 232 -59 119 -33 398 -110
621 -171 223 -61 502 -138 620 -170 118 -32 356 -97 529 -145 228 -63 348 -90
440 -102 69 -8 129 -18 133 -22 4 -3 41 -186 83 -406 82 -429 89 -505 71 -720
-7 -84 -6 -92 15 -125 13 -19 23 -39 24 -44 0 -5 11 -13 25 -16 33 -9 94 -41
150 -79 41 -28 52 -31 126 -31 60 0 85 4 94 15 7 8 29 15 48 15 29 0 45 8 79
42 25 24 43 52 43 64 0 12 7 27 15 34 10 9 15 32 15 76 0 75 -18 98 -80 107
-58 8 -113 38 -130 72 -11 23 -15 70 -15 197 l0 167 -28 29 c-22 23 -30 46
-42 118 -8 49 -17 101 -20 117 -6 38 12 34 63 -14 33 -31 42 -47 42 -72 0 -18
6 -41 14 -52 32 -46 207 -449 230 -531 65 -224 72 -289 101 -909 21 -449 58
-1847 52 -1980 -4 -82 -13 -136 -37 -214 -43 -148 -58 -322 -36 -421 9 -40 26
-90 37 -112 66 -129 243 -208 405 -181 83 15 159 52 159 79 0 13 6 18 18 16
11 -2 17 4 17 18 0 11 18 56 40 100 35 69 40 88 40 148 0 61 -7 86 -75 255
-73 183 -75 189 -75 275 0 48 -9 177 -21 287 -19 185 -20 243 -16 765 3 311
10 637 16 725 12 189 26 454 42 800 l12 250 68 275 c38 151 72 286 75 300 4
14 -25 -37 -64 -113 -39 -75 -76 -154 -81 -175 -10 -36 -35 -234 -86 -677 -14
-129 -28 -330 -35 -520 -6 -170 -13 -319 -15 -330 -5 -27 2 363 16 870 l11
410 69 279 c39 153 68 280 67 282 -2 1 -50 -122 -106 -274 -93 -249 -105 -290
-122 -407 -26 -180 -85 -1072 -105 -1595 -9 -239 -18 -444 -19 -455 -2 -11 -4
372 -5 850 l-1 870 -39 345 -39 345 -127 234 c-69 128 -125 235 -123 236 7 7
123 -47 131 -61 8 -13 64 -44 81 -44 15 0 76 65 76 81 0 10 4 19 8 19 4 0 82
-13 172 -30 90 -16 178 -30 196 -30 26 0 54 21 165 119 73 66 135 119 136 118
1 -1 -32 -69 -73 -150 -41 -81 -73 -147 -71 -147 2 0 75 72 163 160 145 146
162 167 191 235 27 62 30 79 22 107 -5 18 -9 35 -9 38 0 3 25 14 56 25 33 11
71 34 95 57 33 32 39 44 39 80 l0 43 333 69 c276 57 344 75 402 104 124 61
228 129 310 201 44 38 81 69 82 67 1 -1 9 -141 17 -312 29 -590 128 -1341 232
-1759 20 -77 46 -192 59 -256 34 -165 129 -477 154 -503 27 -29 27 -54 -1 -58
-27 -4 -52 -75 -44 -127 6 -41 51 -91 81 -91 12 0 30 -9 41 -21 34 -38 89 -59
152 -59 46 0 63 -4 77 -20 16 -17 31 -20 107 -20 81 0 88 2 88 20 0 13 7 20
18 20 28 0 50 30 58 78 5 31 15 48 40 67 33 25 34 29 34 94 0 73 -16 101 -57
101 -11 0 -28 9 -38 20 -11 12 -31 20 -49 20 l-31 0 -82 273 c-77 253 -90 312
-192 842 l-109 570 -11 525 c-6 289 -14 694 -18 900 -9 451 -12 434 -54 -300
-25 -455 -29 -566 -21 -670 10 -122 9 -166 -2 -99 -3 19 -24 162 -46 318 -35
246 -43 288 -62 308 -12 13 -27 23 -33 23 -6 0 -22 11 -35 25 -22 23 -22 28
-16 142 3 65 2 135 -3 156 -13 52 -47 87 -85 87 l-30 0 35 36 c18 20 69 54
112 75 79 40 157 102 157 124 0 7 9 33 20 59 18 39 19 52 10 85 -6 22 -21 48
-34 58 l-23 19 73 508 c39 279 75 510 78 513 8 8 10 59 -19 -457 -14 -245 -25
-461 -24 -480 0 -19 52 269 114 640 112 660 118 689 260 1285 81 336 149 623
152 638 4 22 -1 35 -23 58 -15 16 -34 27 -41 25 -20 -8 -15 14 17 74 34 63 35
63 15 -4 -24 -78 -11 -64 20 21 15 43 38 87 51 98 39 35 67 100 61 148 -4 36
14 93 118 377 156 427 183 510 245 760 46 182 54 230 71 430 l19 225 -35 240
-36 240 -96 233 c-82 199 -101 237 -130 259 -28 22 -40 25 -77 20 -40 -6 -45
-4 -83 36 -22 23 -63 72 -90 109 -56 76 -164 163 -265 214 -36 18 -156 69
-265 113 -194 77 -202 79 -418 115 -203 34 -253 39 -640 56 -231 11 -431 19
-445 19 -14 0 -205 -34 -426 -75z m1486 -74 c351 -67 508 -113 672 -197 113
-58 189 -117 317 -246 92 -93 102 -107 92 -125 -18 -33 -13 -62 29 -181 22
-61 40 -126 40 -144 0 -18 16 -113 35 -212 19 -99 35 -181 35 -182 0 -1 -16 9
-36 22 -20 14 -43 25 -51 25 -11 0 -12 9 -7 38 4 20 10 46 15 58 10 27 -9 65
-41 81 -30 15 -70 141 -70 223 0 55 0 56 -66 120 -36 36 -86 94 -110 130 -30
44 -69 84 -121 123 -42 31 -81 57 -86 57 -5 0 -48 22 -96 50 -114 66 -194 94
-380 136 -86 20 -167 43 -181 52 -17 11 -51 16 -105 18 -44 1 -150 9 -235 17
-85 9 -274 19 -420 23 -231 5 -291 3 -470 -16 -113 -11 -286 -37 -385 -57
l-180 -35 -170 -93 c-93 -52 -231 -137 -305 -190 -135 -96 -170 -134 -170
-183 0 -33 -48 -92 -74 -92 -31 0 -151 -78 -170 -111 -18 -30 -21 -71 -7 -98
8 -13 -19 -52 -134 -191 -163 -198 -196 -259 -246 -457 -37 -147 -52 -237 -99
-588 -36 -268 -46 -325 -56 -325 -2 0 -46 18 -61 25 -8 4 219 1241 236 1286
46 122 143 256 324 446 67 71 152 160 188 199 99 106 327 273 527 386 l173 97
232 45 c128 25 302 59 387 75 l155 29 430 1 431 1 214 -40z m-1153 -391 l-206
-130 -74 -112 c-41 -62 -82 -128 -92 -147 -10 -19 -42 -75 -73 -125 -30 -49
-45 -81 -33 -71 27 25 27 16 -5 -55 -19 -41 -32 -59 -45 -59 -22 0 -25 13 -5
29 20 17 29 54 10 47 -8 -3 -20 -8 -27 -11 -7 -3 -99 72 -210 171 -187 169
-196 178 -180 196 9 10 24 18 33 18 10 0 53 27 97 59 115 86 272 160 485 230
189 62 319 86 477 90 l54 1 -206 -131z m953 121 c0 -5 -7 -7 -15 -4 -8 4 -15
8 -15 10 0 2 7 4 15 4 8 0 15 -4 15 -10z m384 -125 c110 -28 183 -56 201 -75
10 -11 27 -20 37 -20 22 0 94 -40 153 -84 125 -95 232 -208 308 -328 9 -15 30
-29 47 -33 22 -5 30 -12 30 -28 1 -12 7 -33 15 -47 19 -33 18 -40 -3 -40 -11
0 -27 -9 -37 -20 -13 -14 -31 -20 -60 -20 -23 0 -62 -7 -86 -15 -24 -9 -80
-25 -124 -36 -104 -26 -254 -85 -282 -112 -23 -20 -23 -20 -23 0 0 11 8 44 19
75 18 53 18 57 0 164 -42 248 -70 322 -198 512 -45 67 -76 122 -70 122 6 0 39
-7 73 -15z m-387 -47 c150 -56 293 -178 351 -300 22 -47 42 -126 78 -310 l48
-247 -28 -30 c-20 -20 -30 -43 -33 -75 -5 -40 -2 -48 25 -76 23 -23 39 -30 69
-30 l38 0 -51 -24 c-53 -25 -83 -55 -104 -106 -7 -16 -17 -30 -22 -30 -6 0 -8
-13 -5 -30 7 -35 -8 -49 -22 -21 -24 44 -82 37 -108 -12 -10 -20 -18 -27 -21
-19 -2 8 16 35 41 60 54 56 77 99 77 144 0 18 9 67 20 108 16 63 20 109 20
282 0 201 -1 209 -28 286 -41 114 -86 185 -177 277 -56 56 -106 95 -165 128
-92 51 -93 59 -3 25z m-90 -173 c41 -14 72 -37 145 -109 58 -56 102 -108 115
-136 26 -56 69 -294 85 -464 11 -127 11 -128 29 -105 l19 24 0 -30 c0 -17 5
-36 10 -41 8 -8 7 -19 -1 -37 -17 -37 -25 -34 -34 11 -7 33 -8 35 -19 18 -25
-43 -69 -86 -88 -86 -36 0 -173 -84 -240 -148 -34 -32 -38 -34 -53 -18 -9 9
-23 16 -30 16 -15 0 -19 12 -30 75 -9 54 -35 94 -100 154 -83 75 -140 93 -315
100 l-145 6 -116 -57 c-91 -44 -119 -63 -128 -85 -7 -15 -23 -41 -37 -56 l-24
-28 -26 20 c-15 12 -32 21 -39 21 -6 0 -37 59 -68 131 -62 145 -62 150 -7 213
29 32 31 40 25 78 -4 24 -12 49 -18 56 -8 10 19 43 114 138 116 118 135 132
309 237 177 107 188 112 255 118 129 12 355 3 412 -16z m-2091 -125 c17 -4 55
-27 85 -51 30 -24 123 -77 206 -118 l152 -75 -6 -46 c-3 -27 -1 -56 6 -68 7
-12 48 -40 91 -62 130 -65 192 -52 219 45 7 28 210 279 218 271 2 -1 -8 -25
-21 -52 -12 -27 -31 -74 -42 -104 -21 -61 -36 -75 -75 -71 -38 3 -64 -26 -95
-109 -34 -89 -37 -173 -9 -217 10 -15 57 -68 105 -118 47 -49 100 -107 117
-128 l30 -38 -18 -37 c-28 -55 -24 -76 24 -117 41 -36 110 -74 134 -75 7 0 20
11 29 25 14 21 15 31 6 51 -11 23 -11 24 16 17 15 -4 35 -6 45 -5 23 1 18 -26
-19 -107 -28 -63 -35 -199 -10 -220 8 -6 24 -40 37 -74 12 -34 32 -74 44 -88
12 -15 27 -40 34 -56 11 -27 10 -34 -12 -66 l-24 -36 -32 80 c-17 44 -31 87
-31 95 0 8 -7 14 -15 14 -8 0 -15 6 -15 14 0 21 -48 56 -76 56 -28 0 -74 -20
-74 -32 0 -4 -4 -8 -10 -8 -13 0 -1 30 22 57 17 18 19 32 16 90 -4 61 -15 90
-110 297 -113 242 -151 307 -199 331 -26 14 -32 14 -58 0 l-29 -15 11 29 c8
21 7 35 -6 59 -8 17 -13 40 -10 51 8 30 -14 85 -47 116 -23 22 -35 26 -62 23
-29 -5 -42 2 -108 55 -41 34 -134 118 -206 189 -132 128 -204 177 -264 178
-32 0 -56 15 -41 24 6 4 11 16 11 28 0 15 4 18 18 13 9 -4 31 -11 48 -15z
m186 -412 c222 -184 278 -234 278 -245 0 -20 -464 -602 -515 -646 -27 -24
-127 -75 -200 -102 -63 -24 -273 -70 -281 -62 -3 3 25 180 62 393 l67 389 94
190 c81 164 101 196 146 237 35 32 61 47 79 48 21 0 83 -46 270 -202z m2517
-22 c1 -104 -6 -76 -12 49 -3 72 -2 94 3 65 5 -25 9 -76 9 -114z m-2964 84
c-45 -61 -55 -65 -19 -7 35 55 46 69 52 63 2 -3 -12 -28 -33 -56z m3710 -166
c-8 -8 -17 -23 -20 -34 -6 -18 -12 -20 -53 -14 -42 5 -75 -5 -312 -90 -145
-52 -265 -94 -267 -93 -5 6 263 205 305 226 70 36 150 61 196 61 23 1 52 7 66
15 23 13 27 11 62 -22 31 -30 35 -38 23 -49z m224 -429 c1 -22 -23 -200 -53
-395 -52 -347 -55 -361 -129 -600 -41 -135 -88 -302 -103 -371 l-27 -127 -35
-6 c-19 -3 -43 -12 -52 -21 -17 -15 -20 -14 -43 20 -36 52 -60 66 -128 72 -44
4 -64 2 -77 -9 -22 -20 -52 -30 -52 -18 0 5 5 12 11 16 6 3 9 17 6 30 -2 13 0
24 4 24 5 0 9 13 9 29 0 21 -30 75 -98 178 -230 347 -264 429 -287 688 -19
207 -18 241 5 130 29 -145 99 -335 123 -335 5 0 -5 -16 -22 -35 -17 -20 -31
-45 -31 -57 0 -11 53 -92 118 -178 116 -156 118 -158 232 -234 107 -70 120
-76 168 -76 45 0 52 3 52 20 0 14 -7 20 -22 21 -25 1 -19 4 25 13 15 4 27 13
27 22 0 8 10 34 21 57 12 23 66 164 119 312 136 378 156 492 167 950 l6 260
33 -170 c18 -93 33 -188 33 -210z m-259 -59 l0 -335 -60 -348 c-82 -474 -78
-453 -101 -453 -10 0 -19 7 -19 15 0 8 -17 23 -37 34 -21 10 -50 32 -64 48
-53 56 -169 243 -240 384 -90 180 -109 267 -109 516 l0 163 308 154 c169 85
310 155 315 155 4 1 7 -149 7 -333z m-1608 137 c20 -21 53 -71 73 -112 36 -72
37 -76 21 -102 -9 -15 -16 -40 -16 -56 l-1 -28 -19 35 c-11 19 -19 43 -20 53
-1 60 -83 156 -165 193 -101 46 -236 28 -300 -42 -32 -34 -32 -25 0 25 21 34
32 41 77 50 69 14 103 17 218 19 l96 2 36 -37z m-1255 -23 c-14 -16 -28 -38
-31 -47 -3 -10 -18 -24 -33 -31 -17 -7 -72 -72 -138 -162 -97 -131 -124 -161
-235 -252 -201 -167 -241 -194 -341 -234 -52 -20 -101 -43 -110 -51 -8 -7 -23
-13 -32 -13 -19 0 -73 -44 -88 -72 -7 -14 -7 -23 2 -34 15 -18 1 -18 -31 1
-14 8 -42 14 -63 15 -21 0 -52 7 -68 16 -29 14 -30 18 -24 57 12 77 7 73 109
81 109 7 191 21 261 43 76 23 285 129 338 171 25 20 148 153 273 295 124 142
229 256 231 253 3 -3 -6 -19 -20 -36z m1033 -150 c0 -12 7 -20 17 -20 9 0 34
-17 55 -37 28 -27 38 -45 38 -68 0 -17 7 -55 16 -85 9 -30 16 -65 16 -78 0
-27 -28 -62 -51 -62 -9 0 -59 -52 -111 -115 -89 -109 -96 -115 -131 -115 l-37
0 -36 108 c-48 143 -50 230 -7 288 15 21 40 50 55 63 14 14 26 33 26 44 0 28
28 57 55 57 12 0 30 9 40 20 10 11 26 20 37 20 11 0 18 -7 18 -20z m-730 -131
c87 -104 92 -113 87 -148 -3 -23 -27 -69 -62 -122 -32 -46 -75 -109 -96 -140
-30 -45 -58 -69 -136 -119 -181 -116 -223 -162 -223 -249 0 -30 4 -40 20 -44
16 -4 20 -14 20 -44 0 -31 7 -46 34 -72 19 -18 37 -44 40 -58 4 -13 17 -28 30
-32 20 -8 24 -22 45 -158 32 -206 38 -350 17 -391 -9 -17 -16 -55 -16 -86 l0
-55 -59 -41 -60 -40 -22 33 c-31 43 -39 48 -70 43 -31 -6 -28 -21 -54 278
l-13 158 -51 105 c-28 58 -51 113 -51 123 0 9 -7 24 -17 31 -9 8 -60 68 -114
134 -53 66 -136 165 -183 220 -79 93 -84 100 -63 107 12 3 34 6 50 7 43 2 243
106 337 177 47 35 182 160 300 278 118 119 215 216 216 216 0 0 43 -50 94
-111z m1733 81 c3 -11 2 -18 -3 -15 -4 3 -10 14 -13 25 -3 11 -2 18 3 15 4 -3
10 -14 13 -25z m14 -107 c-3 -10 -5 -4 -5 12 0 17 2 24 5 18 2 -7 2 -21 0 -30z
m-1618 -83 l-1 -35 -23 50 c-13 28 -26 61 -30 75 -6 20 -1 17 24 -15 21 -28
30 -51 30 -75z m1359 -37 c6 -16 39 -113 74 -218 69 -210 61 -198 300 -502
l88 -112 -21 -35 c-13 -22 -18 -43 -14 -56 5 -16 2 -20 -14 -20 -26 0 -182
-95 -280 -170 -42 -32 -144 -127 -227 -212 -151 -152 -152 -154 -242 -318 -50
-91 -95 -183 -100 -205 -6 -22 -13 -53 -17 -70 l-7 -30 -20 38 c-11 22 -28 65
-38 97 -10 32 -26 72 -34 89 -22 41 -22 154 0 172 8 7 25 31 36 53 48 93 166
257 247 341 48 50 100 111 117 137 16 27 36 48 46 48 12 0 19 16 29 69 12 68
12 70 -20 137 -36 78 -66 114 -93 114 -10 0 -18 1 -19 3 0 1 -6 45 -14 97 -11
85 -11 112 7 250 14 117 16 160 8 179 -6 13 -9 25 -8 26 2 1 34 19 72 40 38
21 80 49 95 61 33 30 36 30 49 -3z m-311 -28 c13 3 23 2 23 -2 -1 -19 -38 -48
-63 -49 -15 -1 -37 -4 -50 -8 -21 -5 -22 -2 -19 38 l4 43 41 -14 c22 -8 51
-12 64 -8z m-141 -213 c-3 -2 -13 -1 -24 2 -19 7 -20 8 -4 46 l17 39 7 -41 c4
-23 6 -44 4 -46z m-2176 -152 c0 -5 -4 -10 -10 -10 -5 0 -10 5 -10 10 0 6 5
10 10 10 6 0 10 -4 10 -10z m1146 -52 c-14 -24 -31 -45 -37 -47 -7 -2 3 17 21
43 42 58 49 59 16 4z m-1106 28 c0 -11 -19 -15 -25 -6 -3 5 1 10 9 10 9 0 16
-2 16 -4z m1384 -98 c8 -29 18 -66 22 -83 4 -16 11 -36 17 -43 10 -12 3 -124
-9 -143 -3 -5 -13 -9 -23 -9 -11 0 -25 -15 -36 -39 -16 -37 -80 -110 -88 -100
-8 9 -77 225 -77 241 0 9 15 29 34 43 28 21 36 35 41 74 6 42 12 52 48 79 23
17 45 31 49 31 4 1 14 -23 22 -51z m879 -186 l-18 -33 -7 43 c-3 24 -13 63
-22 87 -9 24 -16 58 -16 75 1 26 7 18 41 -54 l40 -84 -18 -34z m-2903 71 c0
-75 -16 -118 -74 -204 -19 -29 -34 -54 -32 -56 5 -5 166 55 191 71 l22 15 20
-142 20 -142 -51 -55 c-89 -96 -89 -96 -153 -76 -51 16 -54 19 -39 35 9 10 16
27 16 39 0 15 6 22 20 22 11 0 20 7 20 15 0 8 7 15 16 15 8 0 25 5 36 11 20
11 19 12 -11 40 -38 34 -71 37 -96 9 -10 -11 -24 -20 -32 -20 -16 0 -12 23 13
74 21 43 17 60 -21 97 l-34 34 26 27 c15 15 27 36 28 45 0 10 13 39 28 64 15
26 33 69 40 98 9 37 16 51 29 51 15 0 18 -10 18 -67z m2698 -29 c72 -108 68
-95 36 -145 -15 -24 -67 -84 -115 -134 -47 -49 -89 -100 -93 -112 -16 -50 -21
-17 -18 111 3 116 5 136 20 141 9 3 41 48 71 100 30 52 56 95 58 95 2 0 20
-25 41 -56z m-378 12 l56 0 -15 -33 c-10 -21 -24 -34 -42 -38 -33 -8 -57 -33
-69 -74 -7 -26 -2 -47 30 -126 39 -97 41 -120 5 -62 -30 47 -65 56 -120 29
-37 -18 -57 -40 -126 -144 -46 -69 -119 -161 -165 -209 -46 -48 -91 -103 -99
-122 -9 -22 -15 -68 -15 -117 0 -80 0 -81 -22 -74 -13 3 -25 8 -27 10 -1 1 7
33 20 71 17 49 23 89 23 143 -1 70 -7 91 -92 308 -50 128 -94 237 -97 241 -5
8 43 46 50 39 18 -20 68 -142 84 -202 20 -79 83 -192 101 -181 19 12 20 -17 1
-41 -27 -35 -26 -44 4 -44 16 0 25 6 25 15 0 9 82 99 183 201 214 217 230 242
225 350 -3 63 -1 73 12 67 8 -4 40 -8 70 -7z m-1945 -84 c77 -39 106 -62 200
-156 200 -201 295 -410 369 -811 14 -77 26 -157 26 -177 0 -28 4 -38 16 -38
14 0 14 -2 3 -16 -16 -19 -92 -58 -224 -114 -55 -23 -161 -73 -235 -109 -74
-37 -188 -90 -253 -117 -80 -33 -112 -51 -100 -55 13 -4 6 -8 -22 -13 -71 -12
-76 -26 -10 -26 144 0 331 34 338 61 3 11 42 29 118 54 62 21 167 61 234 90
67 29 146 60 176 68 63 19 87 41 121 113 l23 51 45 -28 c25 -16 51 -29 58 -29
19 0 14 -45 -8 -65 -13 -11 -20 -31 -20 -52 0 -33 -1 -34 -22 -19 -32 23 -155
22 -180 -1 -10 -9 -195 -97 -410 -195 l-392 -178 -52 11 c-45 10 -57 9 -90 -7
-37 -18 -39 -21 -42 -73 -4 -71 18 -96 91 -104 29 -3 147 -20 262 -37 116 -17
363 -53 550 -81 187 -27 402 -59 478 -70 76 -11 143 -19 149 -17 5 2 -31 14
-81 27 -50 13 -90 25 -88 28 4 3 137 -13 185 -23 l22 -4 -21 -42 c-17 -34 -22
-61 -23 -140 0 -54 -3 -98 -6 -98 -5 0 -282 75 -915 250 -143 39 -312 85 -375
102 -63 17 -124 40 -136 50 -28 25 -118 25 -159 0 -63 -39 -63 -44 -6 -307 56
-259 57 -268 38 -283 -10 -8 -30 1 -82 38 -62 44 -76 49 -123 50 l-54 0 6 38
c20 133 59 483 76 685 17 207 18 242 6 271 -8 19 -22 38 -31 44 -16 9 -16 22
9 213 25 190 94 599 102 608 2 2 22 -2 43 -9 l39 -13 5 -406 c4 -357 24 -752
35 -681 3 14 17 117 32 230 l27 205 8 -130 c7 -120 15 -155 35 -155 4 0 10 64
13 143 4 138 30 372 83 765 14 107 23 208 20 226 -4 18 -20 45 -36 61 -18 17
-30 39 -30 54 0 14 12 110 27 214 31 217 13 202 158 129z m2531 -133 l16 -32
-64 -66 c-36 -36 -88 -103 -118 -149 -29 -45 -54 -81 -56 -80 -1 2 27 63 64
135 62 123 74 163 37 133 -12 -10 -15 -10 -15 4 0 9 8 16 18 16 9 0 35 16 57
35 22 19 41 34 42 35 1 0 10 -14 19 -31z m1446 -137 c-44 -148 -49 -160 -64
-146 -14 15 -10 29 45 165 34 81 62 147 64 146 1 -2 -19 -76 -45 -165z m-3347
-135 c57 -127 91 -225 140 -395 36 -124 64 -226 62 -227 -1 -1 -15 -9 -30 -19
-16 -10 -30 -16 -31 -14 -2 2 -15 89 -31 193 -43 295 -100 449 -243 658 -44
64 -40 70 13 17 36 -36 60 -79 120 -213z m-1535 60 c0 -2 -22 -20 -50 -41 -27
-21 -48 -41 -46 -45 3 -4 -73 -22 -167 -40 -211 -41 -267 -65 -267 -118 0 -13
-6 -25 -12 -28 -7 -2 -148 -11 -313 -20 -238 -13 -396 -29 -765 -76 -438 -57
-469 -62 -540 -93 -90 -40 -434 -246 -534 -320 -164 -122 -213 -145 -244 -114
-20 20 -15 58 8 58 25 0 35 36 20 74 -14 37 -5 46 73 82 34 16 133 64 219 106
133 65 187 85 356 132 175 48 236 60 503 95 191 25 408 46 584 56 l280 17 305
95 c168 52 366 114 440 138 137 44 150 47 150 42z m-3 -73 c-3 -3 -12 -4 -19
-1 -8 3 -5 6 6 6 11 1 17 -2 13 -5z m-44 -11 c-7 -2 -19 -2 -25 0 -7 3 -2 5
12 5 14 0 19 -2 13 -5z m304 -115 c7 -24 17 -195 22 -383 6 -187 14 -379 17
-426 l6 -87 -31 -7 c-16 -3 -42 -15 -56 -26 l-25 -20 0 -256 c0 -225 4 -284
30 -496 17 -132 29 -240 28 -241 -2 0 -223 -111 -493 -245 -471 -234 -672
-321 -745 -321 -14 0 -39 -8 -55 -18 -70 -43 -219 -79 -375 -91 -62 -5 -117
-15 -135 -25 -16 -8 -118 -34 -225 -56 -107 -23 -204 -45 -215 -50 -11 -5 -36
-11 -55 -14 -19 -2 -65 -12 -101 -22 -66 -17 -67 -17 -98 5 -39 28 -39 37 3
55 69 29 101 113 72 189 -27 73 -82 118 -159 132 -61 12 -54 31 109 290 189
303 269 394 639 731 229 209 424 405 496 499 69 90 79 131 79 317 0 141 -2
163 -21 199 -11 23 -19 43 -16 45 2 2 93 16 203 30 177 23 216 32 354 79 284
97 675 233 700 243 14 6 27 11 30 11 3 1 11 -18 17 -41z m2677 9 c4 -19 3 -26
-4 -22 -5 3 -10 18 -10 32 0 32 5 28 14 -10z m1136 25 c0 -5 -11 -14 -24 -20
-64 -29 -408 -374 -475 -477 -14 -22 -59 -139 -101 -259 l-75 -220 -83 -27
c-46 -16 -92 -31 -103 -34 -17 -6 -19 -1 -19 48 0 41 -5 58 -20 72 -11 10 -20
27 -20 37 0 10 -9 36 -20 58 -11 22 -20 56 -20 76 0 21 -8 46 -20 61 -11 14
-20 32 -20 39 0 25 -47 45 -112 48 -64 4 -98 -10 -98 -40 0 -7 -12 -26 -26
-43 l-26 -31 -127 0 c-115 0 -130 2 -146 20 -10 11 -27 20 -39 20 -11 0 -45
25 -78 57 -43 43 -58 64 -58 86 0 24 2 26 19 17 11 -5 30 -29 43 -52 13 -23
34 -48 48 -55 49 -25 220 -11 220 17 0 4 -28 10 -63 12 -35 3 -78 13 -96 22
-39 21 -36 31 5 15 34 -13 150 -16 182 -5 19 6 22 4 22 -16 0 -22 3 -23 59
-20 65 4 73 13 91 96 4 23 21 70 36 106 29 70 37 160 21 270 -5 40 -4 50 3 37
6 -9 22 -28 36 -42 23 -23 25 -24 42 -7 12 12 26 16 42 12 17 -4 21 -8 12 -14
-6 -4 -12 -18 -12 -32 0 -14 -7 -39 -16 -55 -11 -22 -16 -60 -16 -130 0 -96 1
-100 40 -173 74 -137 110 -186 135 -186 24 0 87 -66 87 -92 1 -7 29 41 63 107
34 66 82 146 106 178 53 69 569 523 599 527 1 0 2 -4 2 -8z m-1350 -177 c7
-38 21 -84 31 -101 12 -20 19 -50 19 -85 0 -53 -1 -55 -67 -121 -37 -38 -73
-68 -79 -68 -21 0 -91 86 -109 136 -11 27 -25 59 -33 71 -16 26 -9 55 11 47 9
-3 47 35 107 112 104 130 98 129 120 9z m1644 73 c-32 -36 -54 -76 -54 -96 0
-10 -9 -27 -20 -37 -11 -10 -20 -29 -20 -42 0 -18 -5 -23 -24 -23 -32 0 -83
-49 -131 -124 -70 -110 -128 -180 -226 -276 -99 -98 -107 -103 -286 -178 l-92
-39 61 121 c71 143 127 214 292 373 146 141 264 227 353 260 36 13 84 37 107
53 49 35 67 38 40 8z m200 -103 c-4 -8 -11 -15 -16 -15 -6 0 -5 6 2 15 7 8 14
15 16 15 2 0 1 -7 -2 -15z m-2801 -149 c-9 -13 -21 27 -21 69 0 27 2 25 14
-14 7 -24 10 -49 7 -55z m2868 -10 c-11 -12 -23 -40 -27 -64 -8 -49 -15 -52
-35 -16 -7 15 -33 43 -57 64 l-42 38 35 21 c20 12 37 21 39 21 1 0 1 -15 -2
-32 l-4 -33 53 53 54 52 3 -41 c2 -31 -2 -47 -17 -63z m-5972 81 c-2 -2 -115
-32 -252 -66 -218 -54 -279 -74 -523 -171 -151 -61 -280 -108 -286 -104 -5 4
11 28 39 56 115 118 383 205 828 268 172 24 207 27 194 17z m3488 -95 c9 -5
-25 -45 -104 -122 l-116 -115 58 75 c32 41 74 96 94 123 36 47 46 53 68 39z
m-3675 -118 c-7 -119 46 -203 132 -214 l45 -5 -190 -225 c-190 -225 -564 -614
-606 -631 -13 -4 -23 -15 -23 -24 0 -8 -4 -15 -10 -15 -5 0 -21 -20 -36 -45
-14 -25 -27 -45 -29 -45 -1 0 24 106 57 236 l59 236 -16 52 c-9 28 -38 96 -65
151 -26 55 -61 129 -78 165 -17 36 -47 84 -66 107 -22 24 -34 47 -30 56 6 16
102 52 414 156 151 50 252 75 440 110 3 1 3 -29 2 -65z m6088 -117 c-16 -65
-31 -121 -34 -124 -3 -4 -17 4 -31 17 -19 17 -22 27 -15 41 17 31 11 43 -11
23 -24 -21 -68 -20 -113 3 -52 27 -88 12 -209 -89 -115 -96 -220 -178 -247
-193 -8 -4 58 66 147 156 88 90 168 178 176 194 22 44 46 61 102 74 42 10 57
9 88 -4 39 -16 77 -65 77 -99 0 -18 1 -18 20 -1 11 10 20 25 20 32 0 13 52 94
57 90 1 -1 -11 -55 -27 -120z m-2270 -172 c53 -53 82 -75 100 -75 14 -1 36 -7
50 -15 35 -20 218 -20 262 0 18 8 52 19 76 25 23 6 57 24 76 40 l33 29 20 -22
c11 -12 28 -47 38 -77 11 -34 32 -70 56 -95 22 -23 39 -46 39 -53 0 -7 7 -12
15 -12 8 0 15 -8 15 -19 0 -14 -14 -22 -62 -36 -119 -32 -271 -98 -380 -163
-106 -64 -109 -65 -164 -59 -34 3 -73 16 -102 33 -65 38 -232 202 -308 303
-64 84 -78 121 -48 121 9 0 18 9 21 20 3 11 11 20 19 20 7 0 24 18 36 39 12
22 36 46 53 55 57 28 75 22 155 -59z m2021 -63 c-31 -44 -231 -234 -307 -291
-38 -29 -110 -72 -159 -96 -89 -43 -91 -43 -171 -38 -79 6 -81 5 -102 -22 -12
-15 -22 -35 -22 -45 0 -13 -31 -30 -117 -65 -152 -61 -349 -159 -449 -223 -44
-27 -89 -53 -102 -57 -47 -14 -101 -58 -107 -86 -5 -24 -12 -29 -35 -29 -40 0
-47 29 -24 98 23 66 92 133 210 203 106 63 166 87 459 186 138 46 286 102 330
123 44 21 197 113 340 203 143 91 264 166 268 166 5 1 -1 -12 -12 -27z m-827
-66 c-3 -14 -10 -26 -15 -26 -12 0 -11 4 3 35 14 31 21 26 12 -9z m781 -580
c-117 -659 -188 -1158 -183 -1273 2 -40 1 -72 -2 -70 -3 2 -28 14 -57 27 -39
18 -53 30 -57 49 -3 14 -10 123 -17 241 -6 118 -13 217 -15 219 -5 6 -7 0 -74
-259 -34 -129 -65 -238 -68 -242 -5 -5 -460 122 -664 185 -4 1 63 83 149 182
184 212 139 194 440 171 108 -9 198 -14 200 -12 2 1 -78 40 -177 86 l-181 83
32 33 c27 28 35 31 56 23 13 -5 57 -9 97 -9 60 0 76 3 91 20 10 11 29 20 42
20 16 0 23 6 23 20 0 11 7 20 15 20 11 0 15 12 15 50 0 45 -4 55 -41 95 -24
26 -59 51 -87 61 -26 10 -48 18 -50 20 -2 1 14 36 34 77 l38 76 19 -32 c11
-18 41 -72 67 -122 50 -96 70 -113 142 -123 47 -6 83 11 97 47 5 14 12 64 16
111 4 47 28 227 54 401 l47 315 50 62 c27 34 50 58 52 54 1 -5 -45 -278 -103
-606z m-2465 516 c0 -13 -3 -12 -15 4 -19 25 -19 40 0 24 8 -7 15 -20 15 -28z
m2030 -6 c0 -12 -108 -70 -176 -95 -44 -16 -160 -61 -259 -99 -99 -38 -220
-83 -268 -98 -80 -26 -98 -37 -200 -122 -62 -51 -130 -103 -152 -114 -63 -33
-88 -73 -110 -178 -16 -74 -11 -101 23 -126 13 -9 13 -13 -1 -30 -9 -10 -23
-28 -31 -39 -13 -18 -26 -20 -148 -20 -117 1 -139 3 -180 23 -64 31 -70 61
-32 177 24 73 36 92 69 120 72 60 254 165 356 205 55 22 132 56 171 76 39 20
146 58 238 84 144 42 439 143 625 215 64 24 75 27 75 21z m-1607 -376 c59 -24
107 -46 107 -50 0 -3 -22 -28 -50 -55 l-50 -49 -22 20 c-13 11 -76 67 -140
123 -103 90 -124 114 -166 189 -94 166 -94 166 64 12 l149 -146 108 -44z
m1907 156 c-23 -49 -59 -154 -81 -234 -22 -81 -42 -153 -44 -160 -3 -8 -29 6
-75 40 -67 50 -70 54 -70 94 0 23 -9 62 -19 86 l-19 45 44 16 c49 18 163 93
244 160 30 25 56 44 57 43 2 -2 -15 -42 -37 -90z m-2385 -47 l90 -129 150 -81
c83 -44 153 -84 157 -88 4 -3 3 -12 -1 -20 -9 -14 -78 4 -731 189 -113 32
-225 64 -250 71 l-45 12 260 88 c143 48 265 88 270 88 6 0 51 -58 100 -130z
m-4066 -245 c1 -203 -1 -244 -14 -254 -8 -7 -15 -18 -15 -25 0 -8 -8 -15 -17
-17 -13 -3 -21 6 -29 27 -6 16 -20 34 -32 40 -26 12 -24 22 29 161 l39 100 1
155 1 154 18 -50 c16 -43 19 -83 19 -291z m3353 291 c-28 -13 -70 -38 -92 -56
-39 -31 -40 -32 -87 -19 -26 7 -54 16 -61 20 -13 6 228 76 273 79 11 0 -4 -10
-33 -24z m-2948 -297 c-45 -46 -123 -133 -175 -193 l-94 -110 -18 35 -17 35
69 69 c56 56 292 242 311 245 2 1 -32 -36 -76 -81z m5337 -46 c-16 -30 -13
-53 9 -77 30 -32 27 -73 -13 -151 -34 -68 -38 -71 -64 -65 -40 9 -293 105
-293 111 1 13 360 213 368 205 2 -2 -1 -12 -7 -23z m-5710 -175 c-13 -13 -14
5 -3 54 l7 34 3 -39 c2 -21 -1 -43 -7 -49z m3733 -70 l659 -102 16 -40 c26
-67 58 -102 118 -132 49 -24 69 -27 146 -27 l88 0 -5 -56 c-3 -30 -11 -125
-17 -210 -6 -85 -12 -156 -14 -158 -2 -2 -212 51 -467 117 -254 67 -656 171
-893 232 -236 62 -434 116 -440 121 -6 5 7 75 35 188 l44 180 36 -6 c19 -3
331 -51 694 -107z m2204 1 c-10 -32 -15 -37 -53 -42 -46 -7 -66 -26 -152 -136
-83 -108 -219 -286 -341 -448 -69 -92 -120 -151 -128 -148 -23 9 -79 -37 -82
-68 -2 -17 -19 -41 -44 -64 -33 -30 -39 -40 -34 -64 4 -20 -4 -43 -31 -88 -19
-33 -37 -59 -39 -57 -5 4 84 310 118 409 l23 67 235 201 c326 279 328 282 307
340 -7 19 130 120 165 121 12 0 32 4 43 8 11 5 21 8 22 7 1 -1 -3 -18 -9 -38z
m-418 -116 c0 -2 -26 -35 -57 -75 -31 -40 -57 -73 -58 -74 -1 -2 -45 16 -97
39 -81 35 -99 47 -112 75 -9 19 -16 35 -16 36 0 1 77 2 170 2 94 0 170 -1 170
-3z m-2644 -130 c-11 -10 -13 3 -7 43 l6 40 3 -39 c2 -21 1 -41 -2 -44z m2160
-79 l26 -58 -37 -225 c-21 -123 -40 -231 -43 -238 -3 -9 -14 -2 -34 22 -16 20
-38 36 -49 36 -17 0 -18 5 -14 38 3 20 17 123 31 227 35 271 31 255 65 255 26
0 32 -7 55 -57z m322 -1 c-51 -70 -171 -222 -174 -219 -2 1 3 27 11 57 8 30
15 78 15 107 l0 52 43 5 c23 3 56 7 72 9 17 2 34 5 38 6 5 0 2 -7 -5 -17z
m-2483 -162 c81 -32 229 -67 775 -186 578 -125 700 -149 853 -164 98 -9 180
-19 182 -22 5 -4 -120 -386 -129 -395 -11 -12 -763 178 -1036 262 -836 256
-1037 317 -1180 356 -85 23 -158 44 -162 48 -4 3 30 28 76 54 110 63 206 84
386 86 l135 1 100 -40z m-3095 -96 c-7 -38 -10 -94 -7 -133 7 -70 34 -190 47
-205 5 -4 11 17 15 48 4 31 11 58 15 61 4 2 23 0 44 -6 l37 -10 -36 -42 c-30
-34 -35 -48 -31 -71 8 -39 52 -95 84 -108 l27 -10 -40 -17 c-58 -24 -100 -48
-114 -65 -11 -13 -17 -10 -43 20 -16 18 -39 34 -49 34 -18 0 -19 9 -19 128 -1
111 4 147 37 289 36 161 57 215 33 87z m4410 -58 c292 -52 533 -96 536 -98 8
-9 -28 -98 -39 -98 -7 0 -115 29 -242 64 -126 35 -356 98 -510 140 -154 43
-284 79 -290 81 -33 12 68 -5 545 -89z m-2176 -75 c3 -4 22 -9 43 -9 21 0 103
-19 183 -41 216 -62 847 -220 1255 -316 305 -71 412 -91 698 -132 185 -26 342
-50 348 -54 7 -4 -11 -73 -54 -205 -61 -189 -66 -208 -83 -376 l-18 -176 -79
-35 -79 -34 -292 73 c-160 40 -309 74 -330 74 -25 0 -47 7 -60 19 -17 15 -187
51 -811 170 -698 133 -810 157 -960 205 -93 30 -269 86 -390 124 -121 39 -388
124 -594 189 l-373 119 -14 39 c-11 35 -11 42 3 57 14 16 35 18 171 18 131 0
158 -3 174 -17 10 -9 37 -19 61 -23 23 -4 195 -55 382 -114 320 -101 427 -135
863 -272 97 -30 290 -91 429 -135 214 -67 319 -93 705 -173 441 -92 462 -95
778 -125 179 -17 345 -33 370 -36 43 -4 44 -4 10 5 -19 5 -181 37 -360 70
-352 66 -587 125 -1275 321 -335 96 -466 138 -645 209 -124 49 -304 118 -400
153 -353 129 -506 186 -540 201 -39 16 -35 19 45 35 42 8 53 7 68 -7 15 -13
48 -18 145 -23 165 -9 166 -9 757 -217 404 -142 734 -251 865 -286 52 -14 226
-48 385 -76 160 -28 387 -69 505 -90 199 -36 498 -76 505 -68 2 2 -283 75
-633 162 l-637 159 -620 232 c-614 230 -826 305 -865 305 -40 0 -18 16 78 58
61 26 105 40 118 36 12 -3 25 -1 28 5 8 13 132 15 140 2z m3786 -286 c295 -34
275 -30 278 -64 2 -28 1 -29 -28 -21 -16 5 -34 11 -39 15 -6 3 -19 1 -30 -4
-14 -8 -22 -6 -36 9 -13 14 -31 20 -62 20 -24 0 -76 8 -116 19 -39 10 -114 26
-164 36 -51 10 -93 20 -93 23 0 2 17 2 38 -1 20 -4 134 -18 252 -32z m-215
-91 c182 -20 332 -38 333 -40 8 -6 -82 -163 -116 -203 l-38 -43 -32 16 c-22
12 -58 16 -130 16 -102 0 -247 24 -332 55 -25 9 -75 22 -112 28 l-67 12 46 75
c24 41 51 85 59 98 8 12 24 22 37 22 12 0 171 -16 352 -36z m-4934 -153 c129
-59 272 -120 319 -135 47 -15 180 -58 295 -96 116 -37 417 -136 670 -218 253
-83 503 -165 555 -182 106 -34 981 -220 1038 -220 26 0 41 -6 50 -20 12 -19
23 -20 280 -20 321 -1 323 -8 15 -70 -187 -38 -206 -40 -382 -40 l-185 0 -36
33 c-34 33 -47 36 -415 116 -929 203 -1235 272 -1319 300 -50 16 -224 71 -386
121 -1220 378 -1084 332 -1091 374 -8 47 -21 61 -74 76 -25 7 -48 16 -50 20
-8 13 162 50 227 50 36 -1 74 -7 88 -15 40 -23 95 -19 127 10 15 13 31 25 34
25 4 0 112 -49 240 -109z m5629 -28 c-13 -17 -20 -41 -20 -69 0 -46 -13 -61
-120 -150 l-34 -29 23 40 c14 22 48 77 78 123 29 45 53 91 53 101 0 14 5 18
20 14 20 -5 20 -5 0 -30z m-1451 -93 c-33 -132 -35 -158 -14 -167 14 -5 14 -8
2 -22 -8 -9 -19 -29 -24 -46 -8 -24 -17 -31 -44 -35 -58 -9 -80 -90 -36 -134
29 -28 20 -66 -14 -66 -13 0 -31 -8 -42 -17 -19 -18 -19 -17 -12 37 4 31 49
163 102 299 52 135 97 251 100 258 15 39 8 -5 -18 -107z m-4954 39 c49 -49 49
-50 20 -44 -36 7 -13 -4 342 -163 144 -64 257 -120 251 -123 -5 -3 10 -14 34
-23 24 -10 255 -108 515 -217 l472 -200 483 -115 c266 -64 519 -124 563 -134
44 -10 175 -41 292 -69 117 -28 222 -51 233 -51 34 0 57 17 69 51 9 28 14 30
38 25 71 -17 540 -148 560 -156 20 -8 21 -13 12 -40 -6 -17 -18 -30 -27 -30
-10 0 -132 7 -272 15 -358 20 -350 22 -170 -41 91 -32 138 -52 115 -50 -22 3
-96 11 -164 17 -122 13 -123 13 -133 41 -12 34 -35 48 -78 48 -32 0 -86 -23
-92 -39 -1 -5 -203 38 -448 95 l-445 104 -915 323 c-746 264 -916 328 -920
344 -3 10 -14 31 -25 46 -20 27 -26 28 -299 65 -218 29 -279 40 -283 52 -2 8
-8 22 -13 31 -5 10 -5 31 1 50 11 34 4 63 -22 99 -16 22 21 101 56 120 26 14
28 13 53 -18 25 -29 32 -32 85 -32 l57 0 0 35 c0 19 1 35 3 35 1 0 25 -23 52
-51z m435 -164 c47 -26 78 -45 70 -42 -8 2 -101 33 -207 68 l-192 63 32 27 32
27 90 -48 c50 -27 128 -70 175 -95z m4286 -76 c-93 -312 -98 -354 -69 -577 16
-129 16 -132 -3 -146 -18 -14 -19 -12 -22 37 -2 28 -8 57 -13 63 -6 7 -6 21 1
38 17 46 12 88 -15 116 l-24 25 45 165 c47 174 144 473 151 466 2 -2 -21 -86
-51 -187z m277 120 c-15 -23 -29 -36 -31 -29 -3 9 44 70 55 70 2 0 -9 -19 -24
-41z m332 0 c116 -10 172 -9 325 3 102 8 187 13 189 11 8 -7 -23 -30 -223
-168 l-199 -138 -206 38 c-113 21 -212 40 -219 43 -17 6 -12 17 56 135 l57 98
40 -5 c22 -2 103 -10 180 -17z m618 -166 c-48 -55 -178 -163 -197 -163 -4 0
25 30 65 67 41 38 96 89 124 115 27 25 52 45 54 42 2 -2 -18 -30 -46 -61z
m193 -55 c-13 -53 -38 -85 -70 -90 -13 -2 -20 -10 -20 -21 1 -10 -5 -17 -17
-17 -12 0 -19 -7 -19 -18 0 -31 -197 -215 -310 -289 -96 -63 -128 -76 -383
-166 -153 -54 -282 -95 -287 -92 -5 3 -14 24 -20 45 -7 26 -20 44 -37 53 -27
15 -53 72 -53 119 0 23 6 29 38 37 20 6 94 11 164 11 144 0 171 7 186 47 8 26
18 31 83 46 41 9 89 17 107 17 19 0 46 7 60 15 15 8 74 26 132 41 60 14 131
40 165 59 67 37 188 138 250 207 22 24 41 44 42 44 1 -1 -4 -22 -11 -48z
m-6243 -113 c145 -66 196 -95 197 -107 0 -14 -43 4 -205 84 -113 57 -205 107
-205 111 0 11 -22 20 213 -88z m5736 24 c-38 -48 -69 -65 -94 -51 -15 8 -7 16
51 51 38 22 71 41 72 41 2 0 -11 -18 -29 -41z m-265 -19 c-11 -11 -352 -170
-365 -170 -5 0 -9 7 -9 16 0 21 -63 84 -84 84 -17 0 -21 17 -8 38 7 11 161 25
452 41 16 1 21 -2 14 -9z m66 -100 c0 -5 -4 -10 -10 -10 -5 0 -10 5 -10 10 0
6 5 10 10 10 6 0 10 -4 10 -10z m-5387 -55 c41 -5 47 -9 47 -31 0 -20 -5 -24
-28 -24 -34 0 -110 -48 -148 -93 -15 -18 -39 -57 -53 -87 -25 -53 -26 -62 -29
-285 -3 -176 1 -279 17 -445 15 -157 21 -308 23 -560 2 -201 0 -314 -4 -270
-16 155 -87 941 -98 1085 -10 122 -20 180 -55 310 -51 188 -75 302 -75 357 l0
39 58 -7 c31 -3 112 -14 179 -23 67 -10 119 -13 117 -9 -3 5 7 6 23 3 24 -6
22 -3 -14 20 -45 28 -55 40 -25 32 9 -3 38 -8 65 -12z m5287 0 c-28 -16 -70
-21 -54 -6 9 9 38 18 64 19 8 1 4 -5 -10 -13z m-5188 -79 c14 -21 3 -40 -27
-46 -68 -15 -135 -61 -135 -94 -1 -26 -51 -118 -67 -124 -23 -7 -16 63 8 84
26 24 59 87 59 114 0 12 7 20 16 20 9 0 34 16 56 35 39 36 71 40 90 11z m4908
9 c-43 -17 -50 -17 -50 -6 0 10 28 18 65 19 12 0 5 -5 -15 -13z m-314 -132
c-11 -29 -17 -6 -9 33 7 36 8 37 11 11 2 -16 1 -36 -2 -44z m1622 -6 c8 -10 6
-16 -9 -25 -17 -11 -19 -9 -19 13 0 27 12 32 28 12z m71 -590 c300 -1865 330
-2040 355 -2108 34 -94 53 -129 94 -171 49 -52 58 -48 21 10 -37 58 -55 121
-69 237 -6 50 -22 169 -36 265 -13 96 -27 191 -29 210 -5 32 -5 33 6 10 6 -14
39 -128 74 -255 34 -126 73 -251 85 -277 l23 -46 -21 -27 c-44 -55 -22 -134
44 -161 45 -19 44 -19 44 26 0 30 4 40 16 40 11 0 14 -6 9 -21 -6 -19 -4 -21
19 -17 29 6 34 -3 12 -22 -8 -6 -16 -21 -18 -33 -3 -21 -7 -22 -88 -19 -139 5
-290 53 -290 92 0 14 7 20 22 20 53 0 79 80 40 124 -10 12 -24 50 -31 84 -7
35 -34 142 -61 237 -121 427 -156 589 -194 920 -20 171 -54 546 -76 835 -22
289 -42 535 -44 548 -2 12 0 22 3 22 3 0 44 -235 90 -523z m-2901 428 c4 -4
-11 -5 -32 -3 -22 2 -41 8 -43 15 -3 8 6 9 32 3 20 -5 40 -11 43 -15z m941
-121 c21 -44 31 -78 25 -83 -5 -5 -54 -38 -109 -75 -65 -43 -103 -62 -109 -56
-6 6 -20 10 -32 10 -13 0 -25 4 -28 8 -2 4 2 39 10 77 9 39 16 88 17 110 l2
40 85 22 c47 11 90 21 95 22 6 0 25 -33 44 -75z m591 26 c-8 -5 -19 -10 -25
-10 -5 0 -3 5 5 10 8 5 20 10 25 10 6 0 3 -5 -5 -10z m-996 -55 c-4 -9 16 -45
51 -91 77 -102 74 -113 -31 -134 l-81 -16 -20 30 c-11 17 -25 48 -32 68 -11
34 -10 40 8 60 20 21 25 42 22 81 -2 14 6 17 43 17 36 0 44 -3 40 -15z m592
-22 c-8 -8 -36 10 -36 25 0 13 3 12 20 -3 11 -10 18 -20 16 -22z m-1988 -137
c107 -22 149 -36 106 -36 -25 1 -254 58 -234 58 8 1 66 -9 128 -22z m332 -56
c-20 -13 -40 -13 -40 0 0 6 12 10 28 10 21 0 24 -2 12 -10z m1410 -25 c-23
-19 -45 -35 -49 -35 -4 0 -18 11 -30 24 l-23 25 38 6 c22 4 44 8 49 10 6 2 21
4 33 4 21 1 19 -3 -18 -34z m-612 -181 c-2 -1 -128 12 -280 29 -250 27 -278
32 -278 49 0 10 -7 36 -16 58 -31 78 -24 77 291 -33 157 -55 284 -101 283
-103z m817 148 c-6 -5 -53 -25 -105 -45 -52 -19 -103 -39 -113 -42 -16 -7 -16
-5 -7 17 10 20 28 29 108 50 106 28 131 33 117 20z m28 -81 c-16 -27 -40 -42
-113 -69 -8 -3 16 20 55 51 38 31 71 55 72 53 2 -2 -4 -17 -14 -35z m-570 -52
c53 -12 97 -26 97 -29 0 -4 -48 -17 -107 -29 l-106 -23 -18 23 c-15 21 -16 26
-3 40 8 8 14 24 14 33 0 10 5 16 13 13 6 -2 56 -15 110 -28z m-777 -17 c-9 -8
-56 12 -56 24 0 10 6 9 29 -4 16 -9 28 -18 27 -20z m87 -48 c43 -14 77 -28 75
-30 -11 -10 -135 19 -153 37 -25 25 -16 24 78 -7z m98 -136 c-24 -43 -53 -37
-79 17 -12 25 -22 47 -22 49 0 2 26 -6 58 -17 l59 -21 -16 -28z m-296 42 c10
-11 26 -20 35 -20 14 0 18 -13 24 -61 10 -99 8 -159 -6 -159 -7 0 -24 -9 -38
-20 -14 -11 -28 -20 -31 -20 -4 0 -10 44 -13 98 -4 53 -9 121 -13 150 -6 58 8
69 42 32z m804 -24 c-10 -9 -79 -14 -79 -5 0 5 19 9 42 9 23 0 39 -2 37 -4z
m-847 -676 c11 -36 38 -91 60 -122 21 -31 38 -66 38 -78 0 -14 5 -20 16 -18
11 2 21 -9 30 -34 17 -49 7 -49 -70 1 -34 21 -85 46 -114 56 l-54 17 21 22
c19 21 21 35 22 187 l1 164 14 -65 c8 -36 24 -94 36 -130z m155 -90 c48 -48
52 -50 107 -50 55 0 56 -1 56 -28 0 -41 -23 -67 -77 -87 -26 -10 -54 -22 -60
-28 -10 -7 -13 2 -13 39 0 30 -7 61 -18 79 -17 28 -54 125 -48 125 2 0 26 -22
53 -50z m-3322 -908 c7 -251 7 -251 -21 -372 -16 -69 -32 -120 -39 -120 -6 0
-51 -64 -100 -142 -49 -79 -97 -154 -107 -167 -20 -27 -23 -62 -7 -78 8 -8 6
-18 -7 -38 -17 -23 -24 -26 -71 -22 -65 4 -93 27 -93 74 0 31 2 33 34 33 18 0
45 9 59 20 14 11 31 20 39 20 20 0 94 80 103 110 4 14 29 81 55 150 67 172 80
269 80 594 l0 253 34 -31 33 -32 8 -252z m-192 -1061 c-29 -38 -90 -41 -123
-6 l-24 26 40 -7 c31 -4 51 -1 80 14 45 23 56 13 27 -27z m-168 30 c3 -5 1
-12 -5 -16 -5 -3 -10 1 -10 9 0 18 6 21 15 7z m4279 -548 c9 -133 16 -284 17
-335 l1 -93 19 85 c14 65 18 133 20 285 l1 200 15 -125 c7 -69 17 -215 22
-325 10 -251 27 -330 77 -351 47 -20 64 -18 96 13 l27 26 11 -27 c5 -15 10
-34 10 -43 0 -14 -2 -14 -18 0 -18 17 -57 24 -50 10 36 -72 49 -112 44 -138
-11 -53 -13 -54 -130 -48 l-109 6 6 120 c6 110 4 122 -14 149 -13 17 -29 28
-45 28 l-24 0 0 407 c0 223 2 404 4 402 2 -2 11 -113 20 -246z m340 -729 c5
-14 4 -15 -9 -4 -17 14 -19 20 -6 20 5 0 12 -7 15 -16z m26 -291 c0 -3 -12
-22 -26 -41 -38 -49 -78 -62 -186 -62 -100 0 -155 17 -192 59 l-19 21 35 0
c22 0 41 -7 53 -20 15 -17 30 -20 99 -20 72 1 88 5 146 35 64 33 90 42 90 28z"/>
<path d="M1157 5959 c7 -7 15 -10 18 -7 3 3 -2 9 -12 12 -14 6 -15 5 -6 -5z"/>
<path d="M3278 5213 c7 -3 16 -2 19 1 4 3 -2 6 -13 5 -11 0 -14 -3 -6 -6z"/>
<path d="M474 7248 l-19 -23 23 19 c21 18 27 26 19 26 -2 0 -12 -10 -23 -22z"/>
</g>
</svg>
