<?xml version="1.0" standalone="no"?>
<!DOCTYPE svg PUBLIC "-//W3C//DTD SVG 20010904//EN"
 "http://www.w3.org/TR/2001/REC-SVG-20010904/DTD/svg10.dtd">
<svg version="1.0" xmlns="http://www.w3.org/2000/svg"
 width="1280.000000pt" height="1280.000000pt" viewBox="0 0 1280.000000 1280.000000"
 preserveAspectRatio="xMidYMid meet">
<metadata>
Created by potrace 1.15, written by Peter Selinger 2001-2017
</metadata>
<g transform="translate(0.000000,1280.000000) scale(0.100000,-0.100000)"
fill="#607d8b" stroke="none">
<path d="M2860 9676 l0 -174 38 -30 37 -29 270 -6 c353 -7 489 -29 642 -102
176 -83 253 -221 305 -547 l23 -143 0 -2390 c0 -1923 -3 -2412 -13 -2505 -35
-299 -93 -466 -193 -553 -144 -126 -335 -171 -782 -183 l-256 -7 -36 -29 -35
-30 2 -176 3 -177 2128 -3 2127 -2 0 187 c0 104 -3 198 -6 211 -6 22 -8 22
-193 22 -239 0 -508 15 -620 35 -373 65 -531 241 -597 666 -16 103 -18 223
-22 1262 l-3 1147 993 0 c600 0 1036 -4 1103 -10 464 -44 661 -277 682 -812
l6 -136 31 -17 c26 -14 58 -16 206 -13 l175 3 3 1298 2 1297 -193 0 c-172 0
-196 -2 -209 -17 -12 -14 -17 -55 -22 -168 -9 -227 -42 -370 -118 -517 -69
-133 -185 -230 -328 -272 -158 -48 -174 -48 -1282 -53 l-1048 -4 0 1256 0
1256 1358 -4 c1329 -3 1360 -3 1488 -24 214 -35 302 -67 440 -158 227 -151
397 -435 524 -872 l33 -113 178 0 c147 0 185 3 214 17 23 11 35 24 35 37 1 48
-92 1732 -95 1744 -4 9 -712 12 -3500 12 l-3495 0 0 -174z"/>
</g>
</svg>
