<svg width="452" height="116" viewBox="0 0 452 116" fill="none" xmlns="http://www.w3.org/2000/svg">
<g clip-path="url(#clip0_58_368)">
<path d="M232.768 67.478V44.3399H242.189C244.657 44.3399 246.816 44.8357 248.667 45.8274C250.54 46.7969 251.995 48.1522 253.031 49.8931C254.066 51.6339 254.584 53.6392 254.584 55.909C254.584 58.1787 254.066 60.184 253.031 61.9249C251.995 63.6657 250.54 65.032 248.667 66.0236C246.816 66.9932 244.657 67.478 242.189 67.478H232.768ZM235.214 65.3625H242.057C244.106 65.3625 245.88 64.9659 247.378 64.1726C248.899 63.3572 250.078 62.2444 250.915 60.8341C251.752 59.4017 252.171 57.76 252.171 55.909C252.171 54.0359 251.752 52.3942 250.915 50.9838C250.078 49.5735 248.899 48.4717 247.378 47.6784C245.88 46.8631 244.106 46.4554 242.057 46.4554H235.214V65.3625ZM263.052 67.478V44.3399H265.498V67.478H263.052ZM282.381 67.6764C280.662 67.6764 279.009 67.4009 277.422 66.85C275.858 66.277 274.646 65.5499 273.786 64.6684L274.745 62.7843C275.56 63.5776 276.651 64.2497 278.017 64.8006C279.406 65.3295 280.86 65.5939 282.381 65.5939C283.835 65.5939 285.014 65.4176 285.917 65.0651C286.843 64.6904 287.515 64.1946 287.934 63.5776C288.375 62.9606 288.595 62.2775 288.595 61.5282C288.595 60.6247 288.33 59.8975 287.802 59.3466C287.295 58.7957 286.623 58.366 285.785 58.0575C284.948 57.727 284.022 57.4405 283.009 57.1981C281.995 56.9557 280.981 56.7023 279.968 56.4378C278.954 56.1514 278.017 55.7767 277.158 55.314C276.321 54.8512 275.638 54.2452 275.109 53.496C274.602 52.7247 274.348 51.7221 274.348 50.488C274.348 49.3421 274.646 48.2954 275.241 47.3479C275.858 46.3783 276.794 45.607 278.051 45.034C279.307 44.4391 280.915 44.1416 282.876 44.1416C284.177 44.1416 285.466 44.3289 286.744 44.7035C288.022 45.0561 289.124 45.5519 290.049 46.1909L289.223 48.1412C288.231 47.4801 287.174 46.9953 286.05 46.6868C284.948 46.3783 283.879 46.224 282.843 46.224C281.455 46.224 280.309 46.4113 279.406 46.7859C278.502 47.1605 277.83 47.6674 277.389 48.3064C276.971 48.9235 276.761 49.6286 276.761 50.4219C276.761 51.3254 277.015 52.0526 277.522 52.6035C278.051 53.1544 278.734 53.5841 279.571 53.8926C280.43 54.2011 281.367 54.4766 282.381 54.719C283.394 54.9614 284.397 55.2258 285.389 55.5123C286.402 55.7988 287.328 56.1734 288.165 56.6362C289.025 57.0769 289.708 57.6719 290.215 58.4211C290.743 59.1703 291.008 60.151 291.008 61.363C291.008 62.4868 290.699 63.5335 290.082 64.5031C289.465 65.4507 288.518 66.222 287.24 66.8169C285.984 67.3899 284.364 67.6764 282.381 67.6764ZM309.361 67.6764C307.62 67.6764 306.011 67.3899 304.535 66.8169C303.058 66.222 301.78 65.3956 300.701 64.3379C299.621 63.2801 298.772 62.0351 298.155 60.6027C297.56 59.1703 297.263 57.6058 297.263 55.909C297.263 54.2122 297.56 52.6476 298.155 51.2152C298.772 49.7829 299.621 48.5378 300.701 47.4801C301.802 46.4223 303.092 45.607 304.568 45.034C306.044 44.4391 307.653 44.1416 309.394 44.1416C311.069 44.1416 312.644 44.428 314.121 45.001C315.597 45.5519 316.842 46.3893 317.856 47.5131L316.302 49.0667C315.355 48.0971 314.308 47.4029 313.162 46.9843C312.016 46.5435 310.782 46.3232 309.46 46.3232C308.072 46.3232 306.783 46.5656 305.593 47.0504C304.403 47.5131 303.367 48.1852 302.486 49.0667C301.604 49.9261 300.91 50.9398 300.403 52.1077C299.918 53.2536 299.676 54.5207 299.676 55.909C299.676 57.2973 299.918 58.5754 300.403 59.7433C300.91 60.8892 301.604 61.9028 302.486 62.7843C303.367 63.6437 304.403 64.3158 305.593 64.8006C306.783 65.2634 308.072 65.4948 309.46 65.4948C310.782 65.4948 312.016 65.2744 313.162 64.8337C314.308 64.3929 315.355 63.6878 316.302 62.7182L317.856 64.2717C316.842 65.3956 315.597 66.244 314.121 66.8169C312.644 67.3899 311.058 67.6764 309.361 67.6764ZM335.676 67.6764C333.935 67.6764 332.315 67.3899 330.817 66.8169C329.34 66.222 328.051 65.3956 326.949 64.3379C325.869 63.2581 325.021 62.013 324.404 60.6027C323.809 59.1703 323.511 57.6058 323.511 55.909C323.511 54.2122 323.809 52.6586 324.404 51.2483C325.021 49.8159 325.869 48.5709 326.949 47.5131C328.051 46.4333 329.34 45.607 330.817 45.034C332.293 44.4391 333.913 44.1416 335.676 44.1416C337.416 44.1416 339.025 44.4391 340.501 45.034C341.978 45.607 343.256 46.4223 344.336 47.4801C345.438 48.5378 346.286 49.7829 346.881 51.2152C347.498 52.6476 347.807 54.2122 347.807 55.909C347.807 57.6058 347.498 59.1703 346.881 60.6027C346.286 62.0351 345.438 63.2801 344.336 64.3379C343.256 65.3956 341.978 66.222 340.501 66.8169C339.025 67.3899 337.416 67.6764 335.676 67.6764ZM335.676 65.4948C337.064 65.4948 338.342 65.2634 339.51 64.8006C340.7 64.3158 341.725 63.6437 342.584 62.7843C343.465 61.9028 344.149 60.8892 344.633 59.7433C345.118 58.5754 345.36 57.2973 345.36 55.909C345.36 54.5207 345.118 53.2536 344.633 52.1077C344.149 50.9398 343.465 49.9261 342.584 49.0667C341.725 48.1852 340.7 47.5131 339.51 47.0504C338.342 46.5656 337.064 46.3232 335.676 46.3232C334.287 46.3232 332.998 46.5656 331.808 47.0504C330.618 47.5131 329.582 48.1852 328.701 49.0667C327.842 49.9261 327.159 50.9398 326.652 52.1077C326.167 53.2536 325.924 54.5207 325.924 55.909C325.924 57.2752 326.167 58.5423 326.652 59.7102C327.159 60.8782 327.842 61.9028 328.701 62.7843C329.582 63.6437 330.618 64.3158 331.808 64.8006C332.998 65.2634 334.287 65.4948 335.676 65.4948ZM365.585 67.6764C362.633 67.6764 360.308 66.828 358.611 65.1312C356.914 63.4344 356.066 60.9222 356.066 57.5947V44.3399H358.512V57.4956C358.512 60.2281 359.129 62.2444 360.363 63.5445C361.597 64.8447 363.338 65.4948 365.585 65.4948C367.855 65.4948 369.607 64.8447 370.841 63.5445C372.075 62.2444 372.692 60.2281 372.692 57.4956V44.3399H375.072V57.5947C375.072 60.9222 374.224 63.4344 372.527 65.1312C370.852 66.828 368.538 67.6764 365.585 67.6764ZM385.418 67.478V44.3399H387.434L403.399 64.437H402.342V44.3399H404.755V67.478H402.738L386.806 47.3809H387.864V67.478H385.418ZM419.777 67.478V46.4554H411.646V44.3399H430.355V46.4554H422.223V67.478H419.777ZM234.95 95.5454H247.18V97.6609H234.95V95.5454ZM235.214 107.478H232.768V84.3399H248.634V86.4554H235.214V107.478ZM265.982 107.676C263.029 107.676 260.704 106.828 259.007 105.131C257.31 103.434 256.462 100.922 256.462 97.5947V84.3399H258.908V97.4956C258.908 100.228 259.525 102.244 260.759 103.545C261.993 104.845 263.734 105.495 265.982 105.495C268.251 105.495 270.003 104.845 271.237 103.545C272.471 102.244 273.088 100.228 273.088 97.4956V84.3399H275.468V97.5947C275.468 100.922 274.62 103.434 272.923 105.131C271.248 106.828 268.935 107.676 265.982 107.676ZM285.814 107.478V84.3399H294.474C296.436 84.3399 298.121 84.6594 299.532 85.2985C300.942 85.9155 302.022 86.819 302.771 88.0089C303.542 89.1769 303.928 90.5982 303.928 92.273C303.928 93.9037 303.542 95.314 302.771 96.5039C302.022 97.6719 300.942 98.5754 299.532 99.2144C298.121 99.8314 296.436 100.14 294.474 100.14H287.169L288.26 99.0161V107.478H285.814ZM301.614 107.478L295.664 99.0822H298.309L304.292 107.478H301.614ZM288.26 99.2144L287.169 98.0575H294.408C296.722 98.0575 298.474 97.5507 299.664 96.537C300.876 95.5233 301.482 94.102 301.482 92.273C301.482 90.4219 300.876 88.9896 299.664 87.9759C298.474 86.9622 296.722 86.4554 294.408 86.4554H287.169L288.26 85.2985V99.2144ZM312.676 107.478V84.3399H314.692L330.658 104.437H329.6V84.3399H332.013V107.478H329.997L314.064 87.3809H315.122V107.478H312.676ZM342.54 107.478V84.3399H344.986V107.478H342.54ZM359.985 107.478V86.4554H351.853V84.3399H370.562V86.4554H362.431V107.478H359.985ZM386.314 107.676C383.361 107.676 381.037 106.828 379.34 105.131C377.643 103.434 376.795 100.922 376.795 97.5947V84.3399H379.241V97.4956C379.241 100.228 379.858 102.244 381.092 103.545C382.326 104.845 384.067 105.495 386.314 105.495C388.584 105.495 390.336 104.845 391.57 103.545C392.804 102.244 393.421 100.228 393.421 97.4956V84.3399H395.801V97.5947C395.801 100.922 394.952 103.434 393.256 105.131C391.581 106.828 389.267 107.676 386.314 107.676ZM406.147 107.478V84.3399H414.807C416.768 84.3399 418.454 84.6594 419.864 85.2985C421.275 85.9155 422.354 86.819 423.104 88.0089C423.875 89.1769 424.26 90.5982 424.26 92.273C424.26 93.9037 423.875 95.314 423.104 96.5039C422.354 97.6719 421.275 98.5754 419.864 99.2144C418.454 99.8314 416.768 100.14 414.807 100.14H407.502L408.593 99.0161V107.478H406.147ZM421.947 107.478L415.997 99.0822H418.641L424.624 107.478H421.947ZM408.593 99.2144L407.502 98.0575H414.741C417.055 98.0575 418.806 97.5507 419.996 96.537C421.208 95.5233 421.814 94.102 421.814 92.273C421.814 90.4219 421.208 88.9896 419.996 87.9759C418.806 86.9622 417.055 86.4554 414.741 86.4554H407.502L408.593 85.2985V99.2144ZM435.19 94.6859H447.42V96.7684H435.19V94.6859ZM435.455 105.363H449.371V107.478H433.009V84.3399H448.875V86.4554H435.455V105.363Z" fill="#5D85A5"/>
<path d="M229.859 21V19.8761L236.272 13.5958C236.86 13.0229 237.3 12.5234 237.594 12.0973C237.888 11.6566 238.086 11.2453 238.189 10.8633C238.292 10.4813 238.343 10.1214 238.343 9.78354C238.343 8.88739 238.035 8.18223 237.418 7.66805C236.816 7.15387 235.919 6.89678 234.729 6.89678C233.819 6.89678 233.011 7.03634 232.305 7.31547C231.615 7.5946 231.02 8.02798 230.521 8.61561L229.397 7.64602C229.999 6.94085 230.77 6.39729 231.71 6.01533C232.651 5.63337 233.701 5.44238 234.862 5.44238C235.905 5.44238 236.808 5.61133 237.572 5.94922C238.336 6.27242 238.924 6.74987 239.335 7.38158C239.761 8.01329 239.974 8.75518 239.974 9.60725C239.974 10.1067 239.901 10.5989 239.754 11.0837C239.622 11.5685 239.372 12.0826 239.004 12.6262C238.652 13.1551 238.13 13.7574 237.44 14.4332L231.556 20.2067L231.115 19.5897H240.679V21H229.859ZM248.885 21V6.23569L249.59 6.98493H245.249V5.5746H250.471V21H248.885ZM263.833 21.1322C262.643 21.1322 261.585 20.8237 260.659 20.2067C259.734 19.575 259.007 18.6788 258.478 17.5183C257.949 16.343 257.684 14.9327 257.684 13.2873C257.684 11.6419 257.949 10.2389 258.478 9.07838C259.007 7.90311 259.734 7.00696 260.659 6.38995C261.585 5.75824 262.643 5.44238 263.833 5.44238C265.022 5.44238 266.08 5.75824 267.006 6.38995C267.931 7.00696 268.658 7.90311 269.187 9.07838C269.731 10.2389 270.003 11.6419 270.003 13.2873C270.003 14.9327 269.731 16.343 269.187 17.5183C268.658 18.6788 267.931 19.575 267.006 20.2067C266.08 20.8237 265.022 21.1322 263.833 21.1322ZM263.833 19.6778C264.743 19.6778 265.537 19.4354 266.212 18.9506C266.888 18.4511 267.417 17.7313 267.799 16.7911C268.181 15.8362 268.372 14.6682 268.372 13.2873C268.372 11.9063 268.181 10.7458 267.799 9.80557C267.417 8.85067 266.888 8.13081 266.212 7.64602C265.537 7.14653 264.743 6.89678 263.833 6.89678C262.951 6.89678 262.165 7.14653 261.475 7.64602C260.784 8.13081 260.248 8.85067 259.866 9.80557C259.484 10.7458 259.293 11.9063 259.293 13.2873C259.293 14.6682 259.484 15.8362 259.866 16.7911C260.248 17.7313 260.784 18.4511 261.475 18.9506C262.165 19.4354 262.951 19.6778 263.833 19.6778Z" fill="#5D85A5"/>
<path opacity="0.4" d="M229 34.4319H449.363" stroke="#FFA62B" stroke-width="2.75454"/>
<path fill-rule="evenodd" clip-rule="evenodd" d="M119.568 5H81.5328H21.6494H19.6632V6.98618V25.7556H1.98618H0V27.7418V94.0803V96.0683L1.98798 96.0665L3.97237 96.0647V92.0923V91.8955V29.728H19.6632V53.8601V73.1261V75.1123H21.6494H172.103V71.1399H23.6356V55.8463H51.5911H60.082V51.8739H51.5911H23.6356V27.7418V8.97237H79.5466L79.5466 51.576L79.5466 51.8739L79.5466 55.8463H81.5328H83.519V51.8739V51.576V8.97237H119.568V5ZM141.615 55.8463H102.984V51.8739H139.629V9.27029V8.97237V5H141.615H201.697H203.683V6.98618V25.6563H221.36H223.346V27.6425V93.8817V95.8661L221.362 95.8679L194.804 95.8919L195.738 120H190.574L186.651 95.8993L36.7966 96.035L32.8713 119.96H27.7073L28.6415 96.0424L28.601 96.0424V92.07L219.374 91.8973V29.6287H203.683V53.8601V73.1261V75.1123H201.697H199.711L199.711 71.1399L199.711 70.6433L199.711 55.8463H141.615ZM143.601 8.97237V51.8739H199.711V27.6425V8.97237H143.601ZM51.3428 32.4093C52.7688 32.4093 53.9249 31.2533 53.9249 29.8273C53.9249 28.4013 52.7688 27.2452 51.3428 27.2452C49.9168 27.2452 48.7608 28.4013 48.7608 29.8273C48.7608 31.2533 49.9168 32.4093 51.3428 32.4093ZM114.305 29.8273C114.305 31.2533 113.149 32.4093 111.723 32.4093C110.297 32.4093 109.141 31.2533 109.141 29.8273C109.141 28.4013 110.297 27.2452 111.723 27.2452C113.149 27.2452 114.305 28.4013 114.305 29.8273ZM172.103 32.4093C173.529 32.4093 174.685 31.2533 174.685 29.8273C174.685 28.4013 173.529 27.2452 172.103 27.2452C170.677 27.2452 169.521 28.4013 169.521 29.8273C169.521 31.2533 170.677 32.4093 172.103 32.4093Z" fill="#0680E2"/>
</g>
<defs>
<clipPath id="clip0_58_368">
<rect width="452" height="116" fill="white"/>
</clipPath>
</defs>
</svg>
