<svg width="225" height="116" viewBox="0 0 225 116" fill="none" xmlns="http://www.w3.org/2000/svg">
<g clip-path="url(#clip0_98_792)">
<path d="M5.76807 67.478V44.3399H15.1891C17.6571 44.3399 19.8161 44.8357 21.6671 45.8274C23.5401 46.7969 24.9951 48.1522 26.0311 49.8931C27.0661 51.6339 27.5841 53.6392 27.5841 55.909C27.5841 58.1787 27.0661 60.184 26.0311 61.9249C24.9951 63.6657 23.5401 65.032 21.6671 66.0236C19.8161 66.9932 17.6571 67.478 15.1891 67.478H5.76807ZM8.21407 65.3625H15.0571C17.1061 65.3625 18.8801 64.9659 20.3781 64.1726C21.8991 63.3572 23.0781 62.2444 23.9151 60.8341C24.7521 59.4017 25.1711 57.76 25.1711 55.909C25.1711 54.0359 24.7521 52.3942 23.9151 50.9838C23.0781 49.5735 21.8991 48.4717 20.3781 47.6784C18.8801 46.8631 17.1061 46.4554 15.0571 46.4554H8.21407V65.3625ZM36.0521 67.478V44.3399H38.498V67.478H36.0521ZM55.3811 67.6764C53.6621 67.6764 52.0091 67.4009 50.4221 66.85C48.8581 66.277 47.6461 65.5499 46.7861 64.6684L47.7451 62.7843C48.5601 63.5776 49.6511 64.2497 51.0171 64.8006C52.4061 65.3295 53.8601 65.5939 55.3811 65.5939C56.8351 65.5939 58.0141 65.4176 58.9171 65.0651C59.8431 64.6904 60.5151 64.1946 60.9341 63.5776C61.3751 62.9606 61.5951 62.2775 61.5951 61.5282C61.5951 60.6247 61.3301 59.8975 60.8021 59.3466C60.2951 58.7957 59.6231 58.366 58.7851 58.0575C57.9481 57.727 57.0221 57.4405 56.0091 57.1981C54.9951 56.9557 53.981 56.7023 52.968 56.4378C51.954 56.1514 51.0171 55.7767 50.1581 55.314C49.321 54.8512 48.6381 54.2452 48.1091 53.496C47.6021 52.7247 47.3481 51.7221 47.3481 50.488C47.3481 49.3421 47.6461 48.2954 48.2411 47.3479C48.8581 46.3783 49.7941 45.607 51.0511 45.034C52.3071 44.4391 53.9151 44.1416 55.8761 44.1416C57.1771 44.1416 58.466 44.3289 59.744 44.7035C61.022 45.0561 62.1241 45.5519 63.0491 46.1909L62.2231 48.1412C61.2311 47.4801 60.174 46.9953 59.05 46.6868C57.948 46.3783 56.879 46.224 55.843 46.224C54.455 46.224 53.3091 46.4113 52.4061 46.7859C51.5021 47.1605 50.8301 47.6674 50.3891 48.3064C49.9711 48.9235 49.761 49.6286 49.761 50.4219C49.761 51.3254 50.0151 52.0526 50.5221 52.6035C51.0511 53.1544 51.7341 53.5841 52.5711 53.8926C53.4301 54.2011 54.3671 54.4766 55.3811 54.719C56.3941 54.9614 57.3971 55.2258 58.3891 55.5123C59.4021 55.7988 60.3281 56.1734 61.1651 56.6362C62.0251 57.0769 62.7081 57.6719 63.2151 58.4211C63.7431 59.1703 64.0081 60.151 64.0081 61.363C64.0081 62.4868 63.6991 63.5335 63.0821 64.5031C62.4651 65.4507 61.5181 66.222 60.2401 66.8169C58.9841 67.3899 57.3641 67.6764 55.3811 67.6764ZM82.3611 67.6764C80.6201 67.6764 79.0111 67.3899 77.5351 66.8169C76.0581 66.222 74.7801 65.3956 73.701 64.3379C72.621 63.2801 71.7721 62.0351 71.1551 60.6027C70.5601 59.1703 70.2631 57.6058 70.2631 55.909C70.2631 54.2122 70.5601 52.6476 71.1551 51.2152C71.7721 49.7829 72.621 48.5378 73.701 47.4801C74.802 46.4223 76.0921 45.607 77.5681 45.034C79.0441 44.4391 80.6531 44.1416 82.3941 44.1416C84.0691 44.1416 85.6441 44.428 87.1211 45.001C88.5971 45.5519 89.842 46.3893 90.856 47.5131L89.3021 49.0667C88.3551 48.0971 87.3081 47.4029 86.162 46.9843C85.016 46.5435 83.7821 46.3232 82.4601 46.3232C81.0721 46.3232 79.7831 46.5656 78.593 47.0504C77.403 47.5131 76.3671 48.1852 75.4861 49.0667C74.604 49.9261 73.9101 50.9398 73.4031 52.1077C72.9181 53.2536 72.6761 54.5207 72.6761 55.909C72.6761 57.2973 72.9181 58.5754 73.4031 59.7433C73.9101 60.8892 74.604 61.9028 75.4861 62.7843C76.3671 63.6437 77.403 64.3158 78.593 64.8006C79.7831 65.2634 81.0721 65.4948 82.4601 65.4948C83.7821 65.4948 85.016 65.2744 86.162 64.8337C87.3081 64.3929 88.3551 63.6878 89.3021 62.7182L90.856 64.2717C89.842 65.3956 88.5971 66.244 87.1211 66.8169C85.6441 67.3899 84.0581 67.6764 82.3611 67.6764ZM108.676 67.6764C106.935 67.6764 105.315 67.3899 103.817 66.8169C102.34 66.222 101.051 65.3956 99.9491 64.3379C98.8691 63.2581 98.021 62.013 97.4041 60.6027C96.8091 59.1703 96.511 57.6058 96.511 55.909C96.511 54.2122 96.8091 52.6586 97.4041 51.2483C98.021 49.8159 98.8691 48.5709 99.9491 47.5131C101.051 46.4333 102.34 45.607 103.817 45.034C105.293 44.4391 106.913 44.1416 108.676 44.1416C110.416 44.1416 112.025 44.4391 113.501 45.034C114.978 45.607 116.256 46.4223 117.336 47.4801C118.438 48.5378 119.286 49.7829 119.881 51.2152C120.498 52.6476 120.807 54.2122 120.807 55.909C120.807 57.6058 120.498 59.1703 119.881 60.6027C119.286 62.0351 118.438 63.2801 117.336 64.3379C116.256 65.3956 114.978 66.222 113.501 66.8169C112.025 67.3899 110.416 67.6764 108.676 67.6764ZM108.676 65.4948C110.064 65.4948 111.342 65.2634 112.51 64.8006C113.7 64.3158 114.725 63.6437 115.584 62.7843C116.465 61.9028 117.149 60.8892 117.633 59.7433C118.118 58.5754 118.36 57.2973 118.36 55.909C118.36 54.5207 118.118 53.2536 117.633 52.1077C117.149 50.9398 116.465 49.9261 115.584 49.0667C114.725 48.1852 113.7 47.5131 112.51 47.0504C111.342 46.5656 110.064 46.3232 108.676 46.3232C107.287 46.3232 105.998 46.5656 104.808 47.0504C103.618 47.5131 102.582 48.1852 101.701 49.0667C100.842 49.9261 100.159 50.9398 99.6521 52.1077C99.1671 53.2536 98.9241 54.5207 98.9241 55.909C98.9241 57.2752 99.1671 58.5423 99.6521 59.7102C100.159 60.8782 100.842 61.9028 101.701 62.7843C102.582 63.6437 103.618 64.3158 104.808 64.8006C105.998 65.2634 107.287 65.4948 108.676 65.4948ZM138.585 67.6764C135.633 67.6764 133.308 66.828 131.611 65.1312C129.914 63.4344 129.066 60.9222 129.066 57.5947V44.3399H131.512V57.4956C131.512 60.2281 132.129 62.2444 133.363 63.5445C134.597 64.8447 136.338 65.4948 138.585 65.4948C140.855 65.4948 142.607 64.8447 143.841 63.5445C145.075 62.2444 145.692 60.2281 145.692 57.4956V44.3399H148.072V57.5947C148.072 60.9222 147.224 63.4344 145.527 65.1312C143.852 66.828 141.538 67.6764 138.585 67.6764ZM158.418 67.478V44.3399H160.434L176.399 64.437H175.342V44.3399H177.755V67.478H175.738L159.806 47.3809H160.864V67.478H158.418ZM192.777 67.478V46.4554H184.646V44.3399H203.355V46.4554H195.223V67.478H192.777ZM7.95006 95.5454H20.1801V97.6609H7.95006V95.5454ZM8.21407 107.478H5.76807V84.3399H21.6341V86.4554H8.21407V107.478ZM38.9821 107.676C36.0291 107.676 33.7041 106.828 32.007 105.131C30.31 103.434 29.4621 100.922 29.4621 97.5947V84.3399H31.9081V97.4956C31.9081 100.228 32.5251 102.244 33.7591 103.545C34.9931 104.845 36.7341 105.495 38.9821 105.495C41.2511 105.495 43.0031 104.845 44.2371 103.545C45.4711 102.244 46.0881 100.228 46.0881 97.4956V84.3399H48.468V97.5947C48.468 100.922 47.6201 103.434 45.9231 105.131C44.2481 106.828 41.9351 107.676 38.9821 107.676ZM58.8141 107.478V84.3399H67.4741C69.4361 84.3399 71.1211 84.6594 72.5321 85.2985C73.9421 85.9155 75.0221 86.819 75.7711 88.0089C76.5421 89.1769 76.9281 90.5982 76.9281 92.273C76.9281 93.9037 76.5421 95.314 75.7711 96.5039C75.0221 97.6719 73.9421 98.5754 72.5321 99.2144C71.1211 99.8314 69.4361 100.14 67.4741 100.14H60.1691L61.2601 99.0161V107.478H58.8141ZM74.6141 107.478L68.6641 99.0822H71.3091L77.2921 107.478H74.6141ZM61.2601 99.2144L60.1691 98.0575H67.4081C69.722 98.0575 71.4741 97.5507 72.6641 96.537C73.8761 95.5233 74.4821 94.102 74.4821 92.273C74.4821 90.4219 73.8761 88.9896 72.6641 87.9759C71.4741 86.9622 69.722 86.4554 67.4081 86.4554H60.1691L61.2601 85.2985V99.2144ZM85.6761 107.478V84.3399H87.692L103.658 104.437H102.6V84.3399H105.013V107.478H102.997L87.0641 87.3809H88.1221V107.478H85.6761ZM115.54 107.478V84.3399H117.986V107.478H115.54ZM132.985 107.478V86.4554H124.853V84.3399H143.562V86.4554H135.431V107.478H132.985ZM159.314 107.676C156.361 107.676 154.037 106.828 152.34 105.131C150.643 103.434 149.795 100.922 149.795 97.5947V84.3399H152.241V97.4956C152.241 100.228 152.858 102.244 154.092 103.545C155.326 104.845 157.067 105.495 159.314 105.495C161.584 105.495 163.336 104.845 164.57 103.545C165.804 102.244 166.421 100.228 166.421 97.4956V84.3399H168.801V97.5947C168.801 100.922 167.952 103.434 166.256 105.131C164.581 106.828 162.267 107.676 159.314 107.676ZM179.147 107.478V84.3399H187.807C189.768 84.3399 191.454 84.6594 192.864 85.2985C194.275 85.9155 195.354 86.819 196.104 88.0089C196.875 89.1769 197.26 90.5982 197.26 92.273C197.26 93.9037 196.875 95.314 196.104 96.5039C195.354 97.6719 194.275 98.5754 192.864 99.2144C191.454 99.8314 189.768 100.14 187.807 100.14H180.502L181.593 99.0161V107.478H179.147ZM194.947 107.478L188.997 99.0822H191.641L197.624 107.478H194.947ZM181.593 99.2144L180.502 98.0575H187.741C190.055 98.0575 191.806 97.5507 192.996 96.537C194.208 95.5233 194.814 94.102 194.814 92.273C194.814 90.4219 194.208 88.9896 192.996 87.9759C191.806 86.9622 190.055 86.4554 187.741 86.4554H180.502L181.593 85.2985V99.2144ZM208.19 94.6859H220.42V96.7684H208.19V94.6859ZM208.455 105.363H222.371V107.478H206.009V84.3399H221.875V86.4554H208.455V105.363Z" fill="#5D85A5"/>
<path d="M2.85896 21V19.8761L9.27197 13.5958C9.85997 13.0229 10.3 12.5234 10.594 12.0973C10.888 11.6566 11.086 11.2453 11.189 10.8633C11.292 10.4813 11.343 10.1214 11.343 9.78354C11.343 8.88739 11.035 8.18223 10.418 7.66805C9.81597 7.15387 8.91897 6.89678 7.72897 6.89678C6.81897 6.89678 6.01096 7.03634 5.30496 7.31547C4.61496 7.5946 4.01997 8.02798 3.52097 8.61561L2.39697 7.64602C2.99897 6.94085 3.76998 6.39729 4.70998 6.01533C5.65098 5.63337 6.70097 5.44238 7.86197 5.44238C8.90497 5.44238 9.80798 5.61133 10.572 5.94922C11.336 6.27242 11.924 6.74987 12.335 7.38158C12.761 8.01329 12.974 8.75518 12.974 9.60725C12.974 10.1067 12.901 10.5989 12.754 11.0837C12.622 11.5685 12.372 12.0826 12.004 12.6262C11.652 13.1551 11.13 13.7574 10.44 14.4332L4.55597 20.2067L4.11497 19.5897H13.679V21H2.85896ZM21.885 21V6.23569L22.59 6.98493H18.249V5.5746H23.471V21H21.885ZM36.833 21.1322C35.643 21.1322 34.585 20.8237 33.659 20.2067C32.734 19.575 32.007 18.6788 31.478 17.5183C30.949 16.343 30.684 14.9327 30.684 13.2873C30.684 11.6419 30.949 10.2389 31.478 9.07838C32.007 7.90311 32.734 7.00696 33.659 6.38995C34.585 5.75824 35.643 5.44238 36.833 5.44238C38.022 5.44238 39.08 5.75824 40.006 6.38995C40.931 7.00696 41.658 7.90311 42.187 9.07838C42.731 10.2389 43.003 11.6419 43.003 13.2873C43.003 14.9327 42.731 16.343 42.187 17.5183C41.658 18.6788 40.931 19.575 40.006 20.2067C39.08 20.8237 38.022 21.1322 36.833 21.1322ZM36.833 19.6778C37.743 19.6778 38.537 19.4354 39.212 18.9506C39.888 18.4511 40.417 17.7313 40.799 16.7911C41.181 15.8362 41.372 14.6682 41.372 13.2873C41.372 11.9063 41.181 10.7458 40.799 9.80557C40.417 8.85067 39.888 8.13081 39.212 7.64602C38.537 7.14653 37.743 6.89678 36.833 6.89678C35.951 6.89678 35.165 7.14653 34.475 7.64602C33.784 8.13081 33.248 8.85067 32.866 9.80557C32.484 10.7458 32.293 11.9063 32.293 13.2873C32.293 14.6682 32.484 15.8362 32.866 16.7911C33.248 17.7313 33.784 18.4511 34.475 18.9506C35.165 19.4354 35.951 19.6778 36.833 19.6778Z" fill="#5D85A5"/>
<path opacity="0.4" d="M2 34.4319H222.363" stroke="#FFA62B" stroke-width="2.75454"/>
</g>
<defs>
<clipPath id="clip0_98_792">
<rect width="225" height="116" fill="white"/>
</clipPath>
</defs>
</svg>
