<svg width="64" height="64" viewBox="0 0 64 64" fill="none" xmlns="http://www.w3.org/2000/svg">
<path d="M10.7626 27.6348C11.659 24.7163 13.3414 22.1008 15.6253 20.0748C14.3826 19.0815 15.6253 12.9068 15.6253 12.9068C15.6253 12.9068 20.5933 15.1068 21.4813 16.1362C21.4813 16.1362 25.3133 11.4868 36.4226 11.4868C47.532 11.4868 58 20.0761 58 31.5388C58 43.0015 49.6946 46.6575 49.6946 46.6575C49.262 48.68 48.5953 50.6452 47.708 52.5135H43.3066C42.6045 51.4332 41.9764 50.3067 41.4266 49.1415C41.4266 49.1415 37.9133 49.5681 35.3933 49.5681C33.6175 49.532 31.8482 49.3419 30.1053 49.0002C29.9548 50.2485 29.5305 51.4482 28.8626 52.5135H24.072C22.5813 51.2361 21.836 47.2255 21.836 47.2255C21.836 47.2255 9.76929 41.7602 7.21329 38.4935C5.82796 35.9028 6.00529 30.1535 6.00529 30.1535C7.34705 28.9178 8.98533 28.0497 10.7613 27.6335L10.7626 27.6348Z" stroke="#0680E2" stroke-width="2" stroke-linecap="round" stroke-linejoin="round"/>
<path d="M26.0587 18.3719C28.9021 16.3276 32.3575 15.3136 35.8547 15.4973C39.6758 15.4344 43.4132 16.6181 46.5014 18.8693" stroke="#0680E2" stroke-width="2" stroke-linecap="round" stroke-linejoin="round"/>
<path d="M15.4827 29.3799C16.035 29.3799 16.4827 28.9322 16.4827 28.3799C16.4827 27.8276 16.035 27.3799 15.4827 27.3799C14.9304 27.3799 14.4827 27.8276 14.4827 28.3799C14.4827 28.9322 14.9304 29.3799 15.4827 29.3799Z" fill="#0680E2"/>
</svg>
