<svg width="64" height="64" viewBox="0 0 64 64" fill="none" xmlns="http://www.w3.org/2000/svg">
<path d="M53 13H11C8.23858 13 6 15.2386 6 18V47.5C6 50.2614 8.23858 52.5 11 52.5H53C55.7614 52.5 58 50.2614 58 47.5V18C58 15.2386 55.7614 13 53 13Z" stroke="#0680E2" stroke-width="1.5"/>
<path d="M10.5 21.5H32H53.5V26.6489H32H10.5V21.5ZM14.625 35.3652H15V37.5H14.625V35.3652ZM17.375 35.3652H17.75V37.5H17.375V35.3652ZM20.125 35.3652H20.5V37.5H20.125V35.3652ZM24.25 35.3652H24.625V37.5H24.25V35.3652ZM27 35.3652H27.375V37.5H27V35.3652ZM29.75 35.3652H30.125V37.5H29.75V35.3652ZM33.875 35.3652H34.25V37.5H33.875V35.3652ZM36.625 35.3652H37V37.5H36.625V35.3652ZM39.375 35.3652H39.75V37.5H39.375V35.3652ZM43.5 35.3652H43.875V37.5H43.5V35.3652ZM46.25 35.3652H46.625V37.5H46.25V35.3652ZM49 35.3652H49.375V37.5H49V35.3652Z" fill="#0680E2" stroke="#0680E2"/>
</svg>
