<svg width="64" height="64" viewBox="0 0 64 64" fill="none" xmlns="http://www.w3.org/2000/svg">
<path d="M30.9961 8.01562C30.9336 8.01562 30.875 8.01953 30.8125 8.03125C30.75 8.04688 30.6875 8.0625 30.625 8.08594C30.5664 8.11328 30.5117 8.14453 30.4531 8.17969C30.4258 8.19922 30.3867 8.20703 30.3594 8.23047L18 18.4609V15.0586C18 14.5039 17.5547 14.0586 17 14.0586C16.4453 14.0586 16 14.5039 16 15.0586V20.0586C16 20.0742 16.0078 20.0898 16.0117 20.1094L14 21.7695V11.0547C14 10.5039 13.5547 10.0547 13 10.0547C12.4453 10.0547 12 10.5039 12 11.0547V23.0586C12 23.168 12.0312 23.2734 12.0625 23.375L1.35936 32.2305C0.933576 32.582 0.878888 33.2109 1.22654 33.6367C1.42576 33.875 1.71483 34 1.99998 34C2.22654 34 2.45311 33.9258 2.64061 33.7695L5.99998 30.9883V56H2.99998C2.44529 56 1.99998 56.4492 1.99998 57C1.99998 57.5508 2.44529 58 2.99998 58H59C59.5547 58 60 57.5508 60 57C60 56.4492 59.5547 56 59 56H56V30.9883L59.3594 33.7695C59.5469 33.9258 59.7734 34 60 34C60.2851 34 60.5703 33.875 60.7695 33.6406C61.1211 33.2109 61.0625 32.582 60.6367 32.2305L31.6367 8.23047C31.6094 8.20703 31.5742 8.19922 31.543 8.17969C31.4844 8.14062 31.4297 8.10937 31.3633 8.08594C31.3047 8.0625 31.25 8.04688 31.1875 8.03125C31.125 8.01953 31.0625 8.01562 30.9961 8.01562ZM31 10.2969L54 29.332V46H38V38C38 36.8984 37.1015 36 36 36H26C24.8984 36 24 36.8984 24 38V46H7.99998V29.332L31 10.2969ZM31 20C28.2422 20 26 22.2422 26 25C26 27.7578 28.2422 30 31 30C33.7578 30 36 27.7578 36 25C36 22.2422 33.7578 20 31 20ZM31 21.793C32.7695 21.793 34.207 23.2305 34.207 25C34.207 26.7695 32.7695 28.207 31 28.207C29.2305 28.207 27.793 26.7695 27.793 25C27.793 23.2305 29.2305 21.793 31 21.793ZM26 38H36V55.9492H26V38ZM33 45C32.4453 45 32 45.4492 32 46V48C32 48.5508 32.4453 49 33 49C33.5547 49 34 48.5508 34 48V46C34 45.4492 33.5547 45 33 45ZM7.99998 48H24V56H7.99998V48ZM38 48H54V56H38V48ZM11 50C10.4453 50 9.99998 50.4492 9.99998 51V53C9.99998 53.5508 10.4453 54 11 54C11.5547 54 12 53.5508 12 53V51C12 50.4492 11.5547 50 11 50ZM16 50C15.4453 50 15 50.4492 15 51V53C15 53.5508 15.4453 54 16 54C16.5547 54 17 53.5508 17 53V51C17 50.4492 16.5547 50 16 50ZM21 50C20.4453 50 20 50.4492 20 51V53C20 53.5508 20.4453 54 21 54C21.5547 54 22 53.5508 22 53V51C22 50.4492 21.5547 50 21 50ZM41 50C40.4453 50 40 50.4492 40 51V53C40 53.5508 40.4453 54 41 54C41.5547 54 42 53.5508 42 53V51C42 50.4492 41.5547 50 41 50ZM46 50C45.4453 50 45 50.4492 45 51V53C45 53.5508 45.4453 54 46 54C46.5547 54 47 53.5508 47 53V51C47 50.4492 46.5547 50 46 50ZM51 50C50.4453 50 50 50.4492 50 51V53C50 53.5508 50.4453 54 51 54C51.5547 54 52 53.5508 52 53V51C52 50.4492 51.5547 50 51 50Z" fill="#0680E2"/>
</svg>
