<svg width="64" height="64" viewBox="0 0 64 64" fill="none" xmlns="http://www.w3.org/2000/svg">
<path fill-rule="evenodd" clip-rule="evenodd" d="M9.7876 15C8.07584 15 6.68819 16.3876 6.68819 18.0994V19.8394H3.26253V21.3619H6.68819V28.5395H4.35004V30.062H6.68819V33.9771H1.08751V35.4996H6.68819V44.1997C6.68819 45.9114 8.07584 47.2991 9.7876 47.2991H12.061C12.4848 49.2575 14.2274 50.7247 16.3127 50.7247C18.3979 50.7247 20.1405 49.2575 20.5643 47.2991H45.6754H50.1239C50.5477 49.2575 52.2903 50.7247 54.3755 50.7247C56.4608 50.7247 58.2034 49.2575 58.6272 47.2991H60.9006C62.6124 47.2991 64 45.9114 64 44.1997V38.8283C64 38.2598 63.8437 37.7023 63.5481 37.2167L56.8882 26.2755C56.3258 25.3515 55.3224 24.7876 54.2407 24.7876H46.5998V18.0994C46.5998 16.3877 45.2122 15 43.5004 15H9.7876ZM13.0501 35.4996H8.53696V44.1997C8.53696 44.8904 9.09689 45.4503 9.7876 45.4503H12.061C12.4848 43.4919 14.2274 42.0246 16.3127 42.0246C18.3979 42.0246 20.1405 43.4919 20.5643 45.4503H44.7511V25.712V18.0994C44.7511 17.4087 44.1911 16.8488 43.5004 16.8488H9.7876C9.09689 16.8488 8.53696 17.4087 8.53696 18.0994V19.8394H18.4877V21.3619H8.53696V28.5395H21.7502V30.062H8.53696V33.9771H13.0501V35.4996ZM58.6272 45.4503H60.9006C61.5913 45.4503 62.1512 44.8904 62.1512 44.1997V38.8283C62.1512 38.5989 62.0882 38.3739 61.9689 38.178L55.309 27.2367C55.0821 26.8639 54.6772 26.6364 54.2407 26.6364H46.5998V45.4503H50.1239C50.5477 43.4919 52.2903 42.0246 54.3755 42.0246C56.4608 42.0246 58.2034 43.4919 58.6272 45.4503ZM0 25.712H5.43755V24.1895H0V25.712Z" fill="#0680E2"/>
</svg>
