<!DOCTYPE svg PUBLIC "-//W3C//DTD SVG 1.1//EN" "http://www.w3.org/Graphics/SVG/1.1/DTD/svg11.dtd">
<!-- Uploaded to: SVG Repo, www.svgrepo.com, Transformed by: SVG Repo Mixer Tools -->
<svg fill="#327b81" height="800px" width="800px" version="1.1" id="Capa_1" xmlns="http://www.w3.org/2000/svg" xmlns:xlink="http://www.w3.org/1999/xlink" viewBox="0 0 330 330" xml:space="preserve">
<g id="SVGRepo_bgCarrier" stroke-width="0"/>
<g id="SVGRepo_tracerCarrier" stroke-linecap="round" stroke-linejoin="round"/>
<g id="SVGRepo_iconCarrier"> <g> <path d="M215,95c-8.285,0-15,6.716-15,15v90c0,8.284,6.715,15,15,15c8.283,0,15-6.716,15-15v-90C230,101.716,223.283,95,215,95z"/> <path d="M155,95c-8.285,0-15,6.716-15,15v90c0,8.284,6.715,15,15,15c8.283,0,15-6.716,15-15v-90C170,101.716,163.283,95,155,95z"/> <path d="M95,125c-8.285,0-15,6.716-15,15v60c0,8.284,6.715,15,15,15c8.283,0,15-6.716,15-15v-60C110,131.716,103.283,125,95,125z"/> <path d="M325.607,304.394l-50.961-50.961C296.725,226.645,310,192.344,310,155C310,69.533,240.467,0,155,0C69.532,0,0,69.533,0,155 s69.532,155,155,155c37.344,0,71.644-13.276,98.434-35.354l50.961,50.961C307.322,328.535,311.162,330,315,330 c3.84,0,7.678-1.465,10.607-4.394C331.465,319.748,331.465,310.252,325.607,304.394z M30,155C30,86.075,86.074,30,155,30 s125,56.075,125,125s-56.074,125-125,125S30,223.926,30,155z"/> </g> </g>
</svg>