<svg width="16" height="16" viewBox="0 0 16 16" fill="none" xmlns="http://www.w3.org/2000/svg">
<path fill-rule="evenodd" clip-rule="evenodd" d="M13.6163 3.89863C13.7489 3.7176 14.0032 3.67838 14.1842 3.81102C14.3652 3.94366 14.4045 4.19794 14.2718 4.37897L8.30506 12.5222C8.30019 12.529 8.29509 12.5357 8.28977 12.5422C8.21071 12.6391 8.09496 12.6907 7.97746 12.6914C7.92485 12.6918 7.87189 12.682 7.82171 12.6615C7.76122 12.6369 7.70597 12.5975 7.6619 12.5442C7.6559 12.5369 7.65017 12.5295 7.64473 12.5219L1.67821 4.37897C1.54557 4.19794 1.58479 3.94366 1.76582 3.81102C1.94684 3.67838 2.20112 3.7176 2.33376 3.89863L7.97502 11.5976L13.6163 3.89863Z" fill="#0680E2"/>
</svg>
