<svg width="80" height="80" viewBox="0 0 80 80" fill="none" xmlns="http://www.w3.org/2000/svg">
<circle cx="40" cy="40" r="40" fill="#FDFFFC"/>
<path fill-rule="evenodd" clip-rule="evenodd" d="M45.7836 50.3406C46.123 50.5893 46.1965 51.0661 45.9478 51.4055C45.6991 51.7449 45.2224 51.8185 44.8829 51.5698L29.6229 40.3883C29.587 40.3633 29.5529 40.3349 29.5212 40.3032C29.3743 40.1573 29.2972 39.9615 29.297 39.7633C29.2972 39.5659 29.3739 39.3707 29.5198 39.2249C29.552 39.1926 29.5865 39.1637 29.623 39.1383L44.8829 27.9569C45.2224 27.7082 45.6991 27.7818 45.9478 28.1212C46.1965 28.4606 46.123 28.9374 45.7836 29.1861L31.3481 39.7634L45.7836 50.3406Z" fill="#B01313"/>
</svg>
