<svg width="16" height="16" viewBox="0 0 16 16" fill="none" xmlns="http://www.w3.org/2000/svg">
<path fill-rule="evenodd" clip-rule="evenodd" d="M13.6163 12.1014C13.7489 12.2824 14.0032 12.3216 14.1842 12.189C14.3652 12.0563 14.4045 11.8021 14.2718 11.621L8.30502 3.47772C8.30016 3.47096 8.29508 3.46433 8.28977 3.45784C8.21072 3.3609 8.09496 3.30934 7.97746 3.30856C7.92485 3.30821 7.87189 3.31803 7.82171 3.33852C7.76122 3.36308 7.70597 3.40249 7.6619 3.45584C7.65591 3.46307 7.6502 3.47048 7.64477 3.47804L1.67821 11.621C1.54557 11.8021 1.58479 12.0563 1.76582 12.189C1.94684 12.3216 2.20112 12.2824 2.33376 12.1014L7.97502 4.40236L13.6163 12.1014Z" fill="#0680E2"/>
</svg>
