<svg width="80" height="80" viewBox="0 0 80 80" fill="none" xmlns="http://www.w3.org/2000/svg">
<circle r="40" transform="matrix(-1 0 0 1 40 40)" fill="#FDFFFC"/>
<path fill-rule="evenodd" clip-rule="evenodd" d="M34.2164 50.3406C33.877 50.5893 33.8035 51.0661 34.0522 51.4055C34.3009 51.7449 34.7776 51.8185 35.1171 51.5698L50.3771 40.3883C50.413 40.3633 50.4471 40.3349 50.4788 40.3032C50.6257 40.1573 50.7028 39.9615 50.703 39.7633C50.7028 39.5659 50.6261 39.3707 50.4802 39.2249C50.448 39.1926 50.4135 39.1637 50.377 39.1383L35.1171 27.9569C34.7776 27.7082 34.3009 27.7818 34.0522 28.1212C33.8035 28.4606 33.877 28.9374 34.2164 29.1861L48.6519 39.7634L34.2164 50.3406Z" fill="#B01313"/>
</svg>
