<svg width="32" height="32" viewBox="0 0 32 32" fill="none" xmlns="http://www.w3.org/2000/svg">
<circle cx="16" cy="16" r="15.5556" fill="#FDFFFC" stroke="#0680E2" stroke-width="0.888889"/>
<path fill-rule="evenodd" clip-rule="evenodd" d="M18.3136 20.1364C18.4493 20.2359 18.4788 20.4266 18.3793 20.5624C18.2798 20.6982 18.0891 20.7276 17.9533 20.6281L11.8496 16.1557C11.8344 16.1452 11.8201 16.1332 11.8069 16.1197C11.7818 16.0944 11.7619 16.0653 11.7474 16.0342C11.7285 15.9937 11.7192 15.9504 11.719 15.9074C11.7187 15.8619 11.7285 15.8161 11.749 15.7735C11.7632 15.7439 11.7823 15.7163 11.8062 15.692C11.8197 15.6783 11.8342 15.666 11.8497 15.6553L17.9533 11.183C18.0891 11.0835 18.2798 11.1129 18.3793 11.2487C18.4788 11.3844 18.4493 11.5752 18.3136 11.6746L12.5394 15.9055L18.3136 20.1364Z" fill="#0680E2"/>
</svg>
