<svg width="32" height="32" viewBox="0 0 32 32" fill="none" xmlns="http://www.w3.org/2000/svg">
<circle r="15.5556" transform="matrix(-1 0 0 1 16 16)" fill="#FDFFFC" stroke="#0680E2" stroke-width="0.888889"/>
<path fill-rule="evenodd" clip-rule="evenodd" d="M13.6864 20.1364C13.5507 20.2359 13.5212 20.4266 13.6207 20.5624C13.7202 20.6982 13.9109 20.7276 14.0467 20.6281L20.1504 16.1557C20.1656 16.1452 20.1799 16.1332 20.1931 16.1197C20.2182 16.0944 20.2381 16.0653 20.2526 16.0342C20.2715 15.9937 20.2808 15.9504 20.281 15.9074C20.2813 15.8619 20.2715 15.8161 20.251 15.7735C20.2368 15.7439 20.2177 15.7163 20.1938 15.692C20.1803 15.6783 20.1658 15.666 20.1503 15.6553L14.0467 11.183C13.9109 11.0835 13.7202 11.1129 13.6207 11.2487C13.5212 11.3844 13.5507 11.5752 13.6864 11.6746L19.4606 15.9055L13.6864 20.1364Z" fill="#0680E2"/>
</svg>
