<svg width="18" height="17" viewBox="0 0 18 17" fill="none" xmlns="http://www.w3.org/2000/svg">
<g clip-path="url(#clip0_641_108)">
<path d="M17.8981 4.59372C17.8463 4.5223 17.7775 4.464 17.6975 4.42375C17.6176 4.38349 17.5289 4.36245 17.4388 4.36239H5.44079L4.53258 1.32511C4.17642 0.129112 3.3301 0 2.98299 0H0.561392C0.251007 0 0 0.243695 0 0.544408C0 0.845121 0.25129 1.0888 0.561374 1.0888H2.98269C3.05929 1.0888 3.29306 1.0888 3.4525 1.62306L6.5768 12.7582C6.64464 12.9931 6.8654 13.1554 7.11724 13.1554H14.7486C14.9855 13.1554 15.197 13.0115 15.277 12.7952L17.9668 5.09097C18.0287 4.92403 18.003 4.73818 17.8981 4.59372H17.8981ZM14.3536 12.0669H7.54334L5.75633 5.45148H16.6407L14.3536 12.0669ZM13.2402 14.2588C12.4595 14.2588 11.8269 14.8723 11.8269 15.6294C11.8269 16.3865 12.4595 17 13.2402 17C14.0209 17 14.6535 16.3865 14.6535 15.6294C14.6535 14.8723 14.0209 14.2588 13.2402 14.2588ZM8.1522 14.2588C7.37148 14.2588 6.73887 14.8723 6.73887 15.6294C6.73887 16.3865 7.37148 17 8.1522 17C8.93293 17 9.56553 16.3865 9.56553 15.6294C9.56553 14.8723 8.93293 14.2588 8.1522 14.2588Z" fill="#0680E2"/>
</g>
<defs>
<clipPath id="clip0_641_108">
<rect width="18" height="17" fill="white"/>
</clipPath>
</defs>
</svg>
